<svg width="76" height="76" viewBox="0 0 76 76" fill="none" xmlns="http://www.w3.org/2000/svg">
<path d="M62.5002 61.5783C61.8854 61.5783 61.387 62.0767 61.387 62.6915V73.1585C61.387 73.4973 61.1112 73.7731 60.7723 73.7731H54.7877V51.8494C54.7877 51.2345 54.2893 50.7361 53.6744 50.7361C53.0596 50.7361 52.5612 51.2345 52.5612 51.8494V73.7733H40.5103L44.0049 69.9288C44.3867 69.5087 44.5668 68.9103 44.4865 68.3276C44.485 68.3163 44.4832 68.305 44.4813 68.2937L41.1529 48.6306L42.0496 47.2808C42.5453 47.6329 42.9273 47.9719 43.6435 47.9719C44.372 47.9719 45.0532 47.5641 45.3884 46.8929V46.8927L48.8989 39.8568L56.8961 42.954C57.1854 43.078 61.3867 44.97 61.3867 49.9658V57.4961C61.3865 58.1108 61.885 58.6094 62.4999 58.6094C63.1148 58.6094 63.6132 58.1109 63.6132 57.4961V49.9658C63.6132 43.3835 57.9772 40.9909 57.7373 40.8922C57.7304 40.8892 57.7232 40.8864 57.7161 40.8837L44.406 35.7291V32.6074C46.5201 30.9633 47.9859 28.5261 48.3539 25.7456C49.4079 25.6714 50.386 25.2777 51.1847 24.5909C52.2278 23.6939 52.8263 22.3884 52.8263 21.0097C52.8263 19.8655 52.4135 18.773 51.6778 17.9217V13.7977C51.6777 6.1897 45.4881 0 37.8801 0C30.2721 0 24.0826 6.1897 24.0826 13.7977V18.0298C23.339 18.8725 22.9347 19.9098 22.9347 21.0095C22.9347 22.3887 23.5329 23.694 24.5763 24.5912C25.3744 25.2777 26.3519 25.6709 27.4056 25.7453C27.7766 28.5779 29.2851 31.106 31.5792 32.7722V35.7291L18.2835 40.8835C18.2766 40.8862 18.2696 40.889 18.2626 40.8919C18.0226 40.9906 12.3867 43.3832 12.3867 49.9655V73.1582C12.3867 74.7249 13.6614 75.9996 15.2281 75.9996H25.835C26.4498 75.9996 26.9483 75.5011 26.9483 74.8863C26.9483 74.2714 26.4498 73.773 25.835 73.773H23.4397V51.8494C23.4397 51.2345 22.9412 50.7361 22.3264 50.7361C21.7116 50.7361 21.2131 51.2345 21.2131 51.8494V73.7733H15.2283C14.8894 73.7733 14.6136 73.4975 14.6136 73.1586V49.9657C14.6136 44.9531 18.843 43.0654 19.1028 42.9544L27.0938 39.8565L30.6046 46.8927C30.9405 47.5656 31.6226 47.9719 32.3496 47.9719C33.0623 47.9719 33.4405 47.6381 33.9435 47.2808L34.8403 48.6306L31.5121 68.2939C31.5102 68.305 31.5086 68.3161 31.5069 68.3274C31.4265 68.9099 31.6066 69.5085 31.9885 69.9289L35.4831 73.7734H31.0308C30.4159 73.7734 29.9175 74.2719 29.9175 74.8867C29.9175 75.5015 30.4159 76 31.0308 76H60.7724C62.3392 76 63.6138 74.7252 63.6138 73.1586V62.6917C63.6135 62.0767 63.1151 61.5783 62.5002 61.5783ZM46.8135 39.0493L43.5406 45.6088C43.4593 45.551 41.7248 44.3187 39.6045 42.8131C40.5245 41.6774 39.4482 43.0059 43.6472 37.8231L46.8135 39.0493ZM40.233 45.9908L39.3842 47.2684H36.608L35.7592 45.9908L37.9962 44.4021L40.233 45.9908ZM33.8056 36.0883V34.0048C35.1582 34.55 36.6037 34.8028 38.0153 34.8028C39.4749 34.8028 40.9063 34.4917 42.1793 33.935V36.0973L37.9962 41.2607L33.8056 36.0883ZM50.5996 21.0097C50.5994 21.739 50.2835 22.4291 49.7328 22.9027C49.3687 23.2159 48.9289 23.4162 48.4472 23.4945V18.5253C49.7268 18.7331 50.5996 19.7944 50.5996 21.0097ZM27.3136 23.4945C26.0195 23.2845 25.1612 22.2146 25.1612 21.0095C25.1612 19.8194 26.1479 18.8507 27.3136 18.5813V23.4945ZM27.3734 16.3127C27.0188 16.3534 26.6124 16.4494 26.3094 16.5524V13.7977C26.3094 7.41742 31.5 2.22671 37.8803 2.22671C44.2605 2.22671 49.4511 7.41742 49.4511 13.7977V16.476C49.1275 16.3776 48.7919 16.3125 48.4474 16.282C48.4474 15.2077 48.4567 15.4149 44.9425 11.6368C44.2962 10.9424 43.2271 10.7969 42.4135 11.3285C38.5349 13.8621 33.8034 15.135 29.4379 14.8215C28.4803 14.7498 27.6081 15.3805 27.3734 16.3127ZM29.5403 24.3711V17.4254V17.0595C34.346 17.3409 39.3844 15.9132 43.4547 13.3065C45.0664 15.037 45.9392 15.9447 46.2207 16.29C46.2207 17.1634 46.2207 23.3712 46.2207 24.3709C46.2207 28.8904 42.5356 32.5759 38.0155 32.5759C32.9398 32.5761 29.5403 28.6386 29.5403 24.3711ZM32.4519 45.6088L29.179 39.0493L32.3397 37.8251L36.3833 42.8163C34.327 44.2765 32.6385 45.4762 32.4519 45.6088ZM33.7292 68.5339L36.9516 49.4949H39.0403L42.2627 68.5339L37.996 73.2279L33.7292 68.5339Z" fill="#272626"/>
</svg>
