<svg width="132" height="98" viewBox="0 0 132 98" fill="none" xmlns="http://www.w3.org/2000/svg">
<path d="M10.8464 1.39136C26.6595 1.36414 42.5077 1.37804 58.3209 1.39136C56.1756 5.49602 54.2768 9.7773 51.9808 13.7945C50.8973 15.5949 48.9921 15.3506 47.1552 15.4525C38.765 15.398 30.3818 15.4392 21.9987 15.4189C21.9642 16.4925 21.9303 17.5731 21.8754 18.6468C21.6897 21.3854 21.5664 24.1245 21.4163 26.8636C26.8242 26.9384 32.0955 26.4971 37.4351 27.6454C42.7676 28.9096 47.7649 31.3152 51.9463 34.8425C54.4619 37.1328 56.6352 39.817 58.8757 42.3725C57.1626 45.1933 55.449 48.0066 53.9409 50.9496C53.0777 52.6284 52.2202 54.3066 51.343 55.9791C49.1089 52.417 47.1201 49.0264 43.9194 46.1917C40.4851 42.9841 36.167 40.864 31.3893 40.7615C26.3582 40.7481 21.341 40.5107 16.3098 40.5918C13.341 40.6462 10.3943 40.6734 7.45295 40.1708C6.85019 38.6142 6.37709 37.2075 6.5967 35.5084C7.38461 25.3209 7.96693 15.0923 8.72798 4.91171C8.87925 3.16514 9.23553 2.23395 10.8464 1.39136Z" fill="#D12F13"/>
<path d="M95.1315 27.0118C102.953 26.5636 110.596 29.1319 116.916 33.6176C122.282 37.8723 126.752 42.9759 129.206 49.4259C131.927 56.2014 132.235 63.9219 130.55 70.9898C127.279 84.3381 115.62 95.008 101.966 97.2578C93.5072 98.3725 84.9593 97.5566 77.5971 93.0031C72.8474 90.3121 69.5299 86.4176 66.0751 82.3124C68.721 77.8342 71.3598 73.3821 73.5396 68.6659C76.2952 73.0902 79.2354 77.1885 83.4168 80.417C88.462 83.9981 95.5222 84.9091 101.438 83.3727C110.493 81.0754 117.505 72.6762 117.786 63.3718C118.163 57.1123 115.572 50.6356 110.849 46.4354C104.338 40.2101 94.0346 38.7282 85.9534 42.7043C82.3678 44.3426 79.5099 47.8559 76.9669 50.7914C69.996 60.6465 66.3631 72.0774 59.0494 81.9933C55.1285 87.4577 49.6925 92.3777 43.4138 95.001C37.0462 97.8149 30.493 97.9104 23.6517 97.5635C19.1626 96.6798 14.8644 95.579 10.9371 93.1659C7.05011 90.9578 3.97965 87.8995 1.06631 84.5755C-0.229748 83.2505 -0.441765 80.8108 1.20356 79.6827C3.93117 77.4265 6.77618 75.3122 9.55227 73.1105C12.0544 76.5086 14.7552 79.5396 18.5248 81.585C22.7061 83.9918 27.374 84.2222 32.0898 83.8962C38.396 83.2708 43.8729 79.6213 47.3621 74.4696C51.4401 69.2572 54.059 63.5414 57.0547 57.7035C60.8173 50.4382 64.7312 42.8473 70.6951 37.1108C77.0288 30.4916 85.9125 26.7536 95.1315 27.0118Z" fill="#D12F13"/>
<path d="M9.98241 55.5588H12.602V68.7797H11.2785V56.8531H9.18457L9.98241 55.5588Z" fill="#231F20"/>
<path d="M21.8376 62.0757C22.6185 62.0757 23.2815 61.8053 23.8252 61.2627C24.369 60.7201 24.6412 60.0657 24.6412 59.2989C24.6412 58.5316 24.3678 57.8773 23.8211 57.3346C23.2739 56.7932 22.6104 56.5216 21.8312 56.5216C21.0579 56.5216 20.3973 56.7932 19.8506 57.3346C19.3034 57.8773 19.03 58.5316 19.03 59.2989C19.03 60.0657 19.3039 60.7201 19.853 61.2627C20.4008 61.8053 21.062 62.0757 21.8376 62.0757ZM20.381 69.1129L19.2841 68.4122L22.8919 62.9988C22.4083 63.1563 21.9544 63.2357 21.531 63.2357C20.4703 63.2357 19.5714 62.8569 18.8326 62.0983C18.0943 61.3403 17.7246 60.4073 17.7246 59.2989C17.7246 58.538 17.9033 57.8518 18.2596 57.2408C18.6159 56.6299 19.1223 56.1411 19.7782 55.7757C20.4341 55.4103 21.1367 55.2273 21.8855 55.2273C22.6232 55.2273 23.3042 55.4039 23.9298 55.7577C24.5553 56.111 25.0459 56.6061 25.4028 57.2408C25.7591 57.8761 25.9378 58.5531 25.9378 59.2717C25.9378 59.8178 25.8268 60.3876 25.6066 60.9841C25.3859 61.5806 24.9916 62.2975 24.4239 63.1366L20.381 69.1129Z" fill="#231F20"/>
<path d="M32.4601 62.2645C31.6857 62.2645 31.0239 62.5361 30.4766 63.0776C29.9288 63.6202 29.6548 64.278 29.6548 65.0506C29.6548 65.8179 29.9288 66.4722 30.4766 67.0143C31.0245 67.5569 31.6862 67.8279 32.4607 67.8279C33.2352 67.8279 33.8969 67.5569 34.4442 67.0143C34.9927 66.4722 35.2666 65.8179 35.2666 65.0506C35.2666 64.278 34.9921 63.6202 34.4442 63.0776C33.8964 62.5361 33.2352 62.2645 32.4601 62.2645ZM33.925 55.2273L35.0213 55.9373L31.4158 61.3472C31.8994 61.1862 32.3527 61.1046 32.7767 61.1046C33.835 61.1046 34.7345 61.4845 35.4728 62.2419C36.2116 63.0005 36.5808 63.9335 36.5808 65.0419C36.5808 65.8022 36.402 66.4902 36.0452 67.1035C35.6883 67.7185 35.1813 68.2072 34.5254 68.5697C33.8683 68.9323 33.1622 69.1129 32.4064 69.1129C31.674 69.1129 30.9953 68.9375 30.3692 68.5871C29.743 68.2368 29.2518 67.7439 28.895 67.1087C28.5375 66.474 28.3594 65.7941 28.3594 65.0685C28.3594 64.5294 28.4692 63.9624 28.6905 63.3654C28.9113 62.7695 29.3062 62.052 29.875 61.2134L33.925 55.2273Z" fill="#231F20"/>
<path d="M42.4298 62.0757C43.2113 62.0757 43.8742 61.8053 44.4174 61.2627C44.9618 60.7201 45.234 60.0657 45.234 59.2989C45.234 58.5316 44.96 57.8773 44.4133 57.3346C43.8666 56.7932 43.2031 56.5216 42.4234 56.5216C41.6501 56.5216 40.9895 56.7932 40.4434 57.3346C39.8961 57.8773 39.6222 58.5316 39.6222 59.2989C39.6222 60.0657 39.8967 60.7201 40.4452 61.2627C40.993 61.8053 41.6548 62.0757 42.4298 62.0757ZM40.9737 69.1129L39.8769 68.4122L43.4841 62.9988C43.0005 63.1563 42.5466 63.2357 42.1232 63.2357C41.0631 63.2357 40.1642 62.8569 39.4254 62.0983C38.6871 61.3403 38.3174 60.4073 38.3174 59.2989C38.3174 58.538 38.4961 57.8518 38.8524 57.2408C39.2081 56.6299 39.7151 56.1411 40.371 55.7757C41.0263 55.4103 41.7289 55.2273 42.4783 55.2273C43.2154 55.2273 43.897 55.4039 44.522 55.7577C45.1475 56.111 45.6381 56.6061 45.995 57.2408C46.3519 57.8761 46.5306 58.5531 46.5306 59.2717C46.5306 59.8178 46.4196 60.3876 46.1988 60.9841C45.9781 61.5806 45.5838 62.2975 45.0161 63.1366L40.9737 69.1129Z" fill="#231F20"/>
<path d="M77.1664 59.6939H75.8884C75.9241 58.3903 76.3639 57.3207 77.2073 56.4834C78.0501 55.6466 79.0909 55.2273 80.3303 55.2273C81.5568 55.2273 82.5492 55.6205 83.3079 56.4052C84.066 57.191 84.4457 58.1164 84.4457 59.1837C84.4457 59.9331 84.264 60.6361 83.9025 61.2922C83.5409 61.9489 82.8389 62.8372 81.7969 63.9584L78.4747 67.5042H84.6261V68.7805H75.5713L80.6656 63.322C81.6988 62.2246 82.371 61.4103 82.6823 60.8805C82.9937 60.3494 83.149 59.7894 83.149 59.2022C83.149 58.4587 82.8693 57.8188 82.3109 57.2825C81.7513 56.7451 81.0674 56.4764 80.2573 56.4764C79.4051 56.4764 78.6967 56.759 78.1319 57.3213C77.5671 57.8848 77.2452 58.6758 77.1664 59.6939Z" fill="#231F20"/>
<path d="M87.1442 62.1973C87.1442 63.6908 87.2786 64.8189 87.5466 65.5839C87.8159 66.3483 88.2136 66.928 88.7387 67.3247C89.265 67.7202 89.821 67.9177 90.4074 67.9177C90.9991 67.9177 91.5522 67.7248 92.0662 67.338C92.5796 66.9506 92.9692 66.3709 93.2355 65.5972C93.5672 64.6556 93.7343 63.5229 93.7343 62.1973C93.7343 60.866 93.5853 59.7761 93.2892 58.9277C92.9943 58.0794 92.5837 57.4586 92.0615 57.0659C91.5382 56.6727 90.9868 56.4764 90.4074 56.4764C89.8146 56.4764 89.2586 56.6727 88.7387 57.0659C88.2201 57.4586 87.8235 58.0371 87.5513 58.8021C87.2797 59.5665 87.1442 60.698 87.1442 62.1973ZM85.8838 62.1747C85.8838 60.4311 86.073 59.0835 86.4509 58.1303C86.8282 57.1777 87.3615 56.4556 88.0507 55.9645C88.7387 55.4728 89.5097 55.2273 90.3619 55.2273C91.2257 55.2273 92.0084 55.4751 92.7092 55.9685C93.4107 56.4631 93.9656 57.2043 94.3727 58.1934C94.7809 59.1825 94.9848 60.5093 94.9848 62.1747C94.9848 63.8344 94.7839 65.1554 94.3826 66.1387C93.9796 67.1208 93.4259 67.8627 92.7186 68.3624C92.0119 68.8628 91.2257 69.1129 90.3619 69.1129C89.5097 69.1129 88.7422 68.8697 88.0589 68.385C87.3761 67.9003 86.8434 67.1764 86.4591 66.2145C86.0759 65.2527 85.8838 63.9063 85.8838 62.1747Z" fill="#231F20"/>
<path d="M99.0244 55.5588H101.644V68.7797H100.32V56.8531H98.2266L99.0244 55.5588Z" fill="#231F20"/>
<path d="M110.88 62.0757C111.66 62.0757 112.323 61.8053 112.867 61.2627C113.411 60.7201 113.683 60.0657 113.683 59.2989C113.683 58.5316 113.41 57.8773 112.863 57.3346C112.316 56.7932 111.652 56.5216 110.873 56.5216C110.099 56.5216 109.439 56.7932 108.892 57.3346C108.345 57.8773 108.072 58.5316 108.072 59.2989C108.072 60.0657 108.346 60.7201 108.894 61.2627C109.442 61.8053 110.103 62.0757 110.88 62.0757ZM109.423 69.1129L108.325 68.4122L111.933 62.9988C111.45 63.1563 110.996 63.2357 110.572 63.2357C109.512 63.2357 108.613 62.8569 107.874 62.0983C107.136 61.3403 106.767 60.4073 106.767 59.2989C106.767 58.538 106.945 57.8518 107.302 57.2408C107.657 56.6299 108.164 56.1411 108.82 55.7757C109.476 55.4103 110.178 55.2273 110.927 55.2273C111.665 55.2273 112.346 55.4039 112.971 55.7577C113.597 56.111 114.088 56.6061 114.445 57.2408C114.801 57.8761 114.98 58.5531 114.98 59.2717C114.98 59.8178 114.869 60.3876 114.648 60.9841C114.428 61.5806 114.034 62.2975 113.465 63.1366L109.423 69.1129Z" fill="#231F20"/>
<path d="M63.8408 1.07202H65.3787L68.8013 6.79468L72.1697 1.07202H73.7145L69.4771 8.31656V14.9484H68.1606V8.31656L63.8408 1.07202Z" fill="#231F20"/>
<path d="M75.9258 1.07202H83.5911V2.43001H77.2627V6.77905H83.5362V8.13704H77.2627V13.5898H83.5362V14.9484H75.9258V1.07202Z" fill="#231F20"/>
<path d="M91.2016 4.02022L88.9097 9.04333H93.4824L91.2016 4.02022ZM91.3704 1.07202L97.6077 14.9484H96.1638L94.0606 10.3822H88.2981L86.2148 14.9484H84.7236L91.0433 1.07202H91.3704Z" fill="#231F20"/>
<path d="M101.078 2.43001V7.14678L103.382 7.16589C104.274 7.16589 104.934 7.07786 105.362 6.90182C105.79 6.72519 106.124 6.44375 106.365 6.05691C106.604 5.67065 106.724 5.23806 106.724 4.75973C106.724 4.29471 106.603 3.87197 106.36 3.4915C106.117 3.11103 105.798 2.83885 105.403 2.67497C105.009 2.51166 104.353 2.43001 103.437 2.43001H101.078ZM99.7412 1.07202H102.405C103.89 1.07202 104.897 1.13514 105.424 1.26023C106.218 1.44959 106.863 1.85381 107.361 2.47402C107.857 3.09424 108.106 3.85807 108.106 4.76494C108.106 5.52066 107.935 6.18489 107.592 6.75762C107.25 7.33035 106.76 7.76352 106.124 8.05654C105.488 8.34899 104.609 8.49897 103.487 8.50534L108.297 14.9484H106.644L101.833 8.50534H101.078V14.9484H99.7412V1.07202Z" fill="#231F20"/>
<path d="M109.603 12.3651L110.739 11.6574C111.539 13.1857 112.463 13.9501 113.512 13.9501C113.961 13.9501 114.383 13.8418 114.776 13.6246C115.17 13.4075 115.47 13.1168 115.676 12.7519C115.882 12.3871 115.985 12.0003 115.985 11.5914C115.985 11.1264 115.834 10.6701 115.531 10.2236C115.113 9.60742 114.349 8.8656 113.24 7.99752C112.124 7.12366 111.43 6.49129 111.157 6.10155C110.685 5.44775 110.448 4.74009 110.448 3.97915C110.448 3.37573 110.588 2.825 110.866 2.32814C111.145 1.83127 111.538 1.4398 112.044 1.15372C112.55 0.867647 113.1 0.724609 113.694 0.724609C114.325 0.724609 114.913 0.886757 115.463 1.21047C116.012 1.53419 116.592 2.13008 117.204 2.99816L116.113 3.85638C115.61 3.16436 115.181 2.70861 114.826 2.48855C114.472 2.26849 114.085 2.15846 113.666 2.15846C113.127 2.15846 112.686 2.32814 112.344 2.66807C112.001 3.00742 111.83 3.42553 111.83 3.9224C111.83 4.22411 111.891 4.51656 112.012 4.79974C112.133 5.08291 112.355 5.391 112.676 5.72398C112.851 5.9006 113.428 6.36273 114.404 7.11092C115.561 7.99752 116.355 8.78684 116.786 9.47886C117.215 10.1709 117.431 10.8652 117.431 11.563C117.431 12.5701 117.063 13.444 116.327 14.1858C115.59 14.9282 114.694 15.2988 113.64 15.2988C112.827 15.2988 112.091 15.0741 111.43 14.6242C110.77 14.1748 110.16 13.4214 109.603 12.3651Z" fill="#231F20"/>
</svg>
