<?xml version="1.0" encoding="utf-8"?>
<!-- Generator: Adobe Illustrator 17.0.0, SVG Export Plug-In . SVG Version: 6.00 Build 0)  -->
<!DOCTYPE svg PUBLIC "-//W3C//DTD SVG 1.1//EN" "http://www.w3.org/Graphics/SVG/1.1/DTD/svg11.dtd">
<svg version="1.1" id="Слой_1" xmlns="http://www.w3.org/2000/svg" xmlns:xlink="http://www.w3.org/1999/xlink" x="0px" y="0px"
	 width="137px" height="205px" viewBox="0 0 137 205" enable-background="new 0 0 137 205" xml:space="preserve">
<rect fill="none" width="137" height="108"/>
<path fill="#FFFFFF" d="M28.053,127.757c11.74-0.02,23.506-0.01,35.246,0c-1.593,3.064-3.002,6.26-4.707,9.259
	c-0.804,1.344-2.219,1.162-3.583,1.238c-6.229-0.041-12.453-0.01-18.677-0.025c-0.026,0.802-0.051,1.608-0.091,2.41
	c-0.138,2.044-0.229,4.089-0.341,6.134c4.015,0.055,7.928-0.274,11.893,0.583c3.959,0.944,7.669,2.74,10.773,5.373
	c1.868,1.71,3.481,3.714,5.145,5.621c-1.272,2.106-2.544,4.206-3.664,6.403c-0.641,1.253-1.277,2.506-1.929,3.755
	c-1.659-2.659-3.135-5.191-5.511-7.307c-2.55-2.394-5.756-3.977-9.303-4.053c-3.735-0.01-7.46-0.188-11.195-0.127
	c-2.204,0.041-4.392,0.061-6.575-0.314c-0.448-1.162-0.799-2.212-0.636-3.481c0.585-7.605,1.017-15.241,1.582-22.841
	C26.592,129.081,26.857,128.386,28.053,127.757z"/>
<path fill="#FFFFFF" d="M90.628,146.883c5.807-0.334,11.481,1.583,16.173,4.932c3.984,3.176,7.303,6.986,9.125,11.801
	c2.02,5.058,2.249,10.821,0.998,16.098c-2.428,9.964-11.085,17.929-21.222,19.609c-6.28,0.832-12.626,0.223-18.092-3.176
	c-3.526-2.009-5.989-4.916-8.554-7.981c1.964-3.343,3.924-6.667,5.542-10.187c2.046,3.302,4.229,6.362,7.333,8.772
	c3.746,2.673,8.987,3.353,13.379,2.207c6.723-1.715,11.929-7.986,12.137-14.931c0.281-4.673-1.643-9.508-5.15-12.644
	c-4.834-4.647-12.483-5.753-18.483-2.785c-2.662,1.223-4.784,3.846-6.672,6.037c-5.175,7.357-7.873,15.89-13.302,23.293
	c-2.911,4.079-6.947,7.752-11.608,9.71c-4.727,2.101-9.593,2.172-14.672,1.913c-3.333-0.66-6.524-1.481-9.44-3.283
	c-2.886-1.648-5.165-3.931-7.328-6.413c-0.962-0.989-1.12-2.81,0.102-3.652c2.025-1.684,4.137-3.263,6.198-4.906
	c1.858,2.536,3.863,4.799,6.661,6.326c3.104,1.797,6.57,1.969,10.071,1.725c4.682-0.467,8.748-3.191,11.339-7.037
	c3.028-3.891,4.972-8.158,7.196-12.516c2.793-5.424,5.699-11.09,10.127-15.373C77.188,149.481,83.784,146.691,90.628,146.883z"/>
<path fill="#FFFFFF" d="M27.411,168.194h1.945v9.869h-0.983v-8.903h-1.555L27.411,168.194z"/>
<path fill="#FFFFFF" d="M36.213,173.059c0.58,0,1.072-0.202,1.476-0.607c0.404-0.405,0.606-0.894,0.606-1.466
	c0-0.573-0.203-1.061-0.609-1.466c-0.406-0.405-0.899-0.607-1.477-0.607c-0.574,0-1.064,0.202-1.47,0.607
	c-0.406,0.405-0.609,0.893-0.609,1.466c0,0.572,0.203,1.061,0.611,1.466C35.146,172.857,35.637,173.059,36.213,173.059z
	 M35.131,178.312l-0.814-0.523l2.678-4.041c-0.359,0.118-0.696,0.177-1.01,0.177c-0.787,0-1.455-0.283-2.003-0.849
	c-0.548-0.566-0.823-1.262-0.823-2.09c0-0.568,0.133-1.08,0.397-1.536c0.264-0.456,0.64-0.821,1.127-1.094
	c0.487-0.273,1.009-0.409,1.564-0.409c0.548,0,1.053,0.131,1.518,0.396c0.465,0.263,0.829,0.633,1.094,1.107
	c0.264,0.474,0.397,0.979,0.397,1.516c0,0.407-0.082,0.833-0.246,1.278c-0.164,0.445-0.457,0.981-0.878,1.607L35.131,178.312z"/>
<path fill="#FFFFFF" d="M44.099,173.2c-0.575,0-1.066,0.203-1.473,0.607c-0.407,0.405-0.61,0.896-0.61,1.473
	c0,0.573,0.203,1.061,0.61,1.466c0.407,0.405,0.898,0.607,1.473,0.607c0.575,0,1.066-0.202,1.473-0.607
	c0.407-0.405,0.611-0.893,0.611-1.466c0-0.577-0.204-1.068-0.611-1.473C45.166,173.403,44.675,173.2,44.099,173.2z M45.187,167.947
	l0.814,0.53l-2.677,4.038c0.359-0.12,0.696-0.181,1.01-0.181c0.786,0,1.453,0.284,2.002,0.849c0.549,0.566,0.823,1.263,0.823,2.09
	c0,0.568-0.133,1.081-0.398,1.539c-0.265,0.459-0.641,0.824-1.128,1.095c-0.488,0.27-1.012,0.405-1.573,0.405
	c-0.544,0-1.048-0.131-1.513-0.392c-0.465-0.262-0.829-0.63-1.094-1.104c-0.265-0.474-0.398-0.981-0.398-1.523
	c0-0.402,0.082-0.826,0.246-1.271c0.164-0.445,0.457-0.981,0.879-1.607L45.187,167.947z"/>
<path fill="#FFFFFF" d="M51.501,173.059c0.58,0,1.072-0.202,1.476-0.607c0.404-0.405,0.606-0.894,0.606-1.466
	c0-0.573-0.203-1.061-0.609-1.466c-0.406-0.405-0.898-0.607-1.477-0.607c-0.574,0-1.065,0.202-1.47,0.607
	c-0.406,0.405-0.61,0.893-0.61,1.466c0,0.572,0.204,1.061,0.611,1.466C50.434,172.857,50.925,173.059,51.501,173.059z
	 M50.42,178.312l-0.814-0.523l2.678-4.041c-0.359,0.118-0.696,0.177-1.01,0.177c-0.787,0-1.454-0.283-2.003-0.849
	c-0.548-0.566-0.823-1.262-0.823-2.09c0-0.568,0.133-1.08,0.397-1.536c0.264-0.456,0.64-0.821,1.127-1.094
	c0.486-0.273,1.008-0.409,1.564-0.409c0.547,0,1.053,0.131,1.517,0.396c0.464,0.263,0.829,0.633,1.094,1.107
	s0.398,0.979,0.398,1.516c0,0.407-0.082,0.833-0.246,1.278c-0.164,0.445-0.457,0.981-0.878,1.607L50.42,178.312z"/>
<path fill="#FFFFFF" d="M77.29,171.281h-0.949c0.026-0.973,0.353-1.772,0.979-2.397c0.626-0.624,1.398-0.937,2.319-0.937
	c0.911,0,1.647,0.293,2.211,0.879c0.563,0.586,0.845,1.277,0.845,2.074c0,0.559-0.135,1.084-0.403,1.574
	c-0.268,0.49-0.79,1.153-1.563,1.99l-2.466,2.647h4.567v0.953h-6.722l3.782-4.075c0.767-0.819,1.266-1.427,1.497-1.822
	c0.231-0.397,0.347-0.815,0.347-1.253c0-0.555-0.208-1.033-0.622-1.433c-0.415-0.401-0.923-0.602-1.525-0.602
	c-0.633,0-1.159,0.211-1.578,0.631C77.588,169.93,77.349,170.521,77.29,171.281z"/>
<path fill="#FFFFFF" d="M84.698,173.15c0,1.115,0.1,1.957,0.299,2.528c0.2,0.571,0.495,1.003,0.885,1.299
	c0.391,0.296,0.804,0.443,1.239,0.443c0.439,0,0.85-0.144,1.232-0.433c0.381-0.289,0.67-0.722,0.868-1.299
	c0.246-0.703,0.37-1.549,0.37-2.538c0-0.994-0.111-1.808-0.33-2.441c-0.219-0.633-0.524-1.097-0.911-1.39
	c-0.389-0.293-0.798-0.44-1.228-0.44c-0.44,0-0.853,0.147-1.239,0.44c-0.385,0.293-0.679,0.725-0.882,1.296
	C84.799,171.186,84.698,172.031,84.698,173.15z M83.762,173.133c0-1.302,0.141-2.308,0.421-3.019
	c0.28-0.711,0.676-1.251,1.188-1.617c0.511-0.367,1.083-0.55,1.716-0.55c0.641,0,1.222,0.185,1.743,0.553
	c0.521,0.369,0.933,0.922,1.235,1.661c0.303,0.738,0.454,1.729,0.454,2.972c0,1.239-0.149,2.225-0.447,2.959
	c-0.299,0.733-0.71,1.287-1.235,1.66c-0.525,0.374-1.108,0.56-1.75,0.56c-0.633,0-1.202-0.181-1.71-0.543
	c-0.507-0.362-0.902-0.902-1.188-1.62C83.905,175.431,83.762,174.426,83.762,173.133z"/>
<path fill="#FFFFFF" d="M93.518,168.194h1.945v9.869H94.48v-8.903h-1.555L93.518,168.194z"/>
<path fill="#FFFFFF" d="M102.32,173.059c0.579,0,1.072-0.202,1.475-0.607c0.404-0.405,0.606-0.894,0.606-1.466
	c0-0.573-0.203-1.061-0.609-1.466s-0.899-0.607-1.477-0.607c-0.575,0-1.065,0.202-1.471,0.607s-0.609,0.893-0.609,1.466
	c0,0.572,0.204,1.061,0.611,1.466S101.743,173.059,102.32,173.059z M101.238,178.312l-0.815-0.523l2.679-4.041
	c-0.359,0.118-0.696,0.177-1.01,0.177c-0.787,0-1.455-0.283-2.004-0.849c-0.547-0.566-0.822-1.262-0.822-2.09
	c0-0.568,0.132-1.08,0.397-1.536c0.264-0.456,0.64-0.821,1.128-1.094c0.487-0.273,1.008-0.409,1.564-0.409
	c0.548,0,1.054,0.131,1.518,0.396c0.464,0.263,0.829,0.633,1.094,1.107c0.264,0.474,0.397,0.979,0.397,1.516
	c0,0.407-0.083,0.833-0.247,1.278c-0.163,0.445-0.456,0.981-0.878,1.607L101.238,178.312z"/>
<path fill="#FFFFFF" d="M67.397,127.519h1.142l2.541,4.272l2.501-4.272h1.147l-3.146,5.408v4.951h-0.977v-4.951L67.397,127.519z"/>
<path fill="#FFFFFF" d="M76.369,127.519h5.691v1.014h-4.698v3.246h4.658v1.014h-4.658v4.071h4.658v1.014h-5.65V127.519z"/>
<path fill="#FFFFFF" d="M87.71,129.72l-1.702,3.749h3.395L87.71,129.72z M87.836,127.519l4.631,10.359h-1.072l-1.562-3.409h-4.278
	l-1.547,3.409h-1.107l4.692-10.359H87.836z"/>
<path fill="#FFFFFF" d="M95.042,128.533v3.521l1.711,0.014c0.663,0,1.153-0.066,1.47-0.197c0.317-0.132,0.566-0.342,0.744-0.631
	c0.178-0.288,0.267-0.611,0.267-0.968c0-0.347-0.09-0.663-0.27-0.947c-0.18-0.284-0.417-0.487-0.71-0.61
	c-0.293-0.121-0.78-0.182-1.46-0.182H95.042z M94.05,127.519h1.978c1.102,0,1.85,0.047,2.241,0.14
	c0.59,0.142,1.069,0.443,1.438,0.906c0.369,0.463,0.554,1.034,0.554,1.711c0,0.564-0.128,1.06-0.382,1.487
	c-0.254,0.428-0.618,0.751-1.09,0.97c-0.473,0.218-1.125,0.33-1.958,0.335l3.571,4.81h-1.227l-3.571-4.81h-0.561v4.81H94.05V127.519
	z"/>
<path fill="#FFFFFF" d="M101.372,135.949l0.843-0.528c0.594,1.141,1.28,1.712,2.059,1.712c0.333,0,0.646-0.081,0.939-0.243
	c0.292-0.163,0.515-0.38,0.667-0.652c0.154-0.272,0.23-0.561,0.23-0.866c0-0.347-0.112-0.688-0.337-1.021
	c-0.311-0.46-0.878-1.014-1.701-1.662c-0.828-0.652-1.344-1.125-1.547-1.416c-0.35-0.488-0.526-1.016-0.526-1.584
	c0-0.45,0.104-0.862,0.311-1.232c0.207-0.371,0.498-0.664,0.874-0.877c0.376-0.214,0.784-0.32,1.225-0.32
	c0.468,0,0.906,0.121,1.313,0.362c0.408,0.242,0.839,0.687,1.293,1.335l-0.81,0.64c-0.374-0.516-0.692-0.856-0.955-1.021
	c-0.263-0.164-0.55-0.246-0.861-0.246c-0.401,0-0.728,0.127-0.982,0.38c-0.255,0.254-0.382,0.566-0.382,0.937
	c0,0.225,0.046,0.443,0.135,0.655c0.09,0.211,0.255,0.441,0.493,0.69c0.13,0.131,0.558,0.476,1.283,1.035
	c0.859,0.662,1.449,1.251,1.769,1.768c0.318,0.516,0.479,1.035,0.479,1.556c0,0.751-0.274,1.404-0.82,1.957
	c-0.547,0.555-1.212,0.831-1.995,0.831c-0.603,0-1.15-0.167-1.641-0.503C102.238,137.3,101.786,136.738,101.372,135.949z"/>
</svg>
