<svg width="224" height="177" viewBox="0 0 224 177" fill="none" xmlns="http://www.w3.org/2000/svg">
<g clip-path="url(#clip0)">
<path d="M23.7519 129.478C22.1826 128.869 20.5152 128.555 18.8326 128.55C17.8241 128.55 16.0778 128.55 16.0778 129.773C16.0778 132.237 24.8587 129.905 24.8587 137.074C24.8587 142.058 20.4313 143.307 16.7173 143.307C14.3901 143.321 12.0714 143.026 9.82207 142.428V137.607C11.6289 138.412 13.5839 138.829 15.5612 138.831C17.0698 138.831 18.4308 138.486 18.4308 137.55C18.4308 135.086 9.6499 137.312 9.6499 130.094C9.6499 124.978 14.438 124.074 18.2423 124.074C20.102 124.087 21.9548 124.302 23.7683 124.715L23.7519 129.478Z" fill="black"/>
<path d="M50.0786 129.88H44.4296V142.986H38.0181V129.88H32.3691V124.394H50.0786V129.88Z" fill="black"/>
<path d="M57.9985 124.394H72.4859V128.87H64.2706V131.506H72.1251V135.981H64.2706V138.511H72.6498V142.986H57.9985V124.394Z" fill="black"/>
<path d="M81.1025 124.394H95.5735V128.87H87.3664V131.506H95.2209V135.981H87.3664V138.511H95.7456V142.986H81.1025V124.394Z" fill="black"/>
<path d="M104.289 124.394H113.89L116.973 137.501H117.022V124.394H122.523V142.986H113.095L109.84 129.51H109.79V142.986H104.289V124.394Z" fill="black"/>
<path d="M147.677 142.296C145.442 143.014 143.104 143.356 140.757 143.306C135.207 143.306 130.755 140.022 130.755 133.452C130.755 127.219 135.395 124.099 140.757 124.099C142.862 124.024 144.967 124.256 147.005 124.789V129.798C145.655 129.065 144.137 128.697 142.602 128.73C139.421 128.73 137.314 130.512 137.314 133.896C137.314 136.449 138.249 138.691 140.807 138.691C141.269 138.721 141.733 138.666 142.176 138.527V133.6H147.677V142.296Z" fill="black"/>
<path d="M165.337 138.831C163.042 138.831 162.771 135.686 162.771 133.69C162.771 131.958 162.96 128.55 165.337 128.55C167.715 128.55 167.945 131.958 167.969 133.69C167.969 135.686 167.871 138.831 165.337 138.831ZM165.337 124.05C159.5 124.05 156.073 127.433 156.073 133.666C156.073 139.899 159.5 143.282 165.337 143.282C171.175 143.282 174.668 139.997 174.668 133.666C174.668 127.334 171.175 124.05 165.337 124.05Z" fill="black"/>
<path d="M182.809 124.394H197.296V128.87H189.081V131.506H196.936V135.981H189.081V138.511H197.46V142.986H182.809V124.394Z" fill="black"/>
<path d="M214.137 138.347H212.497V128.706H214.079C216.375 128.706 216.949 130.348 216.949 133.551C216.949 136.753 216.424 138.347 214.104 138.347H214.137ZM215.489 124.386H206.118V142.986H215.26C220.048 142.986 223.688 140.777 223.688 133.748C223.688 126.209 220.31 124.403 215.489 124.403" fill="black"/>
<path d="M18.8653 150.968H10.0352V176.557H18.8653V150.968Z" fill="black"/>
<path d="M24.9902 150.968H38.1985L42.4455 169.002H42.5111V150.968H50.095V176.557H37.1163L32.6315 158.006H32.5659V176.557H24.9902V150.968Z" fill="black"/>
<path d="M94.3932 158.523H86.6207V176.557H77.7905V158.523H70.0181V150.968H94.3932V158.523Z" fill="black"/>
<path d="M99.0337 150.968H118.965V157.127H107.667V160.757H118.473V166.916H107.667V170.398H119.195V176.557H99.0337V150.968Z" fill="black"/>
<path d="M147.12 175.604C144.046 176.594 140.829 177.066 137.601 177C129.959 177 123.835 172.525 123.835 163.401C123.835 154.828 130.222 150.533 137.601 150.533C140.499 150.431 143.396 150.752 146.201 151.486V158.375C144.343 157.367 142.255 156.861 140.142 156.906C135.764 156.906 132.862 159.369 132.862 164.017C132.862 167.54 134.149 170.587 137.675 170.587C138.309 170.628 138.945 170.553 139.552 170.365V163.549H147.128L147.12 175.604Z" fill="black"/>
<path d="M153.154 150.968H173.077V157.127H161.779V160.757H172.585V166.916H161.779V170.398H173.315V176.557H153.154V150.968Z" fill="black"/>
<path d="M178.972 150.968H187.802V169.002H198.641V176.557H178.972V150.968Z" fill="black"/>
<path d="M222.516 157.973C220.34 157.129 218.028 156.695 215.695 156.692C214.309 156.692 211.907 156.692 211.907 158.375C211.907 161.709 223.992 158.556 223.992 168.419C223.992 175.275 217.9 177 212.792 177C209.591 177.02 206.401 176.614 203.306 175.793V169.158C205.794 170.266 208.487 170.839 211.21 170.841C213.284 170.841 215.162 170.365 215.162 169.084C215.162 165.635 203.077 168.755 203.077 158.819C203.077 151.781 209.636 150.533 214.899 150.533C217.46 150.55 220.011 150.844 222.508 151.412L222.516 157.973Z" fill="black"/>
<path d="M168.207 10.1172H119.227V59.1753H168.207V10.1172Z" fill="#D2232A"/>
<path d="M222.623 10.1172H173.643V59.1753H222.623V10.1172Z" fill="#D2232A"/>
<path d="M113.791 64.6279H64.8115V113.686H113.791V64.6279Z" fill="#D2232A"/>
<path d="M168.207 64.6279H119.227V113.686H168.207V64.6279Z" fill="#D2232A"/>
<path d="M64.9511 10.1089V30.3677L34.6318 0L0 34.6872L29.8847 64.6279H10.2321V113.686H59.2119V64.6279H39.3789L64.9511 39.0149V59.167H113.923V10.1089H64.9511Z" fill="#D2232A"/>
<path d="M222.623 64.6279H173.643V113.686H222.623V64.6279Z" fill="#D2232A"/>
<path d="M36.7718 52.6468C27.6875 52.6468 21.3662 45.2561 21.3662 34.712C21.3662 22.3941 28.9337 16.7771 36.3291 16.7771C43.0111 16.7771 47.7254 21.926 47.7254 24.406C47.7254 26.0894 45.2658 27.2801 44.2491 27.2801C41.6665 27.2801 41.2237 23.2153 36.5012 23.2153C32.7626 23.2153 28.3024 26.0894 28.3024 34.5149C28.3024 41.651 31.5819 46.2087 36.5832 46.2087C40.8548 46.2087 42.3224 42.5379 44.2409 42.5379C46.0201 42.5379 47.8074 43.8272 47.8074 45.3136C47.8074 48.0892 42.2896 52.6468 36.7636 52.6468" fill="#FFF200"/>
<path d="M96.9428 48.7295C96.2295 47.2432 95.7868 46.6437 94.8931 46.266C94.3602 45.9703 92.9336 45.8718 90.7937 45.8718H87.4076C84.9479 45.8718 84.2019 46.0688 82.6031 49.0416C81.7094 50.5279 81.2667 51.3245 79.3236 51.3245H77.5444C75.4947 51.3245 75.4947 49.6411 75.9046 48.1547L85.0791 20.6037C85.7022 18.7231 86.7681 17.7295 88.1045 17.7295H91.22C92.4663 17.7295 93.6223 18.2222 94.3356 20.4066L103.953 48.746C104.576 50.5279 103.33 51.3245 101.903 51.3245H99.7632C98.6974 51.3245 97.8939 50.6347 96.91 48.746" fill="#FFF200"/>
<path d="M91.958 30.7948C91.425 28.6105 90.7118 27.9207 89.8181 27.9207C88.9244 27.9207 88.1783 28.8158 87.7684 30.5978L86.0794 37.0359C85.6367 38.8179 86.9649 40.7066 88.5391 40.7066H90.8511C91.3091 40.6962 91.7581 40.5773 92.1613 40.3597C92.5646 40.1422 92.9108 39.8321 93.1715 39.4548C93.4321 39.0776 93.6 38.6439 93.6612 38.1892C93.7225 37.7345 93.6755 37.2718 93.5239 36.8388L91.958 30.7948Z" fill="#D2232A"/>
<path d="M138.765 27.6168V29.8997C138.765 32.6754 140.282 34.0632 143.217 34.0632H145.98C146.75 34.1007 147.52 33.9787 148.241 33.705C148.961 33.4312 149.618 33.0115 150.17 32.472C150.722 31.9326 151.156 31.285 151.447 30.5697C151.737 29.8544 151.878 29.0868 151.859 28.3149C151.859 25.2436 149.719 22.665 145.8 22.665H142.52C140.061 22.665 138.782 24.3074 138.782 27.5922" fill="#F9D327"/>
<path d="M157.253 28.3148C157.261 29.9293 156.893 31.5234 156.179 32.971C155.82 33.6547 155.37 34.2871 154.843 34.8515C154.31 35.4428 154.843 34.9501 153.203 36.3379C152.406 37.0584 151.899 38.0453 151.777 39.1135C151.745 39.7276 151.866 40.34 152.129 40.8955L155.515 47.6293C155.899 48.2761 156.175 48.9803 156.335 49.7151C156.335 50.8073 155.515 51.3 153.933 51.3H152.949C152.268 51.3323 151.593 51.1614 151.009 50.8091C150.426 50.4568 149.959 49.9389 149.67 49.321L147.267 44.5663C144.808 39.6391 143.881 38.7194 141.528 38.7194C139.175 38.7194 137.88 40.1072 137.88 42.7843V48.3355C137.88 50.3146 136.814 51.3083 134.764 51.3083C132.452 51.3083 131.739 50.4871 131.739 47.5472V21.0801C131.739 19.1011 132.559 18.1074 134.198 18.1074H146.8C153.359 18.1074 157.221 21.7699 157.221 28.3148" fill="#FFF200"/>
<path d="M137.937 27.6168V29.8997C137.937 32.6754 139.446 34.0632 142.389 34.0632H145.16C145.93 34.1007 146.7 33.9787 147.421 33.705C148.142 33.4312 148.798 33.0115 149.35 32.472C149.902 31.9326 150.336 31.285 150.627 30.5697C150.917 29.8544 151.058 29.0868 151.039 28.3149C151.039 25.2436 148.899 22.665 144.98 22.665H141.7C139.241 22.665 137.962 24.3074 137.962 27.5922" fill="#D2232A"/>
<path d="M198.026 52.3429C188.229 52.3429 182.891 44.1309 182.891 34.9993C182.891 22.8127 190.729 17.2615 197.854 17.2615C207.832 17.2615 213.169 25.6869 213.169 34.8022C213.169 45.0096 207.119 52.3429 198.034 52.3429" fill="#FFF200"/>
<path d="M197.632 46.7997C203.331 46.7997 206.889 42.1436 206.889 34.8103C206.889 28.0683 203.413 22.9194 197.985 22.9194C192.91 22.9194 189.081 26.9844 189.081 34.7118C189.081 41.848 192.639 46.7997 197.632 46.7997Z" fill="#D2232A"/>
<path d="M48.6762 96.4901C48.6762 102.633 45.1097 105.408 36.0336 105.408H25.9654C24.0961 105.408 23.3828 104.513 23.3828 102.124V75.2787C23.3828 73.3982 24.2027 72.4045 25.7851 72.4045H37.8947C44.1258 72.4045 47.5119 74.9831 47.5119 80.132C47.5119 85.4862 43.8635 85.5847 43.8635 87.9579C43.8635 90.8321 48.6762 90.4215 48.6762 96.4819" fill="#FFF200"/>
<path d="M28.9912 81.5281C28.9912 84.5994 30.4178 86.1843 33.2628 86.1843H36.0258C39.2316 86.1843 41.4534 84.2052 41.4534 81.4296C41.4534 78.966 39.6743 76.7734 36.2882 76.7734H32.7299C30.2374 76.7734 28.9912 78.3583 28.9912 81.5281Z" fill="#D2232A"/>
<path d="M29.0811 95.7923C29.0811 99.4548 30.1469 101.048 33.3526 101.048H36.378C39.9363 101.048 42.6091 98.8635 42.6091 95.5952C42.6091 92.9181 40.9693 90.5366 37.0913 90.5366H32.8361C30.3765 90.5366 29.0974 92.1215 29.0974 95.7923" fill="#D2232A"/>
<path d="M96.8774 102.83C96.1641 101.344 95.7213 100.752 94.8277 100.366C94.2947 100.071 92.8681 99.9722 90.7283 99.9722H87.3422C84.8825 99.9722 84.1364 100.169 82.5376 103.142C81.644 104.628 81.2012 105.417 79.2581 105.417H77.479C75.4293 105.417 75.4293 103.733 75.8392 102.247L85.0383 74.663C85.6614 72.7825 86.7272 71.7888 88.0636 71.7888H91.1792C92.4254 71.7888 93.5814 72.2815 94.2947 74.4659L103.912 102.805C104.535 104.587 103.289 105.384 101.862 105.384H99.7224C98.6565 105.384 97.853 104.694 96.8692 102.805" fill="#FFF200"/>
<path d="M91.8678 84.8949C91.3349 82.7106 90.6216 82.0208 89.7279 82.0208C88.8342 82.0208 88.0881 82.9159 87.6782 84.6979L85.9892 91.136C85.5465 92.918 86.8829 94.8067 88.4489 94.8067H90.7609C91.2189 94.7963 91.6678 94.6774 92.0711 94.4598C92.4744 94.2423 92.8205 93.9322 93.0812 93.5549C93.3419 93.1777 93.5098 92.744 93.571 92.2893C93.6323 91.8346 93.5853 91.3719 93.4338 90.9389L91.8678 84.8949Z" fill="#D2232A"/>
<path d="M155.679 75.1311C155.679 77.5126 154.794 78.3009 151.58 78.3009C148.194 78.3009 147.48 79.8858 147.48 82.2673V102.879C147.48 105.95 146.234 106.648 143.742 106.648C141.249 106.648 140.003 105.753 140.003 102.879V82.1687C140.003 79.7873 139.29 78.3009 135.814 78.3009C132.337 78.3009 131.895 77.4058 131.895 75.2296C131.895 73.0535 132.96 72.0598 135.01 72.0598H152.375C154.605 72.0598 155.655 73.0535 155.655 75.1311" fill="#FFF200"/>
<path d="M202.052 78.309V101.204C202.052 104.669 201.519 106.353 199.116 106.353H197.067C193.951 106.353 194.041 103.676 194.041 99.118L194.131 75.5333C194.131 72.7577 194.951 71.3699 196.591 71.3699H199.354C202.027 71.3699 202.027 73.9484 202.027 78.309" fill="#FFF200"/>
</g>
<defs>
<clipPath id="clip0">
<rect width="224" height="177" fill="white"/>
</clipPath>
</defs>
</svg>
