<svg width="98" height="73" viewBox="0 0 98 73" fill="none" xmlns="http://www.w3.org/2000/svg">
<path d="M8.05263 0.75727C19.7927 0.736951 31.5588 0.747327 43.2988 0.75727C41.7061 3.82145 40.2964 7.01749 38.5918 10.0164C37.7874 11.3604 36.3729 11.178 35.0091 11.2541C28.7801 11.2135 22.5562 11.2441 16.3323 11.229C16.3067 12.0305 16.2816 12.8372 16.2408 13.6387C16.1029 15.6831 16.0114 17.7279 15.9 19.7727C19.915 19.8284 23.8285 19.499 27.7927 20.3563C31.7517 21.3 35.4618 23.0958 38.5662 25.729C40.4338 27.4388 42.0474 29.4425 43.7108 31.3503C42.4389 33.456 41.1667 35.5562 40.047 37.7532C39.4061 39.0064 38.7696 40.2592 38.1182 41.5077C36.4596 38.8486 34.9831 36.3175 32.6068 34.2013C30.0571 31.8068 26.8513 30.2241 23.3042 30.1476C19.5689 30.1377 15.8441 29.9604 12.1088 30.0209C9.90466 30.0616 7.717 30.0819 5.53325 29.7066C5.08575 28.5446 4.73451 27.4945 4.89755 26.2261C5.48252 18.621 5.91484 10.9852 6.47986 3.38526C6.59217 2.08142 6.85668 1.38627 8.05263 0.75727Z" fill="white"/>
<path d="M70.6283 19.8833C76.435 19.5487 82.1095 21.466 86.8013 24.8146C90.7855 27.9908 94.1041 31.8007 95.9257 36.6157C97.946 41.6737 98.175 47.4372 96.9235 52.7135C94.4956 62.6782 85.8391 70.6434 75.7022 72.3229C69.4224 73.1551 63.0762 72.546 57.6103 69.1468C54.0841 67.1378 51.6211 64.2306 49.0561 61.166C51.0205 57.8229 52.9796 54.4994 54.5979 50.9787C56.6438 54.2815 58.8267 57.3409 61.931 59.751C65.6767 62.4244 70.9184 63.1044 75.3102 61.9575C82.0327 60.2425 87.2389 53.9724 87.4474 47.0265C87.7276 42.3537 85.8035 37.5188 82.2972 34.3833C77.4631 29.736 69.8139 28.6297 63.8143 31.598C61.1522 32.821 59.0305 35.4438 57.1424 37.6351C51.9671 44.9921 49.2699 53.5254 43.84 60.9278C40.9291 65.007 36.8933 68.6799 32.2318 70.6382C27.5044 72.7388 22.6391 72.8101 17.56 72.5512C14.2271 71.8915 11.036 71.0697 8.12033 69.2682C5.23454 67.6199 2.95495 65.3368 0.792014 62.8554C-0.170208 61.8663 -0.327615 60.045 0.893916 59.2029C2.91896 57.5186 5.03116 55.9402 7.0922 54.2966C8.94986 56.8334 10.955 59.0961 13.7536 60.623C16.8579 62.4196 20.3235 62.5917 23.8246 62.3483C28.5065 61.8814 32.5726 59.157 35.1631 55.3112C38.1907 51.4201 40.1351 47.1532 42.3592 42.7951C45.1526 37.3714 48.0584 31.7047 52.4861 27.4223C57.1884 22.4811 63.7839 19.6905 70.6283 19.8833Z" fill="white"/>
<path d="M7.41118 41.1938H9.35601V51.0634H8.3734V42.1601H6.81885L7.41118 41.1938Z" fill="white"/>
<path d="M16.2128 46.059C16.7925 46.059 17.2847 45.8571 17.6884 45.452C18.0921 45.047 18.2942 44.5584 18.2942 43.9861C18.2942 43.4133 18.0913 42.9248 17.6854 42.5197C17.2791 42.1155 16.7865 41.9127 16.208 41.9127C15.6339 41.9127 15.1435 42.1155 14.7376 42.5197C14.3313 42.9248 14.1283 43.4133 14.1283 43.9861C14.1283 44.5584 14.3317 45.047 14.7393 45.452C15.1461 45.8571 15.6369 46.059 16.2128 46.059ZM15.1313 51.3124L14.317 50.7893L16.9955 46.7481C16.6364 46.8657 16.2995 46.9249 15.9851 46.9249C15.1977 46.9249 14.5303 46.6422 13.9818 46.0758C13.4337 45.51 13.1592 44.8135 13.1592 43.9861C13.1592 43.418 13.2919 42.9057 13.5564 42.4497C13.8209 41.9936 14.1969 41.6287 14.6838 41.3559C15.1708 41.0831 15.6924 40.9465 16.2483 40.9465C16.796 40.9465 17.3016 41.0784 17.766 41.3425C18.2305 41.6062 18.5947 41.9759 18.8597 42.4497C19.1242 42.9239 19.2569 43.4293 19.2569 43.9658C19.2569 44.3734 19.1745 44.7988 19.011 45.2441C18.8471 45.6894 18.5544 46.2246 18.1329 46.851L15.1313 51.3124Z" fill="white"/>
<path d="M24.0992 46.1999C23.5242 46.1999 23.0329 46.4027 22.6266 46.8069C22.2198 47.2119 22.0165 47.703 22.0165 48.2797C22.0165 48.8525 22.2198 49.3411 22.6266 49.7457C23.0333 50.1508 23.5246 50.3531 24.0996 50.3531C24.6746 50.3531 25.1659 50.1508 25.5722 49.7457C25.9794 49.3411 26.1828 48.8525 26.1828 48.2797C26.1828 47.703 25.979 47.2119 25.5722 46.8069C25.1655 46.4027 24.6746 46.1999 24.0992 46.1999ZM25.1867 40.9465L26.0007 41.4765L23.3239 45.5151C23.6829 45.395 24.0194 45.334 24.3342 45.334C25.12 45.334 25.7877 45.6176 26.3358 46.1831C26.8844 46.7494 27.1584 47.4458 27.1584 48.2733C27.1584 48.8409 27.0257 49.3545 26.7608 49.8123C26.4959 50.2714 26.1195 50.6362 25.6325 50.9069C25.1447 51.1775 24.6204 51.3124 24.0593 51.3124C23.5155 51.3124 23.0117 51.1814 22.5468 50.9198C22.082 50.6583 21.7173 50.2904 21.4523 49.8162C21.1869 49.3423 21.0547 48.8348 21.0547 48.2931C21.0547 47.8907 21.1362 47.4674 21.3006 47.0217C21.4645 46.5769 21.7576 46.0413 22.18 45.4153L25.1867 40.9465Z" fill="white"/>
<path d="M31.5009 46.059C32.0811 46.059 32.5733 45.8571 32.9766 45.452C33.3807 45.047 33.5828 44.5584 33.5828 43.9861C33.5828 43.4133 33.3794 42.9248 32.9735 42.5197C32.5677 42.1155 32.0751 41.9127 31.4962 41.9127C30.922 41.9127 30.4316 42.1155 30.0262 42.5197C29.6199 42.9248 29.4165 43.4133 29.4165 43.9861C29.4165 44.5584 29.6203 45.047 30.0275 45.452C30.4342 45.8571 30.9255 46.059 31.5009 46.059ZM30.4199 51.3124L29.6055 50.7893L32.2836 46.7481C31.9246 46.8657 31.5877 46.9249 31.2733 46.9249C30.4862 46.9249 29.8189 46.6422 29.2703 46.0758C28.7222 45.51 28.4478 44.8135 28.4478 43.9861C28.4478 43.418 28.5804 42.9057 28.845 42.4497C29.109 41.9936 29.4854 41.6287 29.9724 41.3559C30.4589 41.0831 30.9806 40.9465 31.5369 40.9465C32.0842 40.9465 32.5902 41.0784 33.0542 41.3425C33.5186 41.6062 33.8829 41.9759 34.1478 42.4497C34.4127 42.9239 34.5454 43.4293 34.5454 43.9658C34.5454 44.3734 34.463 44.7988 34.2991 45.2441C34.1352 45.6894 33.8425 46.2246 33.421 46.851L30.4199 51.3124Z" fill="white"/>
<path d="M57.2902 44.2809H56.3414C56.3679 43.3078 56.6944 42.5093 57.3206 41.8842C57.9463 41.2595 58.719 40.9465 59.6392 40.9465C60.5498 40.9465 61.2865 41.2401 61.8498 41.8258C62.4127 42.4125 62.6945 43.1033 62.6945 43.9C62.6945 44.4595 62.5597 44.9843 62.2912 45.4741C62.0228 45.9643 61.5016 46.6275 60.728 47.4644L58.2615 50.1114H62.8285V51.0642H56.106L59.8881 46.9893C60.6552 46.1701 61.1543 45.5623 61.3854 45.1667C61.6165 44.7703 61.7319 44.3522 61.7319 43.9139C61.7319 43.3588 61.5241 42.8811 61.1096 42.4808C60.6942 42.0796 60.1864 41.879 59.585 41.879C58.9523 41.879 58.4263 42.09 58.007 42.5098C57.5877 42.9304 57.3487 43.5209 57.2902 44.2809Z" fill="white"/>
<path d="M64.698 46.1498C64.698 47.2647 64.7977 48.1068 64.9967 48.6779C65.1966 49.2485 65.492 49.6813 65.8818 49.9774C66.2725 50.2727 66.6853 50.4201 67.1207 50.4201C67.5599 50.4201 67.9706 50.2761 68.3522 49.9873C68.7333 49.6981 69.0226 49.2654 69.2203 48.6878C69.4666 47.9849 69.5906 47.1393 69.5906 46.1498C69.5906 45.1559 69.48 44.3423 69.2602 43.709C69.0412 43.0756 68.7364 42.6122 68.3487 42.3191C67.9602 42.0256 67.5508 41.879 67.1207 41.879C66.6805 41.879 66.2677 42.0256 65.8818 42.3191C65.4967 42.6122 65.2023 43.0441 65.0002 43.6152C64.7986 44.1858 64.698 45.0305 64.698 46.1498ZM63.7622 46.1329C63.7622 44.8312 63.9027 43.8253 64.1833 43.1137C64.4634 42.4025 64.8593 41.8635 65.371 41.4969C65.8818 41.1298 66.4542 40.9465 67.0868 40.9465C67.7282 40.9465 68.3092 41.1316 68.8296 41.4999C69.3504 41.8691 69.7623 42.4224 70.0646 43.1608C70.3677 43.8992 70.519 44.8896 70.519 46.1329C70.519 47.3719 70.3698 48.358 70.0719 49.092C69.7727 49.8252 69.3617 50.379 68.8365 50.7521C68.3118 51.1256 67.7282 51.3124 67.0868 51.3124C66.4542 51.3124 65.8844 51.1308 65.377 50.769C64.8701 50.4071 64.4747 49.8667 64.1893 49.1487C63.9049 48.4306 63.7622 47.4255 63.7622 46.1329Z" fill="white"/>
<path d="M73.5181 41.1938H75.463V51.0634H74.4803V42.1601H72.9258L73.5181 41.1938Z" fill="white"/>
<path d="M82.3197 46.059C82.8995 46.059 83.3916 45.8571 83.7949 45.452C84.1991 45.047 84.4011 44.5584 84.4011 43.9861C84.4011 43.4133 84.1982 42.9248 83.7923 42.5197C83.386 42.1155 82.8934 41.9127 82.3145 41.9127C81.7404 41.9127 81.25 42.1155 80.8441 42.5197C80.4378 42.9248 80.2353 43.4133 80.2353 43.9861C80.2353 44.5584 80.4386 45.047 80.8458 45.452C81.2526 45.8571 81.7434 46.059 82.3197 46.059ZM81.2382 51.3124L80.4235 50.7893L83.102 46.7481C82.7434 46.8657 82.406 46.9249 82.0916 46.9249C81.3046 46.9249 80.6372 46.6422 80.0883 46.0758C79.5406 45.51 79.2661 44.8135 79.2661 43.9861C79.2661 43.418 79.3984 42.9057 79.6633 42.4497C79.9274 41.9936 80.3033 41.6287 80.7907 41.3559C81.2777 41.0831 81.7989 40.9465 82.3553 40.9465C82.9025 40.9465 83.4086 41.0784 83.8725 41.3425C84.337 41.6062 84.7016 41.9759 84.9666 42.4497C85.2311 42.9239 85.3638 43.4293 85.3638 43.9658C85.3638 44.3734 85.2814 44.7988 85.1175 45.2441C84.954 45.6894 84.6613 46.2246 84.2394 46.851L81.2382 51.3124Z" fill="white"/>
<path d="M47.397 0.518799H48.5387L51.0798 4.79085L53.5805 0.518799H54.7275L51.5815 5.92695V10.8777H50.6041V5.92695L47.397 0.518799Z" fill="white"/>
<path d="M56.3691 0.518799H62.0601V1.53256H57.3617V4.77917H62.0193V5.79293H57.3617V9.86352H62.0193V10.8777H56.3691V0.518799Z" fill="white"/>
<path d="M67.7103 2.71967L66.0087 6.46949H69.4036L67.7103 2.71967ZM67.8356 0.518799L72.4663 10.8777H71.3944L69.8329 7.46898H65.5547L64.0079 10.8777H62.9009L67.5927 0.518799H67.8356Z" fill="white"/>
<path d="M75.0424 1.53256V5.05369L76.7531 5.06795C77.4157 5.06795 77.9057 5.00224 78.2235 4.87082C78.5409 4.73897 78.7894 4.52887 78.9676 4.24009C79.1454 3.95174 79.2343 3.62881 79.2343 3.27172C79.2343 2.92458 79.1446 2.609 78.9642 2.32497C78.7838 2.04095 78.547 1.83776 78.2539 1.71542C77.9612 1.59351 77.4742 1.53256 76.7939 1.53256H75.0424ZM74.0503 0.518799H76.0281C77.1303 0.518799 77.8779 0.56592 78.2691 0.659298C78.8588 0.800662 79.338 1.10241 79.7074 1.56541C80.0756 2.02841 80.2607 2.59862 80.2607 3.27561C80.2607 3.83977 80.1332 4.33563 79.8791 4.76318C79.625 5.19073 79.2612 5.51409 78.7894 5.73284C78.3168 5.95116 77.6641 6.06312 76.8311 6.06788L80.4021 10.8777H79.1749L75.6035 6.06788H75.0424V10.8777H74.0503V0.518799Z" fill="white"/>
<path d="M81.3716 8.9493L82.2154 8.42102C82.8091 9.56188 83.4955 10.1325 84.2743 10.1325C84.6073 10.1325 84.9204 10.0517 85.2127 9.88957C85.5049 9.72745 85.7278 9.51044 85.8805 9.23808C86.034 8.96573 86.1103 8.67695 86.1103 8.37174C86.1103 8.0246 85.998 7.68394 85.7729 7.35064C85.4624 6.89066 84.8953 6.33688 84.0718 5.68885C83.2436 5.0365 82.7284 4.56442 82.5255 4.27348C82.1751 3.78541 81.999 3.25713 81.999 2.68908C81.999 2.23862 82.1031 1.82749 82.31 1.45658C82.5168 1.08566 82.8082 0.793419 83.1842 0.57986C83.5601 0.366301 83.9682 0.259521 84.4092 0.259521C84.8775 0.259521 85.3146 0.380567 85.7222 0.622226C86.1298 0.863885 86.5608 1.30873 87.0148 1.95675L86.2048 2.59743C85.8315 2.08083 85.5132 1.7406 85.2495 1.57633C84.9867 1.41205 84.6997 1.32991 84.3888 1.32991C83.9881 1.32991 83.6611 1.45658 83.4066 1.71034C83.1521 1.96367 83.0254 2.2758 83.0254 2.64671C83.0254 2.87195 83.0705 3.09026 83.1603 3.30166C83.2501 3.51306 83.4148 3.74304 83.6533 3.99162C83.7834 4.12347 84.2114 4.46845 84.936 5.02699C85.795 5.68885 86.3848 6.27808 86.7048 6.79469C87.0235 7.3113 87.1835 7.82963 87.1835 8.35056C87.1835 9.10234 86.9103 9.75469 86.364 10.3085C85.8167 10.8627 85.152 11.1394 84.3688 11.1394C83.7656 11.1394 83.2188 10.9716 82.7284 10.6357C82.238 10.3003 81.7857 9.73783 81.3716 8.9493Z" fill="white"/>
</svg>
