<svg width="20" height="20" viewBox="0 0 20 20" fill="none" xmlns="http://www.w3.org/2000/svg">
<g clip-path="url(#clip0)">
<path d="M0.865795 10.8658L17.0442 10.8658L13.1838 14.7265C12.8456 15.0645 12.8456 15.6128 13.1838 15.9507C13.522 16.2889 14.0703 16.2889 14.408 15.9507L19.7464 10.6123C20.0845 10.2743 20.0845 9.72591 19.7464 9.38801L14.408 4.04932C14.239 3.88017 14.0174 3.79572 13.7959 3.79572C13.5744 3.79572 13.3529 3.88017 13.1838 4.04932C12.8456 4.38731 12.8456 4.93561 13.1838 5.27351L17.0442 9.13437L0.865795 9.13437C0.3877 9.13437 3.3756e-06 9.52201 3.41739e-06 10.0001C3.45919e-06 10.4782 0.38765 10.8658 0.865795 10.8658Z" fill="white"/>
</g>
<defs>
<clipPath id="clip0">
<rect width="20" height="20" fill="white" transform="translate(20 20) rotate(180)"/>
</clipPath>
</defs>
</svg>
