<svg width="16" height="16" viewBox="0 0 16 16" fill="none" xmlns="http://www.w3.org/2000/svg">
<circle cx="8" cy="8" r="8" fill="#272626"/>
<path d="M7.40867 9.492V9.036C7.40867 8.844 7.42067 8.672 7.44467 8.52C7.47667 8.368 7.52067 8.224 7.57667 8.088C7.64067 7.952 7.72067 7.82 7.81667 7.692C7.92067 7.564 8.04867 7.428 8.20067 7.284L8.74067 6.768C8.89267 6.632 9.02067 6.48 9.12467 6.312C9.23667 6.144 9.29267 5.94 9.29267 5.7C9.29267 5.388 9.19267 5.128 8.99267 4.92C8.80067 4.704 8.52467 4.596 8.16467 4.596C7.98067 4.596 7.81267 4.632 7.66067 4.704C7.51667 4.768 7.38867 4.86 7.27667 4.98C7.17267 5.092 7.09267 5.224 7.03667 5.376C6.98067 5.528 6.94867 5.684 6.94067 5.844L5.46467 5.712C5.51267 5.328 5.61267 4.988 5.76467 4.692C5.92467 4.388 6.12867 4.132 6.37667 3.924C6.62467 3.716 6.90867 3.56 7.22867 3.456C7.54867 3.344 7.89267 3.288 8.26067 3.288C8.60467 3.288 8.92867 3.34 9.23267 3.444C9.54467 3.54 9.81667 3.688 10.0487 3.888C10.2887 4.08 10.4767 4.32 10.6127 4.608C10.7487 4.896 10.8167 5.228 10.8167 5.604C10.8167 5.86 10.7887 6.084 10.7327 6.276C10.6767 6.468 10.5967 6.644 10.4927 6.804C10.3887 6.964 10.2607 7.12 10.1087 7.272C9.96467 7.416 9.80067 7.568 9.61667 7.728C9.45667 7.864 9.32467 7.984 9.22067 8.088C9.12467 8.192 9.04467 8.296 8.98067 8.4C8.92467 8.504 8.88467 8.616 8.86067 8.736C8.83667 8.856 8.82467 9.004 8.82467 9.18V9.492H7.40867ZM7.16867 11.16C7.16867 10.904 7.26067 10.684 7.44467 10.5C7.63667 10.316 7.86467 10.224 8.12867 10.224C8.38467 10.224 8.60867 10.312 8.80067 10.488C8.99267 10.664 9.08867 10.88 9.08867 11.136C9.08867 11.392 8.99267 11.612 8.80067 11.796C8.61667 11.98 8.39267 12.072 8.12867 12.072C8.00067 12.072 7.87667 12.048 7.75667 12C7.64467 11.952 7.54467 11.888 7.45667 11.808C7.36867 11.728 7.29667 11.632 7.24067 11.52C7.19267 11.408 7.16867 11.288 7.16867 11.16Z" fill="white"/>
</svg>
