<?xml version="1.0" encoding="utf-8"?><svg width="2336" height="1926" viewBox="0 0 2336 1926" xmlns="http://www.w3.org/2000/svg" xmlns:xlink="http://www.w3.org/1999/xlink"><svg width="24" height="24" fill="none" viewBox="0 0 24 24" id="address" x="2132" y="1246" xmlns="http://www.w3.org/2000/svg"><g clip-path="url(#aaclip0)" fill="#A9A8A8"><path d="M14.813 12.188a.469.469 0 100 .937.469.469 0 000-.938z"/><path d="M4.79 17.334L.102 23.24A.468.468 0 00.47 24h23.063a.469.469 0 00.367-.76l-4.688-5.906a.468.468 0 00-.367-.178h-4.106l3.506-5.498A7.468 7.468 0 0019.5 7.5C19.5 3.365 16.136 0 12 0 7.866 0 4.5 3.365 4.5 7.5c0 1.487.435 2.925 1.257 4.158l3.506 5.498H5.157a.469.469 0 00-.367.178zm-1.75 3.713h2.834l-1.6 2.015H1.44l1.6-2.015zm6.82-2.953l1.286 2.015H7.815l1.6-2.015h.446zm4.28 0h.447l1.6 2.015h-3.332l1.285-2.015zm2.79 2.953l1.6 2.015H5.47l1.6-2.015h9.86zm2.797 2.015l-1.6-2.015h2.835l1.6 2.015h-2.835zm.49-2.953h-2.834l-1.6-2.015h2.835l1.6 2.015zM6.54 11.142A6.534 6.534 0 015.438 7.5 6.57 6.57 0 0112.001.937 6.57 6.57 0 0118.563 7.5a6.535 6.535 0 01-1.102 3.642l-.005.008L12 19.706a707195.802 707195.802 0 00-5.461-8.564zm1.677 6.952l-1.6 2.015H3.784l1.6-2.015h2.834z"/><path d="M12 12.188A4.688 4.688 0 0016.688 7.5 4.693 4.693 0 0012 2.812 4.693 4.693 0 007.312 7.5 4.688 4.688 0 0012 12.188zm0-8.438A3.75 3.75 0 118.25 7.5 3.754 3.754 0 0112 3.75zm1.975 10.037a.469.469 0 00-.644.16L11.6 16.82a.469.469 0 00.803.484l1.732-2.874a.469.469 0 00-.16-.644z"/></g><defs><clipPath id="aaclip0"><path fill="#fff" d="M0 0h24v24H0z"/></clipPath></defs></svg><svg width="24" height="24" fill="none" viewBox="0 0 24 24" id="address-hover" x="2276" y="1246" xmlns="http://www.w3.org/2000/svg"><g clip-path="url(#abclip0)" fill="#d12229"><path d="M14.813 12.188a.469.469 0 100 .937.469.469 0 000-.938z"/><path d="M4.79 17.334L.102 23.24A.468.468 0 00.47 24h23.063a.469.469 0 00.367-.76l-4.688-5.906a.468.468 0 00-.367-.178h-4.106l3.506-5.498A7.468 7.468 0 0019.5 7.5C19.5 3.365 16.136 0 12 0 7.866 0 4.5 3.365 4.5 7.5c0 1.487.435 2.925 1.257 4.158l3.506 5.498H5.157a.469.469 0 00-.367.178zm-1.75 3.713h2.834l-1.6 2.015H1.44l1.6-2.015zm6.82-2.953l1.286 2.015H7.815l1.6-2.015h.446zm4.28 0h.447l1.6 2.015h-3.332l1.285-2.015zm2.79 2.953l1.6 2.015H5.47l1.6-2.015h9.86zm2.797 2.015l-1.6-2.015h2.835l1.6 2.015h-2.835zm.49-2.953h-2.834l-1.6-2.015h2.835l1.6 2.015zM6.54 11.142A6.534 6.534 0 015.438 7.5 6.57 6.57 0 0112.001.937 6.57 6.57 0 0118.563 7.5a6.535 6.535 0 01-1.102 3.642l-.005.008L12 19.706a707195.802 707195.802 0 00-5.461-8.564zm1.677 6.952l-1.6 2.015H3.784l1.6-2.015h2.834z"/><path d="M12 12.188A4.688 4.688 0 0016.688 7.5 4.693 4.693 0 0012 2.812 4.693 4.693 0 007.312 7.5 4.688 4.688 0 0012 12.188zm0-8.438A3.75 3.75 0 118.25 7.5 3.754 3.754 0 0112 3.75zM13.975 13.787a.469.469 0 00-.644.16L11.6 16.82a.469.469 0 00.803.484l1.732-2.874a.469.469 0 00-.16-.644z"/></g><defs><clipPath id="abclip0"><path fill="#fff" d="M0 0h24v24H0z"/></clipPath></defs></svg><svg width="40" height="40" fill="none" viewBox="0 0 40 40" id="black-arrow" x="2132" y="1206" xmlns="http://www.w3.org/2000/svg"><path d="M12.527 37.612a1.242 1.242 0 01-.9.372 1.273 1.273 0 01-.9-2.17L26.544 20 10.729 4.186a1.273 1.273 0 011.798-1.798L29.24 19.1a1.273 1.273 0 010 1.798L12.527 37.612z" fill="#272626"/></svg><svg width="80" height="80" fill="none" viewBox="0 0 80 80" id="calculator" x="1680" y="1206" xmlns="http://www.w3.org/2000/svg"><path d="M70.218 0H9.782a4.741 4.741 0 00-4.736 4.736v70.528A4.741 4.741 0 009.782 80h60.436a4.741 4.741 0 004.735-4.736V4.736A4.741 4.741 0 0070.217 0zM8.834 4.736c0-.522.425-.947.947-.947h60.436c.522 0 .947.424.947.947v16.422H8.835V4.736zm18.25 71.475H9.783a.948.948 0 01-.947-.947V52.468h18.25v23.743zm0-27.532H8.836V24.946h18.25V48.68zm22.04 27.532h-18.25V52.468h18.25v23.743zm0-27.532h-18.25V24.946h18.25V48.68zm22.04 26.585a.949.949 0 01-.948.947H52.915V24.946h18.25v50.318z" fill="#272626"/><path d="M22.644 34.919h-2.789v-2.79a1.894 1.894 0 00-3.789 0v2.79h-2.789a1.894 1.894 0 000 3.789h2.79v2.789a1.894 1.894 0 103.788 0v-2.79h2.79a1.894 1.894 0 000-3.788zM44.777 34.919h-9.554a1.894 1.894 0 100 3.789h9.554a1.895 1.895 0 000-3.79zM20.64 64.345l2.286-2.287a1.895 1.895 0 00-2.68-2.68l-2.286 2.288-2.287-2.287a1.895 1.895 0 00-2.679 2.679l2.287 2.287-2.287 2.286a1.894 1.894 0 002.68 2.68l2.286-2.287 2.287 2.286c.37.37.855.555 1.34.555a1.894 1.894 0 001.34-3.234l-2.288-2.286zM44.965 59.379c-.74-.74-1.94-.74-2.68 0l-7.252 7.252a1.895 1.895 0 002.68 2.68l7.252-7.253c.74-.74.74-1.94 0-2.68zM36.373 62.335a1.616 1.616 0 100-3.232 1.616 1.616 0 000 3.232zM43.626 69.586a1.616 1.616 0 100-3.231 1.616 1.616 0 000 3.231zM66.825 45.379h-9.683a1.894 1.894 0 000 3.788h9.683a1.895 1.895 0 000-3.788zM66.825 51.99h-9.683a1.895 1.895 0 000 3.79h9.683a1.895 1.895 0 000-3.79z" fill="#272626"/></svg><svg width="64" height="64" fill="none" viewBox="0 0 64 64" id="calculator-gray" x="2068" y="1206" xmlns="http://www.w3.org/2000/svg"><path d="M56.174 0H7.826c-2.09 0-3.789 1.7-3.789 3.789V60.21c0 2.09 1.7 3.789 3.789 3.789h48.348c2.09 0 3.789-1.7 3.789-3.789V3.79c0-2.09-1.7-3.789-3.789-3.789zM7.068 3.789c0-.418.34-.758.758-.758h48.348c.418 0 .758.34.758.758v13.137H7.068V3.79zm14.6 57.18H7.827a.759.759 0 01-.758-.758V41.975h14.6v18.994zm0-22.025h-14.6V19.957h14.6v18.987zM39.3 60.969H24.7V41.974h14.6V60.97zm0-22.025H24.7V19.957h14.6v18.987zM56.932 60.21c0 .418-.34.758-.758.758H42.331V19.957h14.6v40.254z" fill="#767676"/><path d="M18.114 27.935h-2.23v-2.231a1.515 1.515 0 10-3.032 0v2.231h-2.231a1.516 1.516 0 000 3.031h2.231v2.231a1.515 1.515 0 103.031 0v-2.231h2.232a1.516 1.516 0 000-3.031zM35.821 27.935h-7.643a1.516 1.516 0 000 3.031h7.643a1.516 1.516 0 000-3.03zM16.511 51.476l1.83-1.83a1.516 1.516 0 00-2.144-2.143l-1.83 1.83-1.829-1.83a1.516 1.516 0 00-2.143 2.143l1.83 1.83-1.83 1.83a1.516 1.516 0 002.143 2.142l1.83-1.83 1.83 1.83a1.51 1.51 0 002.143 0 1.516 1.516 0 000-2.143l-1.83-1.83zM35.971 47.503a1.516 1.516 0 00-2.143 0l-5.802 5.802a1.516 1.516 0 002.143 2.144l5.802-5.802a1.516 1.516 0 000-2.144zM29.097 49.868a1.293 1.293 0 100-2.586 1.293 1.293 0 000 2.586zM34.902 55.669a1.293 1.293 0 100-2.585 1.293 1.293 0 000 2.585zM53.461 36.303h-7.746a1.516 1.516 0 000 3.03h7.746a1.516 1.516 0 000-3.03zM53.461 41.592h-7.746a1.516 1.516 0 000 3.031h7.746a1.516 1.516 0 000-3.03z" fill="#767676"/></svg><svg width="26" height="14" fill="none" viewBox="0 0 26 14" id="down-arrow" x="2218" y="1206" xmlns="http://www.w3.org/2000/svg"><path d="M.269 1.578A.906.906 0 010 .924C0 .676.09.451.269.271a.916.916 0 011.3 0L13 11.768 24.431.271a.916.916 0 011.3 0 .929.929 0 010 1.307L13.65 13.73a.916.916 0 01-1.3 0L.269 1.58z" fill="#272626"/></svg><svg width="26" height="14" fill="none" viewBox="0 0 26 14" id="down-arrow-hover" x="2192" y="1206" xmlns="http://www.w3.org/2000/svg"><path d="M.269 1.578A.906.906 0 010 .924C0 .676.09.451.269.271a.916.916 0 011.3 0L13 11.768 24.431.271a.916.916 0 011.3 0 .929.929 0 010 1.307L13.65 13.73a.916.916 0 01-1.3 0L.269 1.58z" fill="#D12229"/></svg><svg width="76" height="76" fill="none" viewBox="0 0 76 76" id="employee" x="1918" y="1206" xmlns="http://www.w3.org/2000/svg"><path d="M62.5 61.578c-.615 0-1.113.499-1.113 1.113V73.16a.615.615 0 01-.615.614h-5.984V51.85a1.113 1.113 0 10-2.227 0v21.924h-12.05l3.494-3.844a1.996 1.996 0 00.476-1.635L41.153 48.63l.897-1.35c.495.352.877.69 1.594.69a1.95 1.95 0 001.744-1.078l3.51-7.036 7.998 3.097c.29.124 4.49 2.016 4.49 7.012v7.53a1.113 1.113 0 102.227 0v-7.53c0-6.583-5.636-8.975-5.876-9.074a.493.493 0 00-.02-.008l-13.311-5.155v-3.122a10.431 10.431 0 003.948-6.861 4.819 4.819 0 002.83-1.155 4.718 4.718 0 001.642-3.581 4.718 4.718 0 00-1.148-3.088v-4.124C51.678 6.19 45.488 0 37.88 0S24.083 6.19 24.083 13.798v4.232c-.744.842-1.148 1.88-1.148 2.98 0 1.379.598 2.684 1.641 3.581a4.816 4.816 0 002.83 1.154 10.321 10.321 0 004.173 7.027v2.957l-13.296 5.154a1.14 1.14 0 00-.02.009c-.24.099-5.876 2.491-5.876 9.073v23.193A2.845 2.845 0 0015.228 76h10.607a1.113 1.113 0 000-2.227H23.44V51.849a1.113 1.113 0 00-2.227 0v21.924h-5.985a.615.615 0 01-.614-.614V49.966c0-5.013 4.229-6.9 4.489-7.012l7.99-3.098 3.512 7.037a1.95 1.95 0 001.745 1.079c.712 0 1.09-.334 1.593-.691l.897 1.35-3.328 19.663-.005.033c-.08.583.1 1.181.481 1.602l3.495 3.844h-4.452a1.113 1.113 0 000 2.227h29.741a2.845 2.845 0 002.842-2.841V62.692c0-.615-.499-1.114-1.114-1.114zM46.813 39.05l-3.272 6.56-3.936-2.796 4.042-4.99 3.166 1.226zm-6.58 6.942l-.849 1.277h-2.776l-.849-1.277 2.237-1.589 2.237 1.589zm-6.427-9.903v-2.083c1.352.545 2.798.798 4.21.798 1.459 0 2.89-.311 4.163-.868v2.162l-4.183 5.164-4.19-5.173zM50.6 21.01c0 .729-.317 1.42-.867 1.893a2.592 2.592 0 01-1.286.591v-4.969c1.28.208 2.153 1.27 2.153 2.485zm-23.286 2.484c-1.294-.21-2.153-1.28-2.153-2.485 0-1.19.987-2.158 2.153-2.428v4.913zm.06-7.181c-.355.04-.762.136-1.065.24v-2.755c0-6.38 5.191-11.571 11.571-11.571s11.571 5.19 11.571 11.57v2.679a4.945 4.945 0 00-1.004-.194c0-1.074.01-.867-3.505-4.645a1.98 1.98 0 00-2.529-.309c-3.878 2.534-8.61 3.807-12.975 3.494a1.98 1.98 0 00-2.065 1.49zm2.166 8.058V17.06c4.806.282 9.844-1.146 13.915-3.753 1.611 1.731 2.484 2.639 2.766 2.984v8.08c0 4.52-3.685 8.206-8.205 8.206-5.076 0-8.476-3.937-8.476-8.205zm2.912 21.238l-3.273-6.56 3.16-1.224 4.044 4.991-3.931 2.793zm1.277 22.925l3.223-19.04h2.088l3.223 19.04-4.267 4.694-4.267-4.694z" fill="#272626"/></svg><svg width="22" height="22" fill="none" viewBox="0 0 22 22" id="facebook" x="2214" y="1220" xmlns="http://www.w3.org/2000/svg"><g clip-path="url(#aiclip0)"><path d="M12.485 21.957h-3.53a1.07 1.07 0 01-1.069-1.067v-7.947h-2.06a1.07 1.07 0 01-1.069-1.067V8.471c0-.588.48-1.067 1.07-1.067h2.059V5.699c0-1.691.532-3.13 1.538-4.16C10.434.504 11.847-.043 13.51-.043l2.692.004a1.07 1.07 0 011.067 1.068V4.19A1.07 1.07 0 0116.2 5.257l-1.813.001c-.553 0-.694.11-.724.144-.05.057-.108.216-.108.655v1.347h2.508a1.07 1.07 0 011.08 1.068l-.002 3.404a1.07 1.07 0 01-1.069 1.067h-2.517v7.947a1.07 1.07 0 01-1.07 1.067zm-3.307-1.29h3.084v-8.301c0-.393.32-.713.714-.713h2.873l.001-2.96h-2.874a.714.714 0 01-.714-.712V6.057c0-.504.052-1.077.433-1.508.46-.52 1.186-.58 1.692-.58l1.59-.001V1.25l-2.469-.004c-2.67 0-4.33 1.706-4.33 4.452V7.98c0 .393-.32.713-.713.713H6.05v2.96h2.415c.393 0 .713.319.713.712v8.301zm7.02-19.416z" fill="#A9A8A8"/></g><defs><clipPath id="aiclip0"><path fill="#fff" d="M0 0h22v22H0z"/></clipPath></defs></svg><svg width="22" height="22" fill="none" viewBox="0 0 22 22" id="facebook-hover" x="2236" y="1220" xmlns="http://www.w3.org/2000/svg"><g clip-path="url(#ajclip0)"><path d="M12.485 21.957h-3.53a1.07 1.07 0 01-1.069-1.067v-7.947h-2.06a1.07 1.07 0 01-1.069-1.067V8.471c0-.588.48-1.067 1.07-1.067h2.059V5.699c0-1.691.532-3.13 1.538-4.16C10.434.504 11.847-.043 13.51-.043l2.692.004a1.07 1.07 0 011.067 1.068V4.19A1.07 1.07 0 0116.2 5.257l-1.813.001c-.553 0-.694.11-.724.144-.05.057-.108.216-.108.655v1.347h2.508a1.07 1.07 0 011.08 1.068l-.002 3.404a1.07 1.07 0 01-1.069 1.067h-2.517v7.947a1.07 1.07 0 01-1.07 1.067zm-3.307-1.29h3.084v-8.301c0-.393.32-.713.714-.713h2.873l.001-2.96h-2.874a.714.714 0 01-.714-.712V6.057c0-.504.052-1.077.433-1.508.46-.52 1.186-.58 1.692-.58l1.59-.001V1.25l-2.469-.004c-2.67 0-4.33 1.706-4.33 4.452V7.98c0 .393-.32.713-.713.713H6.05v2.96h2.415c.393 0 .713.319.713.712v8.301zm7.02-19.416z" fill="#d12229"/></g><defs><clipPath id="ajclip0"><path fill="#fff" d="M0 0h22v22H0z"/></clipPath></defs></svg><svg width="22" height="22" fill="none" viewBox="0 0 22 22" id="footer-facebook" x="2258" y="1220" xmlns="http://www.w3.org/2000/svg"><g clip-path="url(#akclip0)"><path d="M12.485 21.957h-3.53a1.07 1.07 0 01-1.069-1.067v-7.947h-2.06a1.07 1.07 0 01-1.069-1.067V8.471c0-.588.48-1.067 1.07-1.067h2.059V5.699c0-1.691.532-3.13 1.538-4.16C10.434.504 11.847-.043 13.51-.043l2.692.004a1.07 1.07 0 011.067 1.068V4.19A1.07 1.07 0 0116.2 5.257l-1.813.001c-.553 0-.694.11-.724.144-.05.057-.108.216-.108.655v1.347h2.508a1.07 1.07 0 011.08 1.068l-.002 3.404a1.07 1.07 0 01-1.069 1.067h-2.517v7.947a1.07 1.07 0 01-1.07 1.067zm-3.307-1.29h3.084v-8.301c0-.393.32-.713.714-.713h2.873l.001-2.96h-2.874a.714.714 0 01-.714-.712V6.057c0-.504.052-1.077.433-1.508.46-.52 1.186-.58 1.692-.58l1.59-.001V1.25l-2.469-.004c-2.67 0-4.33 1.706-4.33 4.452V7.98c0 .393-.32.713-.713.713H6.05v2.96h2.415c.393 0 .713.319.713.712v8.301zm7.02-19.416z" fill="#A9A8A8"/></g><defs><clipPath id="akclip0"><path fill="#fff" d="M0 0h22v22H0z"/></clipPath></defs></svg><svg width="22" height="22" fill="none" viewBox="0 0 22 22" id="footer-facebook-hover" x="2280" y="1220" xmlns="http://www.w3.org/2000/svg"><g clip-path="url(#alclip0)"><path d="M12.485 21.957h-3.53a1.07 1.07 0 01-1.069-1.067v-7.947h-2.06a1.07 1.07 0 01-1.069-1.067V8.471c0-.588.48-1.067 1.07-1.067h2.059V5.699c0-1.691.532-3.13 1.538-4.16C10.434.504 11.847-.043 13.51-.043l2.692.004a1.07 1.07 0 011.067 1.068V4.19A1.07 1.07 0 0116.2 5.257l-1.813.001c-.553 0-.694.11-.724.144-.05.057-.108.216-.108.655v1.347h2.508a1.07 1.07 0 011.08 1.068l-.002 3.404a1.07 1.07 0 01-1.069 1.067h-2.517v7.947a1.07 1.07 0 01-1.07 1.067zm-3.307-1.29h3.084v-8.301c0-.393.32-.713.714-.713h2.873l.001-2.96h-2.874a.714.714 0 01-.714-.712V6.057c0-.504.052-1.077.433-1.508.46-.52 1.186-.58 1.692-.58l1.59-.001V1.25l-2.469-.004c-2.67 0-4.33 1.706-4.33 4.452V7.98c0 .393-.32.713-.713.713H6.05v2.96h2.415c.393 0 .713.319.713.712v8.301zm7.02-19.416z" fill="#d12229"/></g><defs><clipPath id="alclip0"><path fill="#fff" d="M0 0h22v22H0z"/></clipPath></defs></svg><svg width="22" height="22" fill="none" viewBox="0 0 22 22" id="footer-instagram" x="2302" y="1220" xmlns="http://www.w3.org/2000/svg"><g clip-path="url(#amclip0)" fill="#A9A8A8"><path d="M21.978 6.468c-.051-1.169-.24-1.973-.511-2.669a5.369 5.369 0 00-1.272-1.951A5.415 5.415 0 0018.248.58c-.7-.27-1.5-.46-2.669-.511C14.401.013 14.028 0 11.041 0S7.68.013 6.507.064c-1.17.052-1.973.241-2.67.512-.738.28-1.4.709-1.95 1.272A5.416 5.416 0 00.619 3.795c-.271.7-.46 1.5-.512 2.669C.052 7.64.04 8.015.04 11.002s.013 3.36.064 4.534c.052 1.17.24 1.973.512 2.67.279.738.713 1.4 1.272 1.95.55.559 1.216.993 1.946 1.268.701.27 1.5.46 2.67.512 1.173.051 1.547.064 4.534.064 2.986 0 3.36-.013 4.534-.064 1.169-.052 1.972-.241 2.668-.512a5.627 5.627 0 003.22-3.219c.27-.7.46-1.5.51-2.669.052-1.173.065-1.547.065-4.534s-.004-3.36-.056-4.534zm-1.98 8.982c-.048 1.075-.229 1.655-.379 2.042a3.65 3.65 0 01-2.089 2.088c-.387.15-.97.331-2.041.379-1.16.051-1.509.064-4.444.064s-3.288-.013-4.444-.064c-1.074-.048-1.654-.228-2.041-.378a3.386 3.386 0 01-1.264-.822 3.42 3.42 0 01-.82-1.263c-.151-.387-.332-.971-.379-2.041-.051-1.16-.064-1.509-.064-4.444 0-2.936.013-3.288.064-4.444.047-1.074.228-1.655.378-2.041.177-.478.456-.912.826-1.264a3.415 3.415 0 011.263-.82c.387-.151.971-.332 2.042-.38 1.16-.05 1.508-.064 4.443-.064 2.94 0 3.288.013 4.444.065 1.075.047 1.655.228 2.042.378.477.176.91.456 1.263.82.365.358.645.787.821 1.265.15.386.33.97.378 2.04.052 1.161.065 1.51.065 4.445 0 2.935-.013 3.279-.065 4.44z"/><path d="M11.04 5.35a5.653 5.653 0 00-5.65 5.652 5.653 5.653 0 005.65 5.652 5.653 5.653 0 005.652-5.652 5.653 5.653 0 00-5.651-5.651zm0 9.318a3.667 3.667 0 11.002-7.333 3.667 3.667 0 01-.001 7.333zM18.235 5.127a1.32 1.32 0 11-2.639 0 1.32 1.32 0 012.64 0z"/></g><defs><clipPath id="amclip0"><path fill="#fff" d="M0 0h22v22H0z"/></clipPath></defs></svg><svg width="22" height="22" fill="none" viewBox="0 0 22 22" id="footer-instagram-hover" x="1748" y="1286" xmlns="http://www.w3.org/2000/svg"><g clip-path="url(#anclip0)" fill="#d12229"><path d="M21.978 6.468c-.051-1.169-.24-1.973-.511-2.669a5.369 5.369 0 00-1.272-1.951A5.415 5.415 0 0018.248.58c-.7-.27-1.5-.46-2.669-.511C14.401.013 14.028 0 11.041 0S7.68.013 6.507.064c-1.17.052-1.973.241-2.67.512-.738.28-1.4.709-1.95 1.272A5.416 5.416 0 00.619 3.795c-.271.7-.46 1.5-.512 2.669C.052 7.64.04 8.015.04 11.002s.013 3.36.064 4.534c.052 1.17.24 1.973.512 2.67.279.738.713 1.4 1.272 1.95.55.559 1.216.993 1.946 1.268.701.27 1.5.46 2.67.512 1.173.051 1.547.064 4.534.064 2.986 0 3.36-.013 4.534-.064 1.169-.052 1.972-.241 2.668-.512a5.627 5.627 0 003.22-3.219c.27-.7.46-1.5.51-2.669.052-1.173.065-1.547.065-4.534s-.004-3.36-.056-4.534zm-1.98 8.982c-.048 1.075-.229 1.655-.379 2.042a3.65 3.65 0 01-2.089 2.088c-.387.15-.97.331-2.041.379-1.16.051-1.509.064-4.444.064s-3.288-.013-4.444-.064c-1.074-.048-1.654-.228-2.041-.378a3.386 3.386 0 01-1.264-.822 3.42 3.42 0 01-.82-1.263c-.151-.387-.332-.971-.379-2.041-.051-1.16-.064-1.509-.064-4.444 0-2.936.013-3.288.064-4.444.047-1.074.228-1.655.378-2.041.177-.478.456-.912.826-1.264a3.415 3.415 0 011.263-.82c.387-.151.971-.332 2.042-.38 1.16-.05 1.508-.064 4.443-.064 2.94 0 3.288.013 4.444.065 1.075.047 1.655.228 2.042.378.477.176.91.456 1.263.82.365.358.645.787.821 1.265.15.386.33.97.378 2.04.052 1.161.065 1.51.065 4.445 0 2.935-.013 3.279-.065 4.44z"/><path d="M11.04 5.35a5.653 5.653 0 00-5.65 5.652 5.653 5.653 0 005.65 5.652 5.653 5.653 0 005.652-5.652 5.653 5.653 0 00-5.651-5.651zm0 9.318a3.667 3.667 0 11.002-7.333 3.667 3.667 0 01-.001 7.333zM18.235 5.127a1.32 1.32 0 11-2.639 0 1.32 1.32 0 012.64 0z"/></g><defs><clipPath id="anclip0"><path fill="#fff" d="M0 0h22v22H0z"/></clipPath></defs></svg><svg width="24" height="24" fill="none" viewBox="0 0 24 24" id="footer-pinterest" x="2156" y="1246" xmlns="http://www.w3.org/2000/svg"><path d="M7.1 24a.686.686 0 01-.687-.593l-.009-.057c-.165-1.132-.378-3.305.059-5.148l1.655-7.016a5.864 5.864 0 01-.394-2.135c0-2.207 1.345-3.935 3.063-3.935 1.375 0 2.299 1.005 2.299 2.5 0 .849-.322 1.894-.664 3.002-.184.595-.374 1.21-.513 1.799-.115.483-.022.945.26 1.301.3.38.78.597 1.314.597 2.052 0 3.66-2.85 3.66-6.49 0-2.796-1.902-4.533-4.966-4.533-3.878 0-5.972 2.986-5.972 5.796 0 .934.237 1.649.747 2.248.312.371.442.659.296 1.207-.036.133-.095.367-.151.59l-.119.466a.987.987 0 01-1.36.68c-1.894-.772-3.025-2.836-3.025-5.52C2.593 4.454 6.313 0 12.538 0c5.552 0 8.87 4.106 8.87 8.076 0 5.538-3.212 9.558-7.637 9.558-1.105 0-2.21-.411-2.966-1.052-.239.944-.577 2.276-.68 2.65-.515 1.87-1.88 3.743-2.443 4.461-.162.209-.364.307-.583.307zm3.687-17.842c-1.133 0-2.02 1.27-2.02 2.893 0 1.093.36 1.849.365 1.856l.081.168-.041.182-1.695 7.185c-.251 1.062-.299 2.45-.14 3.97.616-.867 1.431-2.176 1.784-3.456.157-.574.916-3.583.923-3.614l.334-1.32.633 1.205c.353.67 1.481 1.365 2.76 1.365 3.883 0 6.595-3.502 6.595-8.517 0-3.457-2.928-7.033-7.828-7.033-6.14 0-8.903 4.512-8.903 7.717 0 2.26.853 3.913 2.341 4.54l.11-.42c.058-.229.119-.47.155-.606a.707.707 0 00.027-.129c-.004.007-.022-.03-.112-.136-.667-.786-.992-1.742-.992-2.92 0-3.899 3.015-6.838 7.014-6.838 3.65 0 6.008 2.188 6.008 5.574 0 4.295-2.021 7.533-4.703 7.533-.854 0-1.631-.361-2.13-.992-.485-.612-.647-1.39-.458-2.189.147-.623.343-1.255.532-1.866.318-1.03.618-2.003.618-2.694 0-.438-.123-1.458-1.258-1.458z" fill="#A9A8A8"/></svg><svg width="24" height="24" fill="none" viewBox="0 0 24 24" id="footer-pinterest-hover" x="2180" y="1246" xmlns="http://www.w3.org/2000/svg"><path d="M7.1 24a.686.686 0 01-.687-.593l-.009-.057c-.165-1.132-.378-3.305.059-5.148l1.655-7.016a5.864 5.864 0 01-.394-2.135c0-2.207 1.345-3.935 3.063-3.935 1.375 0 2.299 1.005 2.299 2.5 0 .849-.322 1.894-.664 3.002-.184.595-.374 1.21-.513 1.799-.115.483-.022.945.26 1.301.3.38.78.597 1.314.597 2.052 0 3.66-2.85 3.66-6.49 0-2.796-1.902-4.533-4.966-4.533-3.878 0-5.972 2.986-5.972 5.796 0 .934.237 1.649.747 2.248.312.371.442.659.296 1.207-.036.133-.095.367-.151.59l-.119.466a.987.987 0 01-1.36.68c-1.894-.772-3.025-2.836-3.025-5.52C2.593 4.454 6.313 0 12.538 0c5.552 0 8.87 4.106 8.87 8.076 0 5.538-3.212 9.558-7.637 9.558-1.105 0-2.21-.411-2.966-1.052-.239.944-.577 2.276-.68 2.65-.515 1.87-1.88 3.743-2.443 4.461-.162.209-.364.307-.583.307zm3.687-17.842c-1.133 0-2.02 1.27-2.02 2.893 0 1.093.36 1.849.365 1.856l.081.168-.041.182-1.695 7.185c-.251 1.062-.299 2.45-.14 3.97.616-.867 1.431-2.176 1.784-3.456.157-.574.916-3.583.923-3.614l.334-1.32.633 1.205c.353.67 1.481 1.365 2.76 1.365 3.883 0 6.595-3.502 6.595-8.517 0-3.457-2.928-7.033-7.828-7.033-6.14 0-8.903 4.512-8.903 7.717 0 2.26.853 3.913 2.341 4.54l.11-.42c.058-.229.119-.47.155-.606a.707.707 0 00.027-.129c-.004.007-.022-.03-.112-.136-.667-.786-.992-1.742-.992-2.92 0-3.899 3.015-6.838 7.014-6.838 3.65 0 6.008 2.188 6.008 5.574 0 4.295-2.021 7.533-4.703 7.533-.854 0-1.631-.361-2.13-.992-.485-.612-.647-1.39-.458-2.189.147-.623.343-1.255.532-1.866.318-1.03.618-2.003.618-2.694 0-.438-.123-1.458-1.258-1.458z" fill="#d12229"/></svg><svg width="20" height="36" fill="none" viewBox="0 0 20 36" id="grey-arrow" x="2172" y="1206" xmlns="http://www.w3.org/2000/svg"><path d="M17.473 35.612c.248.248.558.372.9.372a1.273 1.273 0 00.9-2.17L3.457 18 19.27 2.186A1.273 1.273 0 0017.474.388L.76 17.1a1.273 1.273 0 000 1.798l16.713 16.713z" fill="#C4C4C4"/></svg><svg width="23" height="23" fill="none" viewBox="0 0 23 23" id="home-breadcrumbs" x="1703" y="1286" xmlns="http://www.w3.org/2000/svg"><path d="M19.209 11.284a.653.653 0 00-.663.663v9.062h-4.7v-3.7c0-.348-.29-.651-.64-.651H9.809a.67.67 0 00-.675.65v3.7H4.444v-8.76a.65.65 0 00-.663-.64c-.35 0-.638.29-.638.64v9.424c0 .35.289.64.638.64h6.027c.35 0 .639-.29.639-.64v-3.7h2.097v3.7c0 .35.289.64.663.64h6.002c.35 0 .639-.29.639-.64v-9.725a.648.648 0 00-.639-.663z" fill="#A9A8A8"/><path d="M22.812 11.8l-5.23-5.252V2.966a.662.662 0 00-.675-.66.647.647 0 00-.64.66v2.268L11.954.894a.634.634 0 00-.446-.206.655.655 0 00-.47.205L.2 11.73c-.26.26-.277.676 0 .915.241.278.656.26.916 0L11.507 2.28l10.365 10.463c.108.108.265.17.47.17.181 0 .338-.062.47-.17a.684.684 0 000-.941z" fill="#A9A8A8"/></svg><svg width="23" height="23" viewBox="0 0 23 23" id="home-breadcrumbs-hover" x="1680" y="1286" xmlns="http://www.w3.org/2000/svg"><path fill="none" d="M-1-1h25v25H-1z"/><g><path fill="#d12229" d="M19.209 11.284a.653.653 0 00-.663.663v9.061h-4.7v-3.7c0-.347-.29-.65-.64-.65H9.809a.67.67 0 00-.675.65v3.7H4.444v-8.76a.65.65 0 00-.663-.64c-.35 0-.638.29-.638.64v9.424c0 .35.289.64.638.64h6.027c.35 0 .638-.29.638-.64v-3.7h2.098v3.7c0 .35.289.64.663.64h6.002c.35 0 .639-.29.639-.64v-9.725a.648.648 0 00-.639-.663z"/><path fill="#d12229" d="M22.812 11.8l-5.23-5.252V2.966a.662.662 0 00-.675-.66.647.647 0 00-.64.66v2.268L11.954.894a.634.634 0 00-.446-.206.655.655 0 00-.47.205L.2 11.73c-.26.26-.277.676 0 .915.241.278.656.26.916 0L11.507 2.28l10.365 10.463c.108.108.265.17.47.17.181 0 .338-.062.47-.17a.684.684 0 000-.941z"/></g></svg><svg width="14" height="14" fill="none" viewBox="0 0 14 14" id="icon-del" x="1851" y="1286" xmlns="http://www.w3.org/2000/svg"><g clip-path="url(#atclip0)" fill-rule="evenodd" clip-rule="evenodd" fill="#000"><path d="M10.5 3.5a.707.707 0 010 1l-6 6a.707.707 0 01-1-1l6-6a.707.707 0 011 0z"/><path d="M10.5 10.5a.707.707 0 01-1 0l-6-6a.707.707 0 011-1l6 6a.707.707 0 010 1z"/></g><defs><clipPath id="atclip0"><path fill="#fff" transform="rotate(45 3.5 8.45)" d="M0 0h9.899v9.899H0z"/></clipPath></defs></svg><svg width="14" height="14" fill="none" viewBox="0 0 14 14" id="icon-del-hover" x="1837" y="1286" xmlns="http://www.w3.org/2000/svg"><g clip-path="url(#auclip0)" fill-rule="evenodd" clip-rule="evenodd" fill="#d12229"><path d="M10.5 3.5a.707.707 0 010 1l-6 6a.707.707 0 01-1-1l6-6a.707.707 0 011 0z"/><path d="M10.5 10.5a.707.707 0 01-1 0l-6-6a.707.707 0 011-1l6 6a.707.707 0 010 1z"/></g><defs><clipPath id="auclip0"><path fill="#fff" transform="rotate(45 3.5 8.45)" d="M0 0h9.899v9.899H0z"/></clipPath></defs></svg><svg width="16" height="16" fill="none" viewBox="0 0 16 16" id="icon-duplicate" x="1790" y="1286" xmlns="http://www.w3.org/2000/svg"><g clip-path="url(#avclip0)"><path d="M15.838 8.38l-4.562-2.737.57-.362a.334.334 0 000-.562L8.178 2.385a.334.334 0 00-.358 0L4.154 4.72a.334.334 0 000 .562l.57.363L.161 8.381a.333.333 0 00-.002.57l7.667 4.667a.332.332 0 00.346 0l7.667-4.667a.335.335 0 00-.002-.57zM8 3.063L11.046 5 8 6.938 4.954 5 8 3.062zM5.352 6.044l2.469 1.57a.336.336 0 00.358 0l2.468-1.57.44.263L8 8.272 4.913 6.307l.439-.263zM.978 8.667l3.296-1.976 3.105 1.976-3.13 1.992L.978 8.667zM8 12.943l-3.117-1.898L8 9.062l3.117 1.983L8 12.943zm3.751-2.284l-3.13-1.992 3.105-1.976 3.296 1.977-3.27 1.991z" fill="#000"/></g><defs><clipPath id="avclip0"><path fill="#fff" d="M0 0h16v16H0z"/></clipPath></defs></svg><svg width="16" height="16" fill="none" viewBox="0 0 16 16" id="icon-duplicate-hover" x="1806" y="1286" xmlns="http://www.w3.org/2000/svg"><g clip-path="url(#awclip0)"><path d="M15.838 8.38l-4.562-2.737.57-.362a.334.334 0 000-.562L8.178 2.385a.334.334 0 00-.358 0L4.154 4.72a.334.334 0 000 .562l.57.363L.161 8.381a.333.333 0 00-.002.57l7.667 4.667a.332.332 0 00.346 0l7.667-4.667a.335.335 0 00-.002-.57zM8 3.063L11.046 5 8 6.938 4.954 5 8 3.062zM5.352 6.044l2.469 1.57a.336.336 0 00.358 0l2.468-1.57.44.263L8 8.272 4.913 6.307l.439-.263zM.978 8.667l3.296-1.976 3.105 1.976-3.13 1.992L.978 8.667zM8 12.943l-3.117-1.898L8 9.062l3.117 1.983L8 12.943zm3.751-2.284l-3.13-1.992 3.105-1.976 3.296 1.977-3.27 1.991z" fill="#d12229"/></g><defs><clipPath id="awclip0"><path fill="#fff" d="M0 0h16v16H0z"/></clipPath></defs></svg><svg width="22" height="22" fill="none" viewBox="0 0 22 22" id="instagram" x="1726" y="1286" xmlns="http://www.w3.org/2000/svg"><g clip-path="url(#axclip0)" fill="#A9A8A8"><path d="M21.978 6.468c-.051-1.169-.24-1.973-.511-2.669a5.369 5.369 0 00-1.272-1.951A5.415 5.415 0 0018.248.58c-.7-.27-1.5-.46-2.669-.511C14.401.013 14.028 0 11.041 0S7.68.013 6.507.064c-1.17.052-1.973.241-2.67.512-.738.28-1.4.709-1.95 1.272A5.416 5.416 0 00.619 3.795c-.271.7-.46 1.5-.512 2.669C.052 7.64.04 8.015.04 11.002s.013 3.36.064 4.534c.052 1.17.24 1.973.512 2.67.279.738.713 1.4 1.272 1.95.55.559 1.216.993 1.946 1.268.701.27 1.5.46 2.67.512 1.173.051 1.547.064 4.534.064 2.986 0 3.36-.013 4.534-.064 1.169-.052 1.972-.241 2.668-.512a5.627 5.627 0 003.22-3.219c.27-.7.46-1.5.51-2.669.052-1.173.065-1.547.065-4.534s-.004-3.36-.056-4.534zm-1.98 8.982c-.048 1.075-.229 1.655-.379 2.042a3.65 3.65 0 01-2.089 2.088c-.387.15-.97.331-2.041.379-1.16.051-1.509.064-4.444.064s-3.288-.013-4.444-.064c-1.074-.048-1.654-.228-2.041-.378a3.386 3.386 0 01-1.264-.822 3.42 3.42 0 01-.82-1.263c-.151-.387-.332-.971-.379-2.041-.051-1.16-.064-1.509-.064-4.444 0-2.936.013-3.288.064-4.444.047-1.074.228-1.655.378-2.041.177-.478.456-.912.826-1.264a3.415 3.415 0 011.263-.82c.387-.151.971-.332 2.042-.38 1.16-.05 1.508-.064 4.443-.064 2.94 0 3.288.013 4.444.065 1.075.047 1.655.228 2.042.378.477.176.91.456 1.263.82.365.358.645.787.821 1.265.15.386.33.97.378 2.04.052 1.161.065 1.51.065 4.445 0 2.935-.013 3.279-.065 4.44z"/><path d="M11.04 5.35a5.653 5.653 0 00-5.65 5.652 5.653 5.653 0 005.65 5.652 5.653 5.653 0 005.652-5.652 5.653 5.653 0 00-5.651-5.651zm0 9.318a3.667 3.667 0 11.002-7.333 3.667 3.667 0 01-.001 7.333zM18.235 5.127a1.32 1.32 0 11-2.639 0 1.32 1.32 0 012.64 0z"/></g><defs><clipPath id="axclip0"><path fill="#fff" d="M0 0h22v22H0z"/></clipPath></defs></svg><svg width="22" height="22" fill="none" viewBox="0 0 22 22" id="instagram-hover" x="2192" y="1220" xmlns="http://www.w3.org/2000/svg"><g clip-path="url(#ayclip0)" fill="#d12229"><path d="M21.978 6.468c-.051-1.169-.24-1.973-.511-2.669a5.369 5.369 0 00-1.272-1.951A5.415 5.415 0 0018.248.58c-.7-.27-1.5-.46-2.669-.511C14.401.013 14.028 0 11.041 0S7.68.013 6.507.064c-1.17.052-1.973.241-2.67.512-.738.28-1.4.709-1.95 1.272A5.416 5.416 0 00.619 3.795c-.271.7-.46 1.5-.512 2.669C.052 7.64.04 8.015.04 11.002s.013 3.36.064 4.534c.052 1.17.24 1.973.512 2.67.279.738.713 1.4 1.272 1.95.55.559 1.216.993 1.946 1.268.701.27 1.5.46 2.67.512 1.173.051 1.547.064 4.534.064 2.986 0 3.36-.013 4.534-.064 1.169-.052 1.972-.241 2.668-.512a5.627 5.627 0 003.22-3.219c.27-.7.46-1.5.51-2.669.052-1.173.065-1.547.065-4.534s-.004-3.36-.056-4.534zm-1.98 8.982c-.048 1.075-.229 1.655-.379 2.042a3.65 3.65 0 01-2.089 2.088c-.387.15-.97.331-2.041.379-1.16.051-1.509.064-4.444.064s-3.288-.013-4.444-.064c-1.074-.048-1.654-.228-2.041-.378a3.386 3.386 0 01-1.264-.822 3.42 3.42 0 01-.82-1.263c-.151-.387-.332-.971-.379-2.041-.051-1.16-.064-1.509-.064-4.444 0-2.936.013-3.288.064-4.444.047-1.074.228-1.655.378-2.041.177-.478.456-.912.826-1.264a3.415 3.415 0 011.263-.82c.387-.151.971-.332 2.042-.38 1.16-.05 1.508-.064 4.443-.064 2.94 0 3.288.013 4.444.065 1.075.047 1.655.228 2.042.378.477.176.91.456 1.263.82.365.358.645.787.821 1.265.15.386.33.97.378 2.04.052 1.161.065 1.51.065 4.445 0 2.935-.013 3.279-.065 4.44z"/><path d="M11.04 5.35a5.653 5.653 0 00-5.65 5.652 5.653 5.653 0 005.65 5.652 5.653 5.653 0 005.652-5.652 5.653 5.653 0 00-5.651-5.651zm0 9.318a3.667 3.667 0 11.002-7.333 3.667 3.667 0 01-.001 7.333zM18.235 5.127a1.32 1.32 0 11-2.639 0 1.32 1.32 0 012.64 0z"/></g><defs><clipPath id="ayclip0"><path fill="#fff" d="M0 0h22v22H0z"/></clipPath></defs></svg><svg width="24" height="24" fill="none" viewBox="0 0 24 24" id="pinterest" x="2204" y="1246" xmlns="http://www.w3.org/2000/svg"><path d="M7.1 24a.686.686 0 01-.687-.593l-.009-.057c-.165-1.132-.378-3.305.059-5.148l1.655-7.016a5.864 5.864 0 01-.394-2.135c0-2.207 1.345-3.935 3.063-3.935 1.375 0 2.299 1.005 2.299 2.5 0 .849-.322 1.894-.664 3.002-.184.595-.374 1.21-.513 1.799-.115.483-.022.945.26 1.301.3.38.78.597 1.314.597 2.052 0 3.66-2.85 3.66-6.49 0-2.796-1.902-4.533-4.966-4.533-3.878 0-5.972 2.986-5.972 5.796 0 .934.237 1.649.747 2.248.312.371.442.659.296 1.207-.036.133-.095.367-.151.59l-.119.466a.987.987 0 01-1.36.68c-1.894-.772-3.025-2.836-3.025-5.52C2.593 4.454 6.313 0 12.538 0c5.552 0 8.87 4.106 8.87 8.076 0 5.538-3.212 9.558-7.637 9.558-1.105 0-2.21-.411-2.966-1.052-.239.944-.577 2.276-.68 2.65-.515 1.87-1.88 3.743-2.443 4.461-.162.209-.364.307-.583.307zm3.687-17.842c-1.133 0-2.02 1.27-2.02 2.893 0 1.093.36 1.849.365 1.856l.081.168-.041.182-1.695 7.185c-.251 1.062-.299 2.45-.14 3.97.616-.867 1.431-2.176 1.784-3.456.157-.574.916-3.583.923-3.614l.334-1.32.633 1.205c.353.67 1.481 1.365 2.76 1.365 3.883 0 6.595-3.502 6.595-8.517 0-3.457-2.928-7.033-7.828-7.033-6.14 0-8.903 4.512-8.903 7.717 0 2.26.853 3.913 2.341 4.54l.11-.42c.058-.229.119-.47.155-.606a.707.707 0 00.027-.129c-.004.007-.022-.03-.112-.136-.667-.786-.992-1.742-.992-2.92 0-3.899 3.015-6.838 7.014-6.838 3.65 0 6.008 2.188 6.008 5.574 0 4.295-2.021 7.533-4.703 7.533-.854 0-1.631-.361-2.13-.992-.485-.612-.647-1.39-.458-2.189.147-.623.343-1.255.532-1.866.318-1.03.618-2.003.618-2.694 0-.438-.123-1.458-1.258-1.458z" fill="#A9A8A8"/></svg><svg width="24" height="24" fill="none" viewBox="0 0 24 24" id="pinterest-hover" x="2300" y="1246" xmlns="http://www.w3.org/2000/svg"><path d="M7.1 24a.686.686 0 01-.687-.593l-.009-.057c-.165-1.132-.378-3.305.059-5.148l1.655-7.016a5.864 5.864 0 01-.394-2.135c0-2.207 1.345-3.935 3.063-3.935 1.375 0 2.299 1.005 2.299 2.5 0 .849-.322 1.894-.664 3.002-.184.595-.374 1.21-.513 1.799-.115.483-.022.945.26 1.301.3.38.78.597 1.314.597 2.052 0 3.66-2.85 3.66-6.49 0-2.796-1.902-4.533-4.966-4.533-3.878 0-5.972 2.986-5.972 5.796 0 .934.237 1.649.747 2.248.312.371.442.659.296 1.207-.036.133-.095.367-.151.59l-.119.466a.987.987 0 01-1.36.68c-1.894-.772-3.025-2.836-3.025-5.52C2.593 4.454 6.313 0 12.538 0c5.552 0 8.87 4.106 8.87 8.076 0 5.538-3.212 9.558-7.637 9.558-1.105 0-2.21-.411-2.966-1.052-.239.944-.577 2.276-.68 2.65-.515 1.87-1.88 3.743-2.443 4.461-.162.209-.364.307-.583.307zm3.687-17.842c-1.133 0-2.02 1.27-2.02 2.893 0 1.093.36 1.849.365 1.856l.081.168-.041.182-1.695 7.185c-.251 1.062-.299 2.45-.14 3.97.616-.867 1.431-2.176 1.784-3.456.157-.574.916-3.583.923-3.614l.334-1.32.633 1.205c.353.67 1.481 1.365 2.76 1.365 3.883 0 6.595-3.502 6.595-8.517 0-3.457-2.928-7.033-7.828-7.033-6.14 0-8.903 4.512-8.903 7.717 0 2.26.853 3.913 2.341 4.54l.11-.42c.058-.229.119-.47.155-.606a.707.707 0 00.027-.129c-.004.007-.022-.03-.112-.136-.667-.786-.992-1.742-.992-2.92 0-3.899 3.015-6.838 7.014-6.838 3.65 0 6.008 2.188 6.008 5.574 0 4.295-2.021 7.533-4.703 7.533-.854 0-1.631-.361-2.13-.992-.485-.612-.647-1.39-.458-2.189.147-.623.343-1.255.532-1.866.318-1.03.618-2.003.618-2.694 0-.438-.123-1.458-1.258-1.458z" fill="#d12229"/></svg><svg width="17" height="5" fill="none" viewBox="0 0 17 5" id="points" x="2244" y="1206" xmlns="http://www.w3.org/2000/svg"><path d="M2.72 4.44c1.056 0 2-.864 2-2.144 0-1.296-.944-2.16-2-2.16-1.072 0-2 .864-2 2.16 0 1.28.928 2.144 2 2.144zm5.742 0c1.056 0 2-.864 2-2.144 0-1.296-.944-2.16-2-2.16-1.072 0-2 .864-2 2.16 0 1.28.928 2.144 2 2.144zm5.742 0c1.056 0 2-.864 2-2.144 0-1.296-.944-2.16-2-2.16-1.072 0-2 .864-2 2.16 0 1.28.928 2.144 2 2.144z" fill="#A9A8A8"/></svg><svg width="20" height="20" fill="none" viewBox="0 0 20 20" id="search" x="1770" y="1286" xmlns="http://www.w3.org/2000/svg"><path fill-rule="evenodd" clip-rule="evenodd" d="M19.51 17.147l-4.344-4.345c-.024-.023-.05-.04-.075-.06a8.223 8.223 0 10-2.35 2.35c.022.023.038.05.06.074l4.346 4.345a1.672 1.672 0 002.364-2.364zM8.223 13.595a5.372 5.372 0 110-10.745 5.372 5.372 0 010 10.745z" fill="#C4C4C4"/></svg><svg width="74" height="74" fill="none" viewBox="0 0 74 74" id="sketch" x="1994" y="1206" xmlns="http://www.w3.org/2000/svg"><g clip-path="url(#bdclip0)" fill="#272626"><path d="M65.478 52.222a1.086 1.086 0 00-1.184.236l-11.87 11.87a1.086 1.086 0 00.768 1.854h11.87c.6 0 1.086-.487 1.086-1.086v-11.87c0-.44-.265-.835-.67-1.004zM55.814 64.01l8.162-8.162v8.162h-8.162z"/><path d="M73.33 34.813a1.086 1.086 0 00-1.184.235l-3.253 3.253V16.183c0-.6-.486-1.086-1.086-1.086H59.46l3.03-3.03h.001l2.92-2.92a3.29 3.29 0 00.969-2.341 3.29 3.29 0 00-.97-2.342l-3.375-3.376a3.29 3.29 0 00-2.342-.97 3.29 3.29 0 00-2.342.97l-2.92 2.92-3.53 3.53-7.559 7.559H9.63V4.352c0-.6-.487-1.086-1.086-1.086C3.833 3.266 0 7.098 0 11.809V57.94c0 .08.01.158.026.233a8.18 8.18 0 002.46 5.266 8.18 8.18 0 005.742 2.336h33.19l-6.251 6.251a1.086 1.086 0 00.768 1.854h36.979c.6 0 1.086-.486 1.086-1.086V35.816c0-.439-.265-.835-.67-1.003zM58.888 2.625a1.14 1.14 0 011.612 0L63.875 6a1.14 1.14 0 010 1.612l-2.152 2.152-4.987-4.987 2.152-2.152zM55.2 6.313l4.987 4.987-1.993 1.993-4.987-4.987L55.2 6.313zm16.628 41.708h-2.004a1.086 1.086 0 100 2.172h2.004v3.273h-2.004a1.086 1.086 0 100 2.172h2.004v3.273h-2.004a1.086 1.086 0 100 2.173h2.004v3.273h-2.004a1.086 1.086 0 000 2.172h2.004v5.18H38.557l10.971-10.97a1.086 1.086 0 10-1.536-1.537l-4.402 4.402H8.228a6.021 6.021 0 01-6.05-5.86c.006-.206.022-.41.047-.613v-.004a6.13 6.13 0 01.044-.287l.006-.032a6.256 6.256 0 01.258-.977l.04-.113a6.2 6.2 0 01.083-.21l.025-.061c.037-.087.076-.173.117-.258l.005-.01a6.394 6.394 0 014.444-3.476l.017-.004c.09-.018.18-.034.272-.048l.046-.008c.082-.013.165-.022.249-.032l.07-.008c.08-.008.162-.014.243-.019.026-.001.052-.004.077-.006a6.46 6.46 0 01.322-.008c.6 0 1.086-.486 1.086-1.086V42.61a1.086 1.086 0 10-2.173 0v6.858a8.483 8.483 0 00-5.284 2.787V11.81c0-3.143 2.287-5.761 5.284-6.278v32.733a1.086 1.086 0 002.173 0V17.27H41.17l-6.004 6.005a1.086 1.086 0 001.536 1.536l7.858-7.859h.001l7.109-7.11 4.986 4.988-.584.585-.002.001-21.9 21.901-4.988-4.987 4.317-4.317a1.086 1.086 0 00-1.535-1.536l-5.086 5.085a1.098 1.098 0 00-.076.086l-.023.03c-.015.02-.03.041-.044.063l-.023.038-.034.061-.02.042a1.16 1.16 0 00-.026.064l-.01.023-2.116 5.994-1.442 4.088c-.02.054-.033.11-.043.165h-3.613a1.086 1.086 0 000 2.172h30.08a1.086 1.086 0 100-2.172H27.908l6.624-2.339.016-.006c.026-.01.051-.02.076-.032l.03-.014a1.07 1.07 0 00.076-.042l.025-.015c.026-.017.051-.035.076-.054l.02-.014c.03-.024.06-.05.087-.079L57.29 17.27h9.431v23.204L51.184 56.01a1.086 1.086 0 101.536 1.536l19.108-19.108v9.583zM32.184 38.4L29.073 39.5 27 37.427l1.098-3.111 4.086 4.085z"/></g><defs><clipPath id="bdclip0"><path fill="#fff" d="M0 0h74v74H0z"/></clipPath></defs></svg><svg width="15" height="15" viewBox="0 0 15 15" id="sluit" x="1822" y="1286" xmlns="http://www.w3.org/2000/svg"><path d="M15 1.5L13.5 0l-6 6-6-6L0 1.5l6 6-6 6L1.5 15l6-6 6 6 1.5-1.5-6-6zm0 0" fill="#fff"/></svg><svg width="24" height="24" fill="none" viewBox="0 0 24 24" id="smartphone" x="2228" y="1246" xmlns="http://www.w3.org/2000/svg"><path d="M12 19.6c-.734 0-1.332.597-1.332 1.331s.598 1.332 1.332 1.332a1.333 1.333 0 000-2.663zm0 1.74a.41.41 0 110-.82.41.41 0 010 .82zM14.184 1.896h-2.362a.487.487 0 100 .973h2.362a.487.487 0 000-.973zM10.327 2.906a.51.51 0 100-1.022.51.51 0 000 1.022z" fill="#A9A8A8"/><path d="M17.676 0H6.323c-.847 0-1.537.69-1.537 1.537v20.926c0 .848.69 1.537 1.537 1.537h11.353c.847 0 1.537-.69 1.537-1.537V1.537c0-.848-.69-1.537-1.537-1.537zm.512 22.463c0 .283-.23.512-.512.512H6.323a.513.513 0 01-.512-.512V1.537c0-.283.23-.512.512-.512h11.353c.283 0 .512.23.512.512v20.926z" fill="#A9A8A8"/><path d="M12.863 9.62c-.2-.2-.524-.2-.724 0l-2.461 2.46a.512.512 0 00.724.724l2.46-2.46c.201-.2.201-.525.001-.725zM14.322 11.045c-.2-.2-.525-.2-.725 0l-.98.98a.512.512 0 00.724.725l.98-.98c.2-.2.2-.525 0-.725z" fill="#A9A8A8"/><path d="M16.658 3.792H7.343a.461.461 0 00-.461.46v14.123a.46.46 0 00.46.461h9.316a.46.46 0 00.461-.461V4.253a.461.461 0 00-.46-.461zm-.46 14.122H7.803v-13.2h8.393v13.2z" fill="#A9A8A8"/></svg><svg width="24" height="24" fill="none" viewBox="0 0 24 24" id="smartphone-hover" x="2252" y="1246" xmlns="http://www.w3.org/2000/svg"><path d="M12 19.6c-.734 0-1.332.597-1.332 1.331s.598 1.332 1.332 1.332a1.333 1.333 0 000-2.663zm0 1.74a.41.41 0 110-.82.41.41 0 010 .82zM14.184 1.896h-2.362a.487.487 0 100 .973h2.362a.487.487 0 000-.973zM10.327 2.906a.51.51 0 100-1.022.51.51 0 000 1.022z" fill="#d12229"/><path d="M17.676 0H6.323c-.847 0-1.537.69-1.537 1.537v20.926c0 .848.69 1.537 1.537 1.537h11.353c.847 0 1.537-.69 1.537-1.537V1.537c0-.848-.69-1.537-1.537-1.537zm.512 22.463c0 .283-.23.512-.512.512H6.323a.513.513 0 01-.512-.512V1.537c0-.283.23-.512.512-.512h11.353c.283 0 .512.23.512.512v20.926z" fill="#d12229"/><path d="M12.863 9.62c-.2-.2-.524-.2-.724 0l-2.461 2.46a.512.512 0 00.724.724l2.46-2.46c.201-.2.201-.525.001-.725zM14.322 11.045c-.2-.2-.525-.2-.725 0l-.98.98a.512.512 0 00.724.725l.98-.98c.2-.2.2-.525 0-.725z" fill="#d12229"/><path d="M16.658 3.792H7.343a.461.461 0 00-.461.46v14.123a.46.46 0 00.46.461h9.316a.46.46 0 00.461-.461V4.253a.461.461 0 00-.46-.461zm-.46 14.122H7.803v-13.2h8.393v13.2z" fill="#d12229"/></svg><svg width="78" height="78" fill="none" viewBox="0 0 78 78" id="star" x="1840" y="1206" xmlns="http://www.w3.org/2000/svg"><path d="M52.811 46.425a1.275 1.275 0 01.46-1.418l9.9-7.263c1.577-1.156 2.205-3.105 1.6-4.964-.603-1.859-2.257-3.066-4.211-3.075l-12.279-.057a1.275 1.275 0 01-1.206-.876l-3.848-11.66c-.613-1.856-2.271-3.055-4.226-3.056-1.955 0-3.614 1.2-4.226 3.056l-1.735 5.253a1.587 1.587 0 103.014.996l1.735-5.254c.268-.813.995-.876 1.212-.876.216 0 .943.063 1.212.876l3.848 11.66a4.446 4.446 0 004.205 3.056l12.279.057c.856.004 1.14.676 1.207.882.067.205.232.916-.458 1.423l-9.9 7.263a4.447 4.447 0 00-1.607 4.944L53.53 59.09c.26.815-.29 1.294-.466 1.42-.175.128-.8.505-1.495.004l-9.967-7.173a4.447 4.447 0 00-5.2 0l-9.969 7.175c-.695.5-1.32.123-1.495-.004-.175-.127-.726-.605-.466-1.42l3.74-11.701a4.447 4.447 0 00-1.605-4.944l-9.9-7.263c-.69-.507-.526-1.218-.459-1.423.067-.206.352-.878 1.208-.882l12.28-.057a1.588 1.588 0 00-.008-3.174h-.008l-12.279.056c-1.955.01-3.608 1.217-4.212 3.076-.604 1.86.024 3.808 1.6 4.964l9.9 7.263c.442.325.627.895.46 1.417l-3.74 11.701c-.595 1.862.042 3.808 1.623 4.956a4.438 4.438 0 002.616.865 4.44 4.44 0 002.6-.853l9.969-7.174a1.274 1.274 0 011.49 0l9.968 7.172c1.587 1.142 3.634 1.138 5.216-.011 1.581-1.15 2.218-3.095 1.623-4.957l-3.742-11.7z" fill="#272626"/><path d="M39 0C17.495 0 0 17.495 0 39c0 21.504 17.495 39 39 39a1.588 1.588 0 000-3.175C19.246 74.825 3.175 58.755 3.175 39 3.175 19.246 19.245 3.175 39 3.175c19.754 0 35.825 16.07 35.825 35.825 0 12.296-6.196 23.593-16.574 30.219a1.587 1.587 0 001.708 2.675C71.256 64.682 78 52.385 78 39 78 17.495 60.506 0 39 0z" fill="#272626"/></svg><svg width="13" height="9" fill="none" viewBox="0 0 13 9" id="tick-white" x="2244" y="1211" xmlns="http://www.w3.org/2000/svg"><path d="M4.522 8.62L.375 4.423c-.5-.507-.5-1.327 0-1.833a1.27 1.27 0 011.81 0l3.242 3.282L10.815.379a1.27 1.27 0 011.81 0c.5.506.5 1.327 0 1.833L6.332 8.621a1.268 1.268 0 01-1.81 0z" fill="#fff"/></svg><svg width="80" height="80" fill="none" viewBox="0 0 80 80" id="tiles" x="1760" y="1206" xmlns="http://www.w3.org/2000/svg"><g clip-path="url(#bjclip0)" fill="#272626"><path d="M40.122 80c-.267 0-.535-.084-.76-.251L.991 51.307a1.278 1.278 0 01.039-2.08l4.515-3.095A1.279 1.279 0 016.99 48.24l-3.037 2.081 36.17 26.811L76.323 50.3l-2.991-2.137a1.278 1.278 0 011.484-2.079l4.42 3.158a1.277 1.277 0 01.018 2.066L40.882 79.748a1.268 1.268 0 01-.76.252z"/><path d="M40.122 73.56c-.267 0-.535-.083-.76-.25L.991 44.865a1.28 1.28 0 01.039-2.08l4.183-2.866a1.28 1.28 0 011.777.332 1.28 1.28 0 01-.332 1.777L3.952 43.88l36.17 26.811 36.202-26.834-2.574-1.839a1.277 1.277 0 111.484-2.078l4.004 2.86a1.276 1.276 0 01.018 2.065L40.884 73.31a1.278 1.278 0 01-.762.252zM64.571 28.732c-.256 0-.517-.076-.741-.238l-12.823-9.159a1.277 1.277 0 111.484-2.078l12.824 9.159a1.277 1.277 0 01-.744 2.316z"/><path d="M27.059 57.437c-.264 0-.53-.081-.76-.25l-12.593-9.335a1.28 1.28 0 01-.267-1.788 1.28 1.28 0 011.788-.266l12.595 9.335a1.279 1.279 0 01-.763 2.304zM32.566 34.252c-.113 0-.228-.015-.34-.046l-17.348-4.798a1.28 1.28 0 01-.382-2.286l25.71-17.609a1.276 1.276 0 011.465.015l10.82 7.73a1.277 1.277 0 01.034 2.053L33.343 33.99c-.226.171-.5.263-.777.263zm-14.359-6.574l14.088 3.895 17.307-13.241-8.688-6.205-22.707 15.55z"/><path d="M14.466 48.103c-.267 0-.535-.084-.76-.252L.99 38.428a1.28 1.28 0 01.039-2.081l13.466-9.224a1.278 1.278 0 011.444 2.109L3.952 37.44l10.502 7.785L31.791 31.96a1.277 1.277 0 011.553 2.029l-18.101 13.85a1.273 1.273 0 01-.777.264zM40.122 67.12c-.267 0-.535-.084-.76-.251L26.3 57.186a1.277 1.277 0 01-.015-2.042l18.19-13.917a1.275 1.275 0 012.033.79l3.116 17.49c.086.479-.107.963-.496 1.252l-8.243 6.11c-.226.167-.494.25-.762.25zM29.184 56.143l10.938 8.108 6.848-5.074-2.61-14.647-15.176 11.613z"/><path d="M48.367 61.01a1.278 1.278 0 01-.762-2.304l28.719-21.287L64.6 29.044 46.026 43.256a1.275 1.275 0 01-1.79-.238 1.276 1.276 0 01.238-1.79l19.323-14.786a1.273 1.273 0 011.518-.025l13.922 9.944a1.275 1.275 0 01.019 2.066l-30.13 22.332c-.229.17-.495.25-.759.25zM33.483 9.523c-.326 0-.653-.125-.903-.374l-4.045-4.046a1.276 1.276 0 111.806-1.806l4.046 4.045a1.278 1.278 0 01-.904 2.181zM48.372 9.523a1.278 1.278 0 01-.903-2.181l4.045-4.045a1.276 1.276 0 111.806 1.806L49.276 9.15c-.25.25-.576.374-.903.374zM39.827 7.665a1.277 1.277 0 01-1.278-1.278v-5.11a1.277 1.277 0 112.555 0v5.11c0 .707-.57 1.278-1.277 1.278z"/></g><defs><clipPath id="bjclip0"><path fill="#fff" d="M0 0h80v80H0z"/></clipPath></defs></svg><svg width="240" height="762" fill="none" viewBox="0 0 240 762" id="tiles-calc-01" x="720" xmlns="http://www.w3.org/2000/svg"><path stroke="#F4F4F4" stroke-width="2" d="M201 161v40h-80v-40zM161 121v40H81v-40zM281 241v40h-80v-40zM241 361h-40v-80h40zM241 681h-40v-80h40zM201 321h-40v-80h40zM281 81v40h-80V81zM161 81h40v80h-40zM241 41v40h-80V41zM121 41h40v80h-40zM121 81v40H41V81zM1 81h40v80H1zM281 561v40h-80v-40zM241 521v40h-80v-40zM201 481v40h-80v-40zM241 201v40h-80v-40zM241 201h-40v-80h40zM241 361v40h-80v-40zM121 401v40H41v-40zM161 441v40H81v-40zM241 521h-40v-80h40zM201 641h-40v-80h40zM161 601h-40v-80h40zM201 481h-40v-80h40zM161 281v40H81v-40zM121 241v40H41v-40zM81 201v40H1v-40zM81 361v40H1v-40zM281 401v40h-80v-40zM201 321v40h-80v-40zM121 401H81v-80h40zM121 561H81v-80h40zM81 521H41v-80h40zM81 361H41v-80h40zM161 441h-40v-80h40zM161 281h-40v-80h40zM121 241H81v-80h40zM81 201H41v-80h40z"/></svg><svg width="240" height="762" fill="none" viewBox="0 0 240 762" id="tiles-calc-02" x="960" xmlns="http://www.w3.org/2000/svg"><path fill="#fff" stroke="#F4F4F4" stroke-width="2" d="M39 601v-40h80v40zM79 641v-40h80v40zM-41 521v-40h80v40zM-1 401h40v80H-1zM-1 81h40v80H-1zM39 441h40v80H39zM-41 681v-40h80v40zM79 681H39v-80h40zM-1 721v-40h80v40zM119 721H79v-80h40zM119 681v-40h80v40zM239 681h-40v-80h40zM-41 201v-40h80v40zM-1 241v-40h80v40zM39 281v-40h80v40zM-1 561v-40h80v40zM-1 561h40v80H-1zM-1 401v-40h80v40zM119 361v-40h80v40zM79 321v-40h80v40zM-1 241h40v80H-1zM39 121h40v80H39zM79 161h40v80H79zM39 281h40v80H39zM79 481v-40h80v40zM119 521v-40h80v40zM159 561v-40h80v40zM159 401v-40h80v40zM-41 361v-40h80v40zM39 441v-40h80v40zM119 361h40v80h-40zM119 201h40v80h-40zM159 241h40v80h-40zM159 401h40v80h-40zM79 321h40v80H79zM79 481h40v80H79zM119 521h40v80h-40zM159 561h40v80h-40z"/></svg><svg width="656" height="402" fill="none" viewBox="0 0 656 402" id="tiles-home-01" x="1680" y="402" xmlns="http://www.w3.org/2000/svg"><path fill="#fff" stroke="#F4F4F4" stroke-width="2" d="M601 201h-40v-80h40zM641 161h-40V81h40zM521 281h-40v-80h40zM481 321h-40v-80h40zM401 241v-40h80v40zM201 281v-40h80v40zM81 241v-40h80v40zM41 281v-40h80v40zM441 201v-40h80v40zM641 321h-40v-80h40zM681 281h-40v-80h40zM681 161v40h-80v-40zM721 121v40h-80v-40zM681 121h-40V41h40zM681 1v40h-80V1zM721 281v40h-80v-40zM161 321h-40v-80h40zM1 321v-40h80v40zM121 361H81v-80h40zM321 321h-40v-80h40zM161 321v-40h80v40zM281 361h-40v-80h40zM201 281h-40v-80h40zM241 241h-40v-80h40zM281 201h-40v-80h40zM561 241h-40v-80h40zM521 281v-40h80v40zM601 361h-40v-80h40zM561 401h-40v-80h40zM481 321v-40h80v40zM601 361v-40h80v40zM441 361v-40h80v40zM561 241v-40h80v40zM401 241h-40v-80h40zM361 121h-40V41h40zM321 161h-40V81h40zM241 241v-40h80v40zM121 201v-40h80v40zM161 161v-40h80v40zM361 281v-40h80v40zM441 361h-40v-80h40zM321 321v-40h80v40zM281 201v-40h80v40zM481 161h-40V81h40zM521 121h-40V41h40zM561 81h-40V1h40zM401 81h-40V1h40zM361 281h-40v-80h40zM441 201h-40v-80h40zM361 121V81h80v40zM201 121V81h80v40zM241 81V41h80v40zM401 81V41h80v40zM321 161v-40h80v40zM481 161v-40h80v40zM521 121V81h80v40zM561 81V41h80v40z"/></svg><svg width="402" height="762" fill="none" viewBox="0 0 402 762" id="tiles-home-02" x="1200" y="762" xmlns="http://www.w3.org/2000/svg"><path fill="#fff" stroke="#F4F4F4" stroke-width="2" d="M201 601v-40h80v40zM241 641v-40h80v40zM121 521v-40h80v40zM81 481v-40h80v40zM161 401h40v80h-40zM121 201h40v80h-40zM161 81h40v80h-40zM121 41h40v80h-40zM201 441h40v80h-40zM81 641v-40h80v40zM121 681v-40h80v40zM161 761h-40v-80h40zM241 681h-40v-80h40zM161 721v-40h80v40zM281 721h-40v-80h40zM281 681v-40h80v40zM401 681h-40v-80h40zM121 721H81v-80h40zM81 161v-40h80v40zM81 1h40v80H81zM41 121V81h80v40zM81 321v-40h80v40zM81 161h40v80H81zM41 281v-40h80v40zM121 201v-40h80v40zM161 241v-40h80v40zM201 281v-40h80v40zM161 561v-40h80v40zM121 521h40v80h-40zM41 601v-40h80v40zM1 561v-40h80v40zM81 481h40v80H81zM41 601h40v80H41zM81 681v40H1v-40zM41 441h40v80H41zM161 561h40v80h-40zM161 401v-40h80v40zM281 361v-40h80v40zM241 321v-40h80v40zM161 241h40v80h-40zM201 121h40v80h-40zM241 161h40v80h-40zM121 361h40v80h-40zM41 441v-40h80v40zM81 321h40v80H81zM201 281h40v80h-40zM241 481v-40h80v40zM281 521v-40h80v40zM321 561v-40h80v40zM321 401v-40h80v40zM121 361v-40h80v40zM201 441v-40h80v40zM281 361h40v80h-40zM281 201h40v80h-40zM321 241h40v80h-40zM321 401h40v80h-40zM241 321h40v80h-40zM241 481h40v80h-40zM281 521h40v80h-40zM321 561h40v80h-40z"/></svg><svg width="329" height="402" fill="none" viewBox="0 0 329 402" id="tiles-home-03" y="1524" xmlns="http://www.w3.org/2000/svg"><path stroke="#F4F4F4" stroke-width="2" d="M161 201h40v80h-40zM121 241h40v80h-40zM241 121h40v80h-40zM281 81h40v80h-40zM361 161v40h-80v-40zM321 201v40h-80v-40zM121 81h40v80h-40zM81 121h40v80H81zM1 161v-40h80v40zM81 241v-40h80v40zM41 161h40v80H41zM41 281v-40h80v40zM81 281h40v80H81zM81 401v-40h80v40zM41 121V81h80v40zM201 161h40v80h-40zM241 121v40h-80v-40zM161 41h40v80h-40zM201 1h40v80h-40zM281 81v40h-80V81zM161 41v40H81V41zM81 81H41V1h40zM321 41v40h-80V41zM201 161v40h-80v-40zM401 121v40h-80v-40zM321 41h40v80h-40zM281 241h40v80h-40zM241 281h40v80h-40zM201 321h40v80h-40zM321 201h40v80h-40zM401 281v40h-80v-40zM361 321v40h-80v-40zM281 241v40h-80v-40zM241 281v40h-80v-40zM201 321v40h-80v-40z"/></svg><svg width="656" height="402" fill="none" viewBox="0 0 656 402" id="tiles-inner-page-01" x="1680" y="804" xmlns="http://www.w3.org/2000/svg"><path fill="#fff" stroke="#F4F4F4" stroke-width="2" d="M601 201h-40v-80h40zM641 161h-40V81h40zM521 281h-40v-80h40zM481 321h-40v-80h40zM401 241v-40h80v40zM201 281v-40h80v40zM81 241v-40h80v40zM41 281v-40h80v40zM441 201v-40h80v40zM641 321h-40v-80h40zM681 281h-40v-80h40zM681 161v40h-80v-40zM721 121v40h-80v-40zM681 121h-40V41h40zM681 1v40h-80V1zM721 281v40h-80v-40zM161 321h-40v-80h40zM1 321v-40h80v40zM121 361H81v-80h40zM321 321h-40v-80h40zM161 321v-40h80v40zM281 361h-40v-80h40zM201 281h-40v-80h40zM241 241h-40v-80h40zM281 201h-40v-80h40zM561 241h-40v-80h40zM521 281v-40h80v40zM601 361h-40v-80h40zM561 401h-40v-80h40zM481 321v-40h80v40zM601 361v-40h80v40zM441 361v-40h80v40zM561 241v-40h80v40zM401 241h-40v-80h40zM361 121h-40V41h40zM321 161h-40V81h40zM241 241v-40h80v40zM121 201v-40h80v40zM161 161v-40h80v40zM361 281v-40h80v40zM441 361h-40v-80h40zM321 321v-40h80v40zM281 201v-40h80v40zM481 161h-40V81h40zM521 121h-40V41h40zM561 81h-40V1h40zM401 81h-40V1h40zM361 281h-40v-80h40zM441 201h-40v-80h40zM361 121V81h80v40zM201 121V81h80v40zM241 81V41h80v40zM401 81V41h80v40zM321 161v-40h80v40zM481 161v-40h80v40zM521 121V81h80v40zM561 81V41h80v40z"/></svg><svg width="240" height="762" fill="none" viewBox="0 0 240 762" id="tiles-merkdetail-01" x="480" xmlns="http://www.w3.org/2000/svg"><path stroke="#F4F4F4" stroke-width="2" d="M201 161v40h-80v-40zM161 121v40H81v-40zM281 241v40h-80v-40zM241 361h-40v-80h40zM241 681h-40v-80h40zM201 321h-40v-80h40zM281 81v40h-80V81zM161 81h40v80h-40zM241 41v40h-80V41zM121 41h40v80h-40zM121 81v40H41V81zM1 81h40v80H1zM281 561v40h-80v-40zM241 521v40h-80v-40zM201 481v40h-80v-40zM241 201v40h-80v-40zM241 201h-40v-80h40zM241 361v40h-80v-40zM121 401v40H41v-40zM161 441v40H81v-40zM241 521h-40v-80h40zM201 641h-40v-80h40zM161 601h-40v-80h40zM201 481h-40v-80h40zM161 281v40H81v-40zM121 241v40H41v-40zM81 201v40H1v-40zM81 361v40H1v-40zM281 401v40h-80v-40zM201 321v40h-80v-40zM121 401H81v-80h40zM121 561H81v-80h40zM81 521H41v-80h40zM81 361H41v-80h40zM161 441h-40v-80h40zM161 281h-40v-80h40zM121 241H81v-80h40zM81 201H41v-80h40z"/></svg><svg width="240" height="762" fill="none" viewBox="0 0 240 762" id="tiles-merkdetail-02" x="1200" xmlns="http://www.w3.org/2000/svg"><path fill="#fff" stroke="#F4F4F4" stroke-width="2" d="M39 601v-40h80v40zM79 641v-40h80v40zM-41 521v-40h80v40zM-1 401h40v80H-1zM-1 81h40v80H-1zM39 441h40v80H39zM-41 681v-40h80v40zM79 681H39v-80h40zM-1 721v-40h80v40zM119 721H79v-80h40zM119 681v-40h80v40zM239 681h-40v-80h40zM-41 201v-40h80v40zM-1 241v-40h80v40zM39 281v-40h80v40zM-1 561v-40h80v40zM-1 561h40v80H-1zM-1 401v-40h80v40zM119 361v-40h80v40zM79 321v-40h80v40zM-1 241h40v80H-1zM39 121h40v80H39zM79 161h40v80H79zM39 281h40v80H39zM79 481v-40h80v40zM119 521v-40h80v40zM159 561v-40h80v40zM159 401v-40h80v40zM-41 361v-40h80v40zM39 441v-40h80v40zM119 361h40v80h-40zM119 201h40v80h-40zM159 241h40v80h-40zM159 401h40v80h-40zM79 321h40v80H79zM79 481h40v80H79zM119 521h40v80h-40zM159 561h40v80h-40z"/></svg><svg width="656" height="402" fill="none" viewBox="0 0 656 402" id="tiles-newsoverview-01" x="1680" xmlns="http://www.w3.org/2000/svg"><path fill="#fff" stroke="#F4F4F4" stroke-width="2" d="M601 201h-40v-80h40zM641 161h-40V81h40zM521 281h-40v-80h40zM481 321h-40v-80h40zM401 241v-40h80v40zM201 281v-40h80v40zM81 241v-40h80v40zM41 281v-40h80v40zM441 201v-40h80v40zM641 321h-40v-80h40zM681 281h-40v-80h40zM681 161v40h-80v-40zM721 121v40h-80v-40zM681 121h-40V41h40zM681 1v40h-80V1zM721 281v40h-80v-40zM161 321h-40v-80h40zM1 321v-40h80v40zM121 361H81v-80h40zM321 321h-40v-80h40zM161 321v-40h80v40zM281 361h-40v-80h40zM201 281h-40v-80h40zM241 241h-40v-80h40zM281 201h-40v-80h40zM561 241h-40v-80h40zM521 281v-40h80v40zM601 361h-40v-80h40zM561 401h-40v-80h40zM481 321v-40h80v40zM601 361v-40h80v40zM441 361v-40h80v40zM561 241v-40h80v40zM401 241h-40v-80h40zM361 121h-40V41h40zM321 161h-40V81h40zM241 241v-40h80v40zM121 201v-40h80v40zM161 161v-40h80v40zM361 281v-40h80v40zM441 361h-40v-80h40zM321 321v-40h80v40zM281 201v-40h80v40zM481 161h-40V81h40zM521 121h-40V41h40zM561 81h-40V1h40zM401 81h-40V1h40zM361 281h-40v-80h40zM441 201h-40v-80h40zM361 121V81h80v40zM201 121V81h80v40zM241 81V41h80v40zM401 81V41h80v40zM321 161v-40h80v40zM481 161v-40h80v40zM521 121V81h80v40zM561 81V41h80v40z"/></svg><svg width="240" height="762" fill="none" viewBox="0 0 240 762" id="tiles-newsoverview-02" x="480" y="762" xmlns="http://www.w3.org/2000/svg"><path fill="#fff" stroke="#F4F4F4" stroke-width="2" d="M39 601v-40h80v40zM79 641v-40h80v40zM-41 521v-40h80v40zM-1 401h40v80H-1zM-1 81h40v80H-1zM39 441h40v80H39zM-41 681v-40h80v40zM79 681H39v-80h40zM-1 721v-40h80v40zM119 721H79v-80h40zM119 681v-40h80v40zM239 681h-40v-80h40zM-41 201v-40h80v40zM-1 241v-40h80v40zM39 281v-40h80v40zM-1 561v-40h80v40zM-1 561h40v80H-1zM-1 401v-40h80v40zM119 361v-40h80v40zM79 321v-40h80v40zM-1 241h40v80H-1zM39 121h40v80H39zM79 161h40v80H79zM39 281h40v80H39zM79 481v-40h80v40zM119 521v-40h80v40zM159 561v-40h80v40zM159 401v-40h80v40zM-41 361v-40h80v40zM39 441v-40h80v40zM119 361h40v80h-40zM119 201h40v80h-40zM159 241h40v80h-40zM159 401h40v80h-40zM79 321h40v80H79zM79 481h40v80H79zM119 521h40v80h-40zM159 561h40v80h-40z"/></svg><svg width="240" height="762" fill="none" viewBox="0 0 240 762" id="tiles-roomdetails-01" x="960" y="762" xmlns="http://www.w3.org/2000/svg"><path stroke="#F4F4F4" stroke-width="2" d="M201 161v40h-80v-40zM161 121v40H81v-40zM281 241v40h-80v-40zM241 361h-40v-80h40zM241 681h-40v-80h40zM201 321h-40v-80h40zM281 81v40h-80V81zM161 81h40v80h-40zM241 41v40h-80V41zM121 41h40v80h-40zM121 81v40H41V81zM1 81h40v80H1zM281 561v40h-80v-40zM241 521v40h-80v-40zM201 481v40h-80v-40zM241 201v40h-80v-40zM241 201h-40v-80h40zM241 361v40h-80v-40zM121 401v40H41v-40zM161 441v40H81v-40zM241 521h-40v-80h40zM201 641h-40v-80h40zM161 601h-40v-80h40zM201 481h-40v-80h40zM161 281v40H81v-40zM121 241v40H41v-40zM81 201v40H1v-40zM81 361v40H1v-40zM281 401v40h-80v-40zM201 321v40h-80v-40zM121 401H81v-80h40zM121 561H81v-80h40zM81 521H41v-80h40zM81 361H41v-80h40zM161 441h-40v-80h40zM161 281h-40v-80h40zM121 241H81v-80h40zM81 201H41v-80h40z"/></svg><svg width="240" height="762" fill="none" viewBox="0 0 240 762" id="tiles-roomdetails-02" x="720" y="762" xmlns="http://www.w3.org/2000/svg"><path fill="#fff" stroke="#F4F4F4" stroke-width="2" d="M39 601v-40h80v40zM79 641v-40h80v40zM-41 521v-40h80v40zM-1 401h40v80H-1zM-1 81h40v80H-1zM39 441h40v80H39zM-41 681v-40h80v40zM79 681H39v-80h40zM-1 721v-40h80v40zM119 721H79v-80h40zM119 681v-40h80v40zM239 681h-40v-80h40zM-41 201v-40h80v40zM-1 241v-40h80v40zM39 281v-40h80v40zM-1 561v-40h80v40zM-1 561h40v80H-1zM-1 401v-40h80v40zM119 361v-40h80v40zM79 321v-40h80v40zM-1 241h40v80H-1zM39 121h40v80H39zM79 161h40v80H79zM39 281h40v80H39zM79 481v-40h80v40zM119 521v-40h80v40zM159 561v-40h80v40zM159 401v-40h80v40zM-41 361v-40h80v40zM39 441v-40h80v40zM119 361h40v80h-40zM119 201h40v80h-40zM159 241h40v80h-40zM159 401h40v80h-40zM79 321h40v80H79zM79 481h40v80H79zM119 521h40v80h-40zM159 561h40v80h-40z"/></svg><svg width="240" height="762" fill="none" viewBox="0 0 240 762" id="tiles-roomsoverview-01" xmlns="http://www.w3.org/2000/svg"><path stroke="#F4F4F4" stroke-width="2" d="M201 161v40h-80v-40zM161 121v40H81v-40zM281 241v40h-80v-40zM241 361h-40v-80h40zM241 681h-40v-80h40zM201 321h-40v-80h40zM281 81v40h-80V81zM161 81h40v80h-40zM241 41v40h-80V41zM121 41h40v80h-40zM121 81v40H41V81zM1 81h40v80H1zM281 561v40h-80v-40zM241 521v40h-80v-40zM201 481v40h-80v-40zM241 201v40h-80v-40zM241 201h-40v-80h40zM241 361v40h-80v-40zM121 401v40H41v-40zM161 441v40H81v-40zM241 521h-40v-80h40zM201 641h-40v-80h40zM161 601h-40v-80h40zM201 481h-40v-80h40zM161 281v40H81v-40zM121 241v40H41v-40zM81 201v40H1v-40zM81 361v40H1v-40zM281 401v40h-80v-40zM201 321v40h-80v-40zM121 401H81v-80h40zM121 561H81v-80h40zM81 521H41v-80h40zM81 361H41v-80h40zM161 441h-40v-80h40zM161 281h-40v-80h40zM121 241H81v-80h40zM81 201H41v-80h40z"/></svg><svg width="240" height="762" fill="none" viewBox="0 0 240 762" id="tiles-roomsoverview-02" x="240" y="762" xmlns="http://www.w3.org/2000/svg"><path fill="#fff" stroke="#F4F4F4" stroke-width="2" d="M39 601v-40h80v40zM79 641v-40h80v40zM-41 521v-40h80v40zM-1 401h40v80H-1zM-1 81h40v80H-1zM39 441h40v80H39zM-41 681v-40h80v40zM79 681H39v-80h40zM-1 721v-40h80v40zM119 721H79v-80h40zM119 681v-40h80v40zM239 681h-40v-80h40zM-41 201v-40h80v40zM-1 241v-40h80v40zM39 281v-40h80v40zM-1 561v-40h80v40zM-1 561h40v80H-1zM-1 401v-40h80v40zM119 361v-40h80v40zM79 321v-40h80v40zM-1 241h40v80H-1zM39 121h40v80H39zM79 161h40v80H79zM39 281h40v80H39zM79 481v-40h80v40zM119 521v-40h80v40zM159 561v-40h80v40zM159 401v-40h80v40zM-41 361v-40h80v40zM39 441v-40h80v40zM119 361h40v80h-40zM119 201h40v80h-40zM159 241h40v80h-40zM159 401h40v80h-40zM79 321h40v80H79zM79 481h40v80H79zM119 521h40v80h-40zM159 561h40v80h-40z"/></svg><svg width="240" height="762" fill="none" viewBox="0 0 240 762" id="tiles-thankyou-01" y="762" xmlns="http://www.w3.org/2000/svg"><path stroke="#F4F4F4" stroke-width="2" d="M201 161v40h-80v-40zM161 121v40H81v-40zM281 241v40h-80v-40zM241 361h-40v-80h40zM241 681h-40v-80h40zM201 321h-40v-80h40zM281 81v40h-80V81zM161 81h40v80h-40zM241 41v40h-80V41zM121 41h40v80h-40zM121 81v40H41V81zM1 81h40v80H1zM281 561v40h-80v-40zM241 521v40h-80v-40zM201 481v40h-80v-40zM241 201v40h-80v-40zM241 201h-40v-80h40zM241 361v40h-80v-40zM121 401v40H41v-40zM161 441v40H81v-40zM241 521h-40v-80h40zM201 641h-40v-80h40zM161 601h-40v-80h40zM201 481h-40v-80h40zM161 281v40H81v-40zM121 241v40H41v-40zM81 201v40H1v-40zM81 361v40H1v-40zM281 401v40h-80v-40zM201 321v40h-80v-40zM121 401H81v-80h40zM121 561H81v-80h40zM81 521H41v-80h40zM81 361H41v-80h40zM161 441h-40v-80h40zM161 281h-40v-80h40zM121 241H81v-80h40zM81 201H41v-80h40z"/></svg><svg width="240" height="762" fill="none" viewBox="0 0 240 762" id="tiles-vloertegels-01" x="1440" xmlns="http://www.w3.org/2000/svg"><path stroke="#F4F4F4" stroke-width="2" d="M201 161v40h-80v-40zM161 121v40H81v-40zM281 241v40h-80v-40zM241 361h-40v-80h40zM241 681h-40v-80h40zM201 321h-40v-80h40zM281 81v40h-80V81zM161 81h40v80h-40zM241 41v40h-80V41zM121 41h40v80h-40zM121 81v40H41V81zM1 81h40v80H1zM281 561v40h-80v-40zM241 521v40h-80v-40zM201 481v40h-80v-40zM241 201v40h-80v-40zM241 201h-40v-80h40zM241 361v40h-80v-40zM121 401v40H41v-40zM161 441v40H81v-40zM241 521h-40v-80h40zM201 641h-40v-80h40zM161 601h-40v-80h40zM201 481h-40v-80h40zM161 281v40H81v-40zM121 241v40H41v-40zM81 201v40H1v-40zM81 361v40H1v-40zM281 401v40h-80v-40zM201 321v40h-80v-40zM121 401H81v-80h40zM121 561H81v-80h40zM81 521H41v-80h40zM81 361H41v-80h40zM161 441h-40v-80h40zM161 281h-40v-80h40zM121 241H81v-80h40zM81 201H41v-80h40z"/></svg><svg width="240" height="762" fill="none" viewBox="0 0 240 762" id="tiles-vloertegels-02" x="240" xmlns="http://www.w3.org/2000/svg"><path fill="#fff" stroke="#F4F4F4" stroke-width="2" d="M39 601v-40h80v40zM79 641v-40h80v40zM-41 521v-40h80v40zM-1 401h40v80H-1zM-1 81h40v80H-1zM39 441h40v80H39zM-41 681v-40h80v40zM79 681H39v-80h40zM-1 721v-40h80v40zM119 721H79v-80h40zM119 681v-40h80v40zM239 681h-40v-80h40zM-41 201v-40h80v40zM-1 241v-40h80v40zM39 281v-40h80v40zM-1 561v-40h80v40zM-1 561h40v80H-1zM-1 401v-40h80v40zM119 361v-40h80v40zM79 321v-40h80v40zM-1 241h40v80H-1zM39 121h40v80H39zM79 161h40v80H79zM39 281h40v80H39zM79 481v-40h80v40zM119 521v-40h80v40zM159 561v-40h80v40zM159 401v-40h80v40zM-41 361v-40h80v40zM39 441v-40h80v40zM119 361h40v80h-40zM119 201h40v80h-40zM159 241h40v80h-40zM159 401h40v80h-40zM79 321h40v80H79zM79 481h40v80H79zM119 521h40v80h-40zM159 561h40v80h-40z"/></svg></svg>