<svg width="78" height="78" viewBox="0 0 78 78" fill="none" xmlns="http://www.w3.org/2000/svg">
<path d="M52.8111 46.4247C52.6439 45.9017 52.8288 45.3318 53.2717 45.0072L63.1716 37.7441C64.7477 36.5877 65.376 34.6393 64.7718 32.7804C64.1679 30.9211 62.5144 29.714 60.5597 29.705L48.2812 29.6481C47.732 29.6455 47.2474 29.2936 47.0754 28.7722L43.2271 17.112C42.6144 15.2557 40.9557 14.0565 39.0009 14.0562C37.0462 14.0562 35.3872 15.2557 34.7745 17.1117L33.0399 22.3654C32.765 23.1977 33.2168 24.0955 34.0494 24.3701C34.8819 24.6455 35.7793 24.1931 36.0544 23.3606L37.789 18.107C38.0573 17.294 38.7843 17.2308 39.0009 17.2308C39.2173 17.2308 39.9443 17.294 40.2125 18.107L44.0609 29.7674C44.6614 31.5862 46.3514 32.814 48.2664 32.823L60.5449 32.8798C61.401 32.8838 61.6859 33.5558 61.7525 33.7616C61.8195 33.9674 61.984 34.6782 61.2938 35.1846L51.3937 42.4477C49.8495 43.5808 49.204 45.5675 49.7873 47.3919L53.5288 59.0907C53.7897 59.9063 53.2386 60.3849 53.0635 60.5118C52.8883 60.6391 52.2632 61.0155 51.5682 60.5153L41.6009 53.3423C40.0459 52.2236 37.9565 52.2236 36.4015 53.3423L26.4323 60.5166C25.7373 61.0166 25.1119 60.6404 24.937 60.5134C24.7619 60.3862 24.2109 59.9079 24.4714 59.0925L28.2119 47.3919C28.7952 45.5678 28.1494 43.5811 26.6055 42.448L16.7059 35.1848C16.0157 34.6785 16.1802 33.9674 16.2472 33.7618C16.3141 33.556 16.599 32.8841 17.4548 32.8801L29.7341 32.8232C30.6105 32.819 31.3179 32.1052 31.314 31.2285C31.3097 30.3545 30.5999 29.6486 29.7267 29.6486C29.7243 29.6486 29.7216 29.6486 29.7193 29.6486L17.44 29.7055C15.4853 29.7145 13.8319 30.9217 13.2279 32.7809C12.6239 34.6401 13.252 36.5885 14.8279 37.7449L24.7275 45.008C25.1701 45.3329 25.3553 45.9025 25.1881 46.4255L21.4479 58.1261C20.8527 59.988 21.49 61.9335 23.0714 63.0822C23.8651 63.6586 24.7757 63.947 25.6868 63.947C26.5913 63.947 27.4963 63.6626 28.287 63.0938L38.256 55.9196C38.7017 55.5987 39.3009 55.5987 39.7467 55.9196L49.714 63.0925C51.3008 64.2343 53.3479 64.2301 54.9296 63.0809C56.5113 61.9319 57.1484 59.9864 56.5529 58.1243L52.8111 46.4247Z" fill="#272626"/>
<path d="M38.9999 0C17.4953 0 0 17.4953 0 38.9999C0 60.5044 17.4953 77.9997 38.9999 77.9997C39.8763 77.9997 40.5872 77.2889 40.5872 76.4125C40.5872 75.536 39.8763 74.8252 38.9999 74.8252C19.2458 74.8254 3.17457 58.7542 3.17457 38.9999C3.17457 19.2456 19.2458 3.17457 38.9999 3.17457C58.7539 3.17457 74.8252 19.2458 74.8252 38.9999C74.8252 51.296 68.6295 62.5927 58.2513 69.2186C57.5124 69.6903 57.2957 70.6718 57.7674 71.4107C58.2391 72.1495 59.2203 72.3662 59.9594 71.8945C71.2556 64.6824 77.9997 52.3854 77.9997 39.0001C78 17.4953 60.5047 0 38.9999 0Z" fill="#272626"/>
</svg>
