<svg width="24" height="24" fill="none" xmlns="http://www.w3.org/2000/svg"><g clip-path="url(#clip0)" fill="#A9A8A8"><path d="M14.813 12.188a.469.469 0 100 .937.469.469 0 000-.938z"/><path d="M4.79 17.334L.102 23.24A.468.468 0 00.47 24h23.063a.469.469 0 00.367-.76l-4.688-5.906a.468.468 0 00-.367-.178h-4.106l3.506-5.498A7.468 7.468 0 0019.5 7.5C19.5 3.365 16.136 0 12 0 7.866 0 4.5 3.365 4.5 7.5c0 1.487.435 2.925 1.257 4.158l3.506 5.498H5.157a.469.469 0 00-.367.178zm-1.75 3.713h2.834l-1.6 2.015H1.44l1.6-2.015zm6.82-2.953l1.286 2.015H7.815l1.6-2.015h.446zm4.28 0h.447l1.6 2.015h-3.332l1.285-2.015zm2.79 2.953l1.6 2.015H5.47l1.6-2.015h9.86zm2.797 2.015l-1.6-2.015h2.835l1.6 2.015h-2.835zm.49-2.953h-2.834l-1.6-2.015h2.835l1.6 2.015zM6.54 11.142A6.534 6.534 0 015.438 7.5 6.57 6.57 0 0112.001.937 6.57 6.57 0 0118.563 7.5a6.535 6.535 0 01-1.102 3.642l-.005.008L12 19.706a707195.802 707195.802 0 00-5.461-8.564zm1.677 6.952l-1.6 2.015H3.784l1.6-2.015h2.834z"/><path d="M12 12.188A4.688 4.688 0 0016.688 7.5 4.693 4.693 0 0012 2.812 4.693 4.693 0 007.312 7.5 4.688 4.688 0 0012 12.188zm0-8.438A3.75 3.75 0 118.25 7.5 3.754 3.754 0 0112 3.75zm1.975 10.037a.469.469 0 00-.644.16L11.6 16.82a.469.469 0 00.803.484l1.732-2.874a.469.469 0 00-.16-.644z"/></g><defs><clipPath id="clip0"><path fill="#fff" d="M0 0h24v24H0z"/></clipPath></defs></svg>