<svg width="24" height="24" viewBox="0 0 24 24" fill="none" xmlns="http://www.w3.org/2000/svg">
<g clip-path="url(#clip0)">
<path d="M14.8125 12.1875C14.5538 12.1875 14.3438 12.3975 14.3438 12.6562C14.3438 12.915 14.5538 13.125 14.8125 13.125C15.0712 13.125 15.2812 12.915 15.2812 12.6562C15.2812 12.3975 15.0712 12.1875 14.8125 12.1875Z" fill="#d12229"/>
<path d="M4.78958 17.3337L0.102081 23.2399C-0.00979637 23.3807 -0.0310366 23.5732 0.0471494 23.735C0.125335 23.8971 0.289398 24 0.469208 24H23.5317C23.7115 24 23.8756 23.8971 23.9538 23.735C24.0321 23.5732 24.0107 23.3807 23.8988 23.2399L19.2113 17.3337C19.1225 17.2216 18.9872 17.1562 18.8442 17.1562H14.7381L18.2436 11.658C19.0659 10.4251 19.5005 8.98737 19.5005 7.5C19.5005 3.36456 16.1361 0 12.0005 0C7.86484 0 4.50046 3.36456 4.50046 7.5C4.50046 8.98737 4.93497 10.4249 5.75729 11.658L9.26285 17.1562H5.15671C5.0137 17.1562 4.87857 17.2216 4.78958 17.3337ZM3.03946 21.0469H5.87375L4.27414 23.0625H1.43967L3.03946 21.0469ZM9.86069 18.0938L11.1457 20.1094H7.81467L9.41446 18.0938H9.86069ZM14.1404 18.0938H14.5866L16.1862 20.1094H12.8554L14.1404 18.0938ZM16.9304 21.0469L18.53 23.0625H5.47092L7.07071 21.0469H16.9304ZM19.727 23.0625L18.1272 21.0469H20.9616L22.5612 23.0625H19.727ZM20.2175 20.1094H17.3832L15.7834 18.0938H18.6179L20.2175 20.1094ZM6.53989 11.1416C5.819 10.0624 5.43796 8.80316 5.43796 7.5C5.43796 3.88147 8.38193 0.9375 12.0005 0.9375C15.619 0.9375 18.563 3.88147 18.563 7.5C18.563 8.80316 18.1819 10.0624 17.4612 11.1416C17.4592 11.1443 17.4576 11.1471 17.4557 11.1498C17.1479 11.6327 12.2376 19.3345 12.0005 19.7062C11.4041 18.7707 7.15256 12.1024 6.5452 11.1498C6.54355 11.1471 6.54172 11.1443 6.53989 11.1416ZM8.2175 18.0938L6.61789 20.1094H3.78342L5.38321 18.0938H8.2175Z" fill="#d12229"/>
<path d="M12 12.1875C14.5734 12.1875 16.6875 10.1036 16.6875 7.5C16.6875 4.91528 14.5847 2.8125 12 2.8125C9.41528 2.8125 7.3125 4.91528 7.3125 7.5C7.3125 10.1043 9.42737 12.1875 12 12.1875ZM12 3.75C14.0678 3.75 15.75 5.43219 15.75 7.5C15.75 9.58704 14.0543 11.25 12 11.25C9.94519 11.25 8.25 9.58704 8.25 7.5C8.25 5.43219 9.93219 3.75 12 3.75Z" fill="#d12229"/>
<path d="M13.9746 13.7871C13.753 13.6534 13.4648 13.7248 13.3312 13.9466L11.5986 16.821C11.465 17.0427 11.5364 17.3307 11.7581 17.4644C11.9808 17.5986 12.2684 17.5257 12.4015 17.3049L14.1341 14.4305C14.2678 14.2088 14.1963 13.9208 13.9746 13.7871Z" fill="#d12229"/>
</g>
<defs>
<clipPath id="clip0">
<rect width="24" height="24" fill="white"/>
</clipPath>
</defs>
</svg>
