<svg width="80" height="80" viewBox="0 0 80 80" fill="none" xmlns="http://www.w3.org/2000/svg">
<path d="M70.2175 0H9.78217C7.17076 0 5.04639 2.12453 5.04639 4.73578V75.2641C5.04639 77.8755 7.17092 79.9998 9.78217 79.9998H70.2175C72.8289 79.9998 74.9533 77.8753 74.9533 75.2641V4.73578C74.9533 2.12453 72.8289 0 70.2175 0ZM8.83498 4.73578C8.83498 4.21359 9.25982 3.78859 9.78217 3.78859H70.2175C70.7397 3.78859 71.1647 4.21344 71.1647 4.73578V21.1577H8.83498V4.73578ZM27.0858 76.2111H9.78217C9.25998 76.2113 8.83498 75.7862 8.83498 75.2641V52.4681H27.0858V76.2111ZM27.0858 48.6795H8.83498V24.9464H27.0858V48.6795ZM49.1251 76.2114H30.8744V52.4681H49.1251V76.2114ZM49.1251 48.6795H30.8744V24.9464H49.1251V48.6795ZM71.1647 75.2641C71.1647 75.7862 70.7395 76.2114 70.2175 76.2114H52.9137V24.9464H71.1647V75.2641Z" fill="#272626"/>
<path d="M22.6441 34.9188H19.855V32.1297C19.855 31.0835 19.0069 30.2354 17.9606 30.2354C16.9144 30.2354 16.0662 31.0835 16.0662 32.1297V34.9188H13.2772C12.2309 34.9188 11.3828 35.7671 11.3828 36.8132C11.3828 37.8592 12.2309 38.7075 13.2772 38.7075H16.0662V41.4967C16.0662 42.543 16.9144 43.3911 17.9606 43.3911C19.0069 43.3911 19.855 42.543 19.855 41.4967V38.7075H22.6441C23.6903 38.7075 24.5384 37.8592 24.5384 36.8132C24.5384 35.7671 23.6903 34.9188 22.6441 34.9188Z" fill="#272626"/>
<path d="M44.7772 34.9188H35.223C34.1767 34.9188 33.3286 35.767 33.3286 36.8131C33.3286 37.8592 34.1767 38.7075 35.223 38.7075H44.7772C45.8233 38.7075 46.6716 37.8592 46.6716 36.8131C46.6716 35.767 45.8233 34.9188 44.7772 34.9188Z" fill="#272626"/>
<path d="M20.6394 64.3447L22.9261 62.058C23.6658 61.3183 23.6658 60.1187 22.9261 59.3787C22.1864 58.6392 20.9869 58.6392 20.2469 59.3787L17.9602 61.6655L15.6734 59.3787C14.9337 58.6392 13.7342 58.6392 12.9942 59.3787C12.2545 60.1184 12.2545 61.318 12.9942 62.058L15.2811 64.3447L12.9944 66.6314C12.2547 67.3711 12.2547 68.5706 12.9944 69.3103C13.3644 69.6802 13.8491 69.8652 14.3339 69.8652C14.8186 69.8652 15.3036 69.6802 15.6734 69.3103L17.9602 67.0236L20.2469 69.3103C20.6169 69.6802 21.1016 69.8652 21.5864 69.8652C22.0713 69.8652 22.5561 69.6802 22.9259 69.3103C23.6656 68.5706 23.6656 67.3711 22.9259 66.6314L20.6394 64.3447Z" fill="#272626"/>
<path d="M44.9649 59.3789C44.2249 58.6393 43.0258 58.6393 42.2856 59.3789L35.0331 66.6314C34.2936 67.3711 34.2936 68.5706 35.0333 69.3106C35.4033 69.6804 35.888 69.8654 36.3728 69.8654C36.8577 69.8654 37.3425 69.6803 37.7124 69.3106L44.9649 62.0581C45.7045 61.3182 45.7045 60.1187 44.9649 59.3789Z" fill="#272626"/>
<path d="M36.3728 62.3348C37.2652 62.3348 37.9887 61.6114 37.9887 60.7189C37.9887 59.8264 37.2652 59.103 36.3728 59.103C35.4803 59.103 34.7568 59.8264 34.7568 60.7189C34.7568 61.6114 35.4803 62.3348 36.3728 62.3348Z" fill="#272626"/>
<path d="M43.6264 69.5861C44.5187 69.5861 45.242 68.8628 45.242 67.9705C45.242 67.0782 44.5187 66.3549 43.6264 66.3549C42.7341 66.3549 42.0107 67.0782 42.0107 67.9705C42.0107 68.8628 42.7341 69.5861 43.6264 69.5861Z" fill="#272626"/>
<path d="M66.8254 45.3786H57.1424C56.0963 45.3786 55.248 46.2267 55.248 47.273C55.248 48.3191 56.0963 49.1673 57.1424 49.1673H66.8254C67.8715 49.1673 68.7198 48.3191 68.7198 47.273C68.7198 46.2267 67.8716 45.3786 66.8254 45.3786Z" fill="#272626"/>
<path d="M66.8254 51.9905H57.1424C56.0963 51.9905 55.248 52.8388 55.248 53.8849C55.248 54.931 56.0963 55.7792 57.1424 55.7792H66.8254C67.8715 55.7792 68.7198 54.931 68.7198 53.8849C68.7198 52.8388 67.8716 51.9905 66.8254 51.9905Z" fill="#272626"/>
</svg>
