<svg width="64" height="64" viewBox="0 0 64 64" fill="none" xmlns="http://www.w3.org/2000/svg">
<path d="M56.174 0H7.82573C5.73661 0 4.03711 1.69963 4.03711 3.78863V60.2113C4.03711 62.3004 5.73673 63.9999 7.82573 63.9999H56.174C58.2631 63.9999 59.9626 62.3003 59.9626 60.2113V3.78863C59.9626 1.69963 58.2631 0 56.174 0ZM7.06798 3.78863C7.06798 3.37087 7.40786 3.03087 7.82573 3.03087H56.174C56.5917 3.03087 56.9317 3.37075 56.9317 3.78863V16.9261H7.06798V3.78863ZM21.6686 60.9689H7.82573C7.40798 60.969 7.06798 60.629 7.06798 60.2113V41.9745H21.6686V60.9689ZM21.6686 38.9436H7.06798V19.9571H21.6686V38.9436ZM39.3001 60.9691H24.6995V41.9745H39.3001V60.9691ZM39.3001 38.9436H24.6995V19.9571H39.3001V38.9436ZM56.9317 60.2113C56.9317 60.629 56.5916 60.9691 56.174 60.9691H42.331V19.9571H56.9317V60.2113Z" fill="#767676"/>
<path d="M18.1145 27.935H15.8832V25.7037C15.8832 24.8667 15.2047 24.1882 14.3677 24.1882C13.5307 24.1882 12.8522 24.8667 12.8522 25.7037V27.935H10.621C9.78397 27.935 9.10547 28.6136 9.10547 29.4505C9.10547 30.2873 9.78397 30.966 10.621 30.966H12.8522V33.1973C12.8522 34.0343 13.5307 34.7128 14.3677 34.7128C15.2047 34.7128 15.8832 34.0343 15.8832 33.1973V30.966H18.1145C18.9515 30.966 19.63 30.2873 19.63 29.4505C19.63 28.6136 18.9515 27.935 18.1145 27.935Z" fill="#767676"/>
<path d="M35.821 27.9351H28.1776C27.3406 27.9351 26.6621 28.6137 26.6621 29.4506C26.6621 30.2874 27.3406 30.9661 28.1776 30.9661H35.821C36.6579 30.9661 37.3365 30.2874 37.3365 29.4506C37.3365 28.6137 36.6579 27.9351 35.821 27.9351Z" fill="#767676"/>
<path d="M16.5111 51.4758L18.3405 49.6464C18.9322 49.0547 18.9322 48.095 18.3405 47.503C17.7487 46.9114 16.7891 46.9114 16.1971 47.503L14.3677 49.3324L12.5384 47.503C11.9466 46.9114 10.987 46.9114 10.395 47.503C9.80323 48.0948 9.80323 49.0544 10.395 49.6464L12.2245 51.4758L10.3951 53.3052C9.80336 53.8969 9.80336 54.8566 10.3951 55.4483C10.6911 55.7442 11.0789 55.8922 11.4667 55.8922C11.8545 55.8922 12.2425 55.7442 12.5384 55.4483L14.3677 53.6189L16.1971 55.4483C16.4931 55.7442 16.8809 55.8922 17.2687 55.8922C17.6566 55.8922 18.0445 55.7442 18.3404 55.4483C18.9321 54.8566 18.9321 53.8969 18.3404 53.3052L16.5111 51.4758Z" fill="#767676"/>
<path d="M35.9711 47.5032C35.3791 46.9115 34.4199 46.9115 33.8277 47.5032L28.0257 53.3052C27.4341 53.8969 27.4341 54.8566 28.0259 55.4486C28.3219 55.7444 28.7096 55.8924 29.0975 55.8924C29.4854 55.8924 29.8732 55.7443 30.1691 55.4486L35.9711 49.6465C36.5629 49.0547 36.5629 48.095 35.9711 47.5032Z" fill="#767676"/>
<path d="M29.0974 49.8678C29.8114 49.8678 30.3902 49.2891 30.3902 48.5751C30.3902 47.8611 29.8114 47.2823 29.0974 47.2823C28.3835 47.2823 27.8047 47.8611 27.8047 48.5751C27.8047 49.2891 28.3835 49.8678 29.0974 49.8678Z" fill="#767676"/>
<path d="M34.9019 55.6689C35.6157 55.6689 36.1944 55.0902 36.1944 54.3764C36.1944 53.6625 35.6157 53.0839 34.9019 53.0839C34.1881 53.0839 33.6094 53.6625 33.6094 54.3764C33.6094 55.0902 34.1881 55.6689 34.9019 55.6689Z" fill="#767676"/>
<path d="M53.4611 36.3029H45.7147C44.8778 36.3029 44.1992 36.9814 44.1992 37.8184C44.1992 38.6552 44.8778 39.3339 45.7147 39.3339H53.4611C54.298 39.3339 54.9766 38.6552 54.9766 37.8184C54.9766 36.9814 54.2981 36.3029 53.4611 36.3029Z" fill="#767676"/>
<path d="M53.4611 41.5924H45.7147C44.8778 41.5924 44.1992 42.271 44.1992 43.1079C44.1992 43.9448 44.8778 44.6234 45.7147 44.6234H53.4611C54.298 44.6234 54.9766 43.9448 54.9766 43.1079C54.9766 42.271 54.2981 41.5924 53.4611 41.5924Z" fill="#767676"/>
</svg>
