<svg width="23" height="23" viewBox="0 0 23 23" fill="none" xmlns="http://www.w3.org/2000/svg">
<path d="M19.209 11.2839C18.8354 11.2839 18.5461 11.5719 18.5461 11.9473V21.0085H13.8455V17.3084C13.8455 16.9613 13.5563 16.6579 13.2066 16.6579H9.80784C9.43398 16.6579 9.13287 16.9613 9.13287 17.3084V21.0085H4.44415V12.2481C4.44415 11.8984 4.15515 11.6079 3.78128 11.6079C3.43185 11.6079 3.14258 11.8984 3.14258 12.2481V21.6719C3.14258 22.0216 3.43185 22.3121 3.78128 22.3121H9.80784C10.1573 22.3121 10.4465 22.0216 10.4465 21.6719V17.9718H12.5437V21.6719C12.5437 22.0216 12.8329 22.3121 13.2066 22.3121H19.209C19.5584 22.3121 19.8477 22.0216 19.8477 21.6719V11.9473C19.8477 11.572 19.5584 11.2839 19.209 11.2839Z" fill="#A9A8A8"/>
<path d="M22.8123 11.8008L17.5815 6.5477V2.96592C17.5815 2.59307 17.2801 2.30512 16.9065 2.30512C16.5568 2.30512 16.2676 2.59311 16.2676 2.96592V5.2338L11.9528 0.893468C11.8205 0.759751 11.6635 0.687744 11.5069 0.687744C11.3261 0.687744 11.1693 0.762307 11.0369 0.893468L0.201472 11.7288C-0.0584821 11.9885 -0.0756946 12.4051 0.201472 12.6442C0.442409 12.9219 0.857426 12.9039 1.11738 12.6442L11.5069 2.27938L21.8722 12.7419C21.9802 12.8499 22.1373 12.9116 22.3423 12.9116C22.523 12.9116 22.6796 12.8499 22.8123 12.7419C23.0535 12.5002 23.0715 12.0631 22.8123 11.8008Z" fill="#A9A8A8"/>
</svg>
