<svg width="23" height="23" xmlns="http://www.w3.org/2000/svg">

 <g>
  <title>background</title>
  <rect fill="none" id="canvas_background" height="25" width="25" y="-1" x="-1"/>
 </g>
 <g>
  <title>Layer 1</title>
  <path id="svg_1" fill="#d12229" d="m19.209,11.2839c-0.3736,0 -0.662899,0.288 -0.662899,0.6634l0,9.061199l-4.700601,0l0,-3.7001c0,-0.347099 -0.2892,-0.650499 -0.6389,-0.650499l-3.39876,0c-0.37386,0 -0.674971,0.3034 -0.674971,0.650499l0,3.7001l-4.68872,0l0,-8.760399c0,-0.3497 -0.289,-0.640201 -0.66287,-0.640201c-0.34943,0 -0.6387,0.290501 -0.6387,0.640201l0,9.4238c0,0.349701 0.28927,0.6402 0.6387,0.6402l6.02656,0c0.34946,0 0.638659,-0.290499 0.638659,-0.6402l0,-3.7001l2.0972,0l0,3.7001c0,0.349701 0.2892,0.6402 0.6629,0.6402l6.002399,0c0.3494,0 0.6387,-0.290499 0.6387,-0.6402l0,-9.7246c0,-0.3753 -0.289301,-0.6634 -0.6387,-0.6634z"/>
  <path id="svg_2" fill="#d12229" d="m22.8123,11.8008l-5.230801,-5.2531l0,-3.58178c0,-0.37285 -0.301399,-0.6608 -0.674999,-0.6608c-0.349699,0 -0.638901,0.28799 -0.638901,0.6608l0,2.26788l-4.314799,-4.340332c-0.132299,-0.133717 -0.2893,-0.205724 -0.4459,-0.205724c-0.180799,0 -0.3376,0.074563 -0.47,0.205724l-10.835428,10.835332c-0.259954,0.2597 -0.277167,0.6763 0,0.915401c0.240937,0.277699 0.655954,0.2597 0.915908,0l10.38952,-10.36482l10.3653,10.46252c0.108,0.108 0.2651,0.1697 0.4701,0.1697c0.1807,0 0.337299,-0.0617 0.469999,-0.1697c0.241199,-0.2417 0.259201,-0.678801 0,-0.9411z"/>
 </g>
</svg>