<svg width="14" height="14" viewBox="0 0 14 14" fill="none" xmlns="http://www.w3.org/2000/svg">
<g clip-path="url(#clip0)">
<path fill-rule="evenodd" clip-rule="evenodd" d="M10.5 3.5C10.7761 3.77614 10.7761 4.22386 10.5 4.5L4.5 10.5C4.22386 10.7761 3.77614 10.7761 3.5 10.5C3.22386 10.2239 3.22386 9.77614 3.5 9.5L9.5 3.5C9.77614 3.22386 10.2239 3.22386 10.5 3.5Z" fill="black"/>
<path fill-rule="evenodd" clip-rule="evenodd" d="M10.5 10.5C10.2239 10.7761 9.77614 10.7761 9.5 10.5L3.5 4.5C3.22386 4.22386 3.22386 3.77614 3.5 3.5C3.77614 3.22386 4.22386 3.22386 4.5 3.5L10.5 9.5C10.7761 9.77614 10.7761 10.2239 10.5 10.5Z" fill="black"/>
</g>
<defs>
<clipPath id="clip0">
<rect width="9.8995" height="9.8995" fill="white" transform="translate(7) rotate(45)"/>
</clipPath>
</defs>
</svg>
