<svg width="16" height="16" viewBox="0 0 16 16" fill="none" xmlns="http://www.w3.org/2000/svg">
<g clip-path="url(#clip0)">
<path d="M15.838 8.38066L11.276 5.64332L11.8454 5.28132C11.9414 5.21998 11.9994 5.11398 11.9994 4.99998C11.9994 4.88598 11.9414 4.77998 11.8454 4.71863L8.1787 2.38535C8.06935 2.31601 7.93004 2.31601 7.8207 2.38535L4.15404 4.7187C4.05801 4.78001 4.00001 4.88601 4.00001 5.00001C4.00001 5.11401 4.05801 5.22001 4.15401 5.28135L4.72335 5.64401L0.162005 8.38066C0.0620053 8.44066 5.27144e-06 8.54866 5.27144e-06 8.66532C-0.000650979 8.78198 0.0600053 8.89066 0.160005 8.95132L7.82667 13.618C7.88001 13.6506 7.94001 13.6666 8.00001 13.6666C8.06001 13.6666 8.12001 13.6506 8.17335 13.618L15.84 8.95135C15.94 8.89001 16 8.78201 16 8.66535C15.9994 8.54866 15.938 8.44066 15.838 8.38066ZM8.00001 3.06201L11.046 5.00001L8.00001 6.93801L4.95401 5.00001L8.00001 3.06201ZM5.35201 6.04401L7.82067 7.61466C7.87532 7.64932 7.93801 7.66666 8.00001 7.66666C8.06201 7.66666 8.12467 7.64932 8.17867 7.61466L10.6473 6.04332L11.0867 6.30732L8.00001 8.27201L4.91266 6.30735L5.35201 6.04401ZM0.978006 8.66735L4.27401 6.6907L7.37935 8.6667L4.24869 10.6587L0.978006 8.66735ZM8.00001 12.9427L4.88335 11.0453L8.00001 9.06201L11.1167 11.0454L8.00001 12.9427ZM11.7514 10.6594L8.6207 8.6667L11.726 6.6907L15.022 8.66804L11.7514 10.6594Z" fill="#d12229"/>
</g>
<defs>
<clipPath id="clip0">
<rect width="16" height="16" fill="white"/>
</clipPath>
</defs>
</svg>
