<svg width="24" height="24" viewBox="0 0 24 24" fill="none" xmlns="http://www.w3.org/2000/svg">
<path d="M7.09948 24C6.74934 24 6.46073 23.7505 6.41273 23.4066L6.40438 23.3497C6.23924 22.2181 6.02611 20.0454 6.46275 18.2025L8.11805 11.1859C7.9821 10.8477 7.72413 10.0688 7.72413 9.0507C7.72413 6.84413 9.06941 5.11595 10.7867 5.11595C12.1623 5.11595 13.086 6.12098 13.086 7.61689C13.086 8.46456 12.7636 9.51029 12.4218 10.6175C12.2384 11.213 12.0482 11.8278 11.9086 12.4166C11.7945 12.9001 11.8872 13.3617 12.1691 13.7181C12.4697 14.0979 12.949 14.3152 13.4831 14.3152C15.5353 14.3152 17.1433 11.4647 17.1433 7.82475C17.1433 5.02896 15.2405 3.29235 12.1774 3.29235C8.29892 3.29235 6.20544 6.27834 6.20544 9.08775C6.20544 10.0219 6.44249 10.7368 6.9521 11.336C7.26365 11.707 7.39442 11.9946 7.24752 12.5427C7.21209 12.6761 7.15266 12.9101 7.09697 13.1331L6.9782 13.5994C6.81979 14.209 6.206 14.5206 5.61833 14.2793C3.72387 13.5071 2.59326 11.4428 2.59326 8.75909C2.5931 4.45376 6.31326 0 12.5379 0C18.09 0 21.4074 4.10622 21.4074 8.07591C21.4074 13.6144 18.1958 17.6341 13.7712 17.6341C12.6661 17.6341 11.5605 17.223 10.8055 16.5817C10.5663 17.5263 10.2277 18.858 10.125 19.2327C9.60975 21.1021 8.24468 22.9747 7.68197 23.6931C7.52048 23.9016 7.31829 24 7.09948 24ZM10.7868 6.15803C9.65361 6.15803 8.76629 7.42832 8.76629 9.05078C8.76629 10.1444 9.12786 10.8999 9.13208 10.9072L9.21339 11.0745L9.17172 11.2574L7.47686 18.4423C7.22571 19.5036 7.17828 20.8917 7.33621 22.412C7.95259 21.545 8.76799 20.2362 9.12073 18.956C9.27809 18.3819 10.0372 15.373 10.0445 15.3422L10.378 14.0214L11.0115 15.227C11.3638 15.8976 12.4923 16.5916 13.7714 16.5916C17.6536 16.5916 20.3655 13.0898 20.3655 8.07542C20.3655 4.61793 17.4379 1.04159 12.5382 1.04159C6.39733 1.04159 3.63542 5.55421 3.63542 8.75852C3.63542 11.0197 4.48837 12.672 5.97641 13.2998L6.08634 12.8783C6.14366 12.6501 6.20463 12.4094 6.24111 12.2733C6.26454 12.1853 6.26713 12.1529 6.2677 12.1441C6.26356 12.1509 6.2463 12.1149 6.15623 12.0081C5.48877 11.2224 5.16368 10.2664 5.16368 9.08726C5.16368 5.18948 8.17885 2.24987 12.1777 2.24987C15.8275 2.24987 18.1857 4.4382 18.1857 7.82435C18.1857 12.1186 16.1646 15.3568 13.4835 15.3568C12.6285 15.3568 11.8516 14.9958 11.3524 14.3648C10.8684 13.7531 10.7064 12.9757 10.895 12.176C11.0424 11.5533 11.2378 10.9213 11.4269 10.3096C11.7447 9.27956 12.0454 8.3068 12.0454 7.61648C12.0441 7.17814 11.9216 6.15803 10.7868 6.15803Z" fill="#d12229"/>
</svg>
