<svg width="24" height="24" fill="none" xmlns="http://www.w3.org/2000/svg"><path d="M7.1 24a.686.686 0 01-.687-.593l-.009-.057c-.165-1.132-.378-3.305.059-5.148l1.655-7.016a5.864 5.864 0 01-.394-2.135c0-2.207 1.345-3.935 3.063-3.935 1.375 0 2.299 1.005 2.299 2.5 0 .849-.322 1.894-.664 3.002-.184.595-.374 1.21-.513 1.799-.115.483-.022.945.26 1.301.3.38.78.597 1.314.597 2.052 0 3.66-2.85 3.66-6.49 0-2.796-1.902-4.533-4.966-4.533-3.878 0-5.972 2.986-5.972 5.796 0 .934.237 1.649.747 2.248.312.371.442.659.296 1.207-.036.133-.095.367-.151.59l-.119.466a.987.987 0 01-1.36.68c-1.894-.772-3.025-2.836-3.025-5.52C2.593 4.454 6.313 0 12.538 0c5.552 0 8.87 4.106 8.87 8.076 0 5.538-3.212 9.558-7.637 9.558-1.105 0-2.21-.411-2.966-1.052-.239.944-.577 2.276-.68 2.65-.515 1.87-1.88 3.743-2.443 4.461-.162.209-.364.307-.583.307zm3.687-17.842c-1.133 0-2.02 1.27-2.02 2.893 0 1.093.36 1.849.365 1.856l.081.168-.041.182-1.695 7.185c-.251 1.062-.299 2.45-.14 3.97.616-.867 1.431-2.176 1.784-3.456.157-.574.916-3.583.923-3.614l.334-1.32.633 1.205c.353.67 1.481 1.365 2.76 1.365 3.883 0 6.595-3.502 6.595-8.517 0-3.457-2.928-7.033-7.828-7.033-6.14 0-8.903 4.512-8.903 7.717 0 2.26.853 3.913 2.341 4.54l.11-.42c.058-.229.119-.47.155-.606a.707.707 0 00.027-.129c-.004.007-.022-.03-.112-.136-.667-.786-.992-1.742-.992-2.92 0-3.899 3.015-6.838 7.014-6.838 3.65 0 6.008 2.188 6.008 5.574 0 4.295-2.021 7.533-4.703 7.533-.854 0-1.631-.361-2.13-.992-.485-.612-.647-1.39-.458-2.189.147-.623.343-1.255.532-1.866.318-1.03.618-2.003.618-2.694 0-.438-.123-1.458-1.258-1.458z" fill="#A9A8A8"/></svg>