<svg width="17" height="5" viewBox="0 0 17 5" fill="none" xmlns="http://www.w3.org/2000/svg">
<path d="M2.72 4.44C3.776 4.44 4.72 3.576 4.72 2.296C4.72 1 3.776 0.136 2.72 0.136C1.648 0.136 0.72 1 0.72 2.296C0.72 3.576 1.648 4.44 2.72 4.44ZM8.46188 4.44C9.51788 4.44 10.4619 3.576 10.4619 2.296C10.4619 1 9.51788 0.136 8.46188 0.136C7.38988 0.136 6.46188 1 6.46188 2.296C6.46188 3.576 7.38988 4.44 8.46188 4.44ZM14.2038 4.44C15.2598 4.44 16.2038 3.576 16.2038 2.296C16.2038 1 15.2598 0.136 14.2038 0.136C13.1318 0.136 12.2038 1 12.2038 2.296C12.2038 3.576 13.1318 4.44 14.2038 4.44Z" fill="#A9A8A8"/>
</svg>
