<svg width="74" height="74" viewBox="0 0 74 74" fill="none" xmlns="http://www.w3.org/2000/svg">
<g clip-path="url(#clip0)">
<path d="M65.4776 52.2224C65.0717 52.0542 64.6046 52.1471 64.2938 52.4577L52.424 64.3275C52.1134 64.6383 52.0205 65.1054 52.1888 65.5113C52.3567 65.9172 52.753 66.1817 53.1922 66.1817H65.062C65.662 66.1817 66.1482 65.6955 66.1482 65.0956V53.2258C66.148 52.7866 65.8834 52.3905 65.4776 52.2224ZM55.814 64.0096L63.9756 55.848V64.0096H55.814Z" fill="#272626"/>
<path d="M73.3297 34.8129C72.9238 34.6446 72.4567 34.7376 72.146 35.0482L68.893 38.3011V16.1833C68.893 15.5834 68.4066 15.0972 67.8068 15.0972H59.4614L62.4908 12.0678C62.4913 12.0674 62.4917 12.0668 62.4921 12.0663L65.4111 9.14738C66.0365 8.522 66.3809 7.69007 66.3809 6.80554C66.3809 5.92101 66.0365 5.08937 65.4111 4.4637L62.0357 1.08831C61.4103 0.462918 60.5784 0.1185 59.6938 0.1185C58.8093 0.1185 57.9775 0.462918 57.352 1.08831L54.4316 4.00871L50.9027 7.53759L43.3433 15.097H9.62869V4.35183C9.62869 3.75188 9.14234 3.26567 8.54254 3.26567C3.83225 3.26596 0 7.09793 0 11.8085V57.9409C0 58.0211 0.00925002 58.0992 0.0257266 58.1744C0.17575 60.1731 1.04048 62.0302 2.48565 63.4399C4.03041 64.9465 6.0696 65.7763 8.22775 65.7763H41.4177L35.1668 72.0271C34.8562 72.3379 34.7633 72.8048 34.9314 73.2108C35.0995 73.6167 35.4956 73.8813 35.9349 73.8813H72.914C73.5138 73.8813 74.0002 73.3951 74.0002 72.7952V35.8163C74.0002 35.3771 73.7354 34.9809 73.3297 34.8129ZM58.8884 2.62453C59.3324 2.18024 60.0558 2.18024 60.4998 2.62453L63.8753 6.00007C64.3196 6.44421 64.3196 7.1673 63.8753 7.61159L61.7231 9.76396L56.7359 4.77689L58.8884 2.62453ZM55.1998 6.31298L60.1868 11.2999L58.1939 13.2928L53.2071 8.30592L55.1998 6.31298ZM71.8281 48.0209H69.8242C69.2243 48.0209 68.738 48.5071 68.738 49.107C68.738 49.707 69.2243 50.1932 69.8242 50.1932H71.8281V53.4662H69.8242C69.2243 53.4662 68.738 53.9524 68.738 54.5524C68.738 55.1523 69.2243 55.6385 69.8242 55.6385H71.8281V58.9115H69.8242C69.2243 58.9115 68.738 59.3977 68.738 59.9976C68.738 60.5976 69.2243 61.0838 69.8242 61.0838H71.8281V64.3568H69.8242C69.2243 64.3568 68.738 64.8432 68.738 65.443C68.738 66.0429 69.2243 66.5291 69.8242 66.5291H71.8281V71.7094H38.557L49.5281 60.7385C49.9523 60.3141 49.9523 59.6266 49.5281 59.2024C49.4794 59.1537 49.427 59.1115 49.3723 59.0739C48.9494 58.7843 48.3675 58.8269 47.9918 59.2024L43.59 63.6043H8.22789C4.93373 63.6043 2.28186 61.0325 2.17751 57.7442C2.18373 57.5378 2.19977 57.3332 2.2255 57.1308C2.22564 57.1297 2.22579 57.1285 2.22593 57.1274C2.23807 57.0313 2.25267 56.9356 2.26929 56.8405C2.27117 56.8296 2.27319 56.8188 2.27507 56.808C2.29025 56.7231 2.3073 56.6387 2.32595 56.5546C2.33115 56.5312 2.33664 56.5078 2.34213 56.4845C2.35861 56.4134 2.37639 56.3427 2.39547 56.2723C2.40587 56.2342 2.41671 56.1964 2.42784 56.1584C2.44374 56.1032 2.46022 56.0482 2.4777 55.9937C2.49519 55.9392 2.51384 55.8853 2.53277 55.8314C2.54592 55.7936 2.55893 55.7559 2.5731 55.7185C2.59954 55.6474 2.62758 55.577 2.65649 55.5072C2.66473 55.4871 2.67282 55.4667 2.68135 55.4466C2.71849 55.3599 2.75708 55.2742 2.79784 55.1895C2.79958 55.1859 2.80117 55.1823 2.8029 55.1786C3.65246 53.4206 5.28639 52.1098 7.24725 51.7031C7.25274 51.7019 7.25823 51.7006 7.26372 51.6995C7.35362 51.6811 7.44439 51.6654 7.53573 51.6508C7.55091 51.6483 7.56608 51.6453 7.58155 51.643C7.66407 51.6304 7.74747 51.6206 7.83086 51.6112C7.85428 51.6086 7.87755 51.605 7.90111 51.6026C7.98161 51.5946 8.06284 51.5892 8.14406 51.5841C8.16979 51.5826 8.19552 51.5798 8.22124 51.5785C8.32762 51.5732 8.43486 51.5704 8.54254 51.5704C9.14234 51.5704 9.62869 51.0842 9.62869 50.4843V42.6089C9.62869 42.0089 9.14234 41.5227 8.54254 41.5227C7.94273 41.5227 7.45638 42.0089 7.45638 42.6089V49.4665C5.62228 49.6984 3.91984 50.5165 2.57743 51.8274C2.43622 51.9653 2.30239 52.1087 2.17202 52.2543V11.8085C2.17202 8.66624 4.45938 6.04776 7.45624 5.53063V16.1833V38.2644V38.2646C7.45624 38.8644 7.94259 39.3507 8.54239 39.3507C9.1422 39.3507 9.62855 38.8644 9.62855 38.2646V38.2644V17.2695H41.1711L35.1667 23.2739C34.7425 23.6982 34.7425 24.3858 35.1667 24.81C35.5909 25.234 36.2786 25.234 36.7026 24.81L44.5612 16.9514C44.5615 16.9511 44.5617 16.9508 44.562 16.9506L51.6708 9.84186L56.6575 14.8289L56.0725 15.414C56.072 15.4144 56.0714 15.4148 56.071 15.4153L34.1704 37.3161L29.1835 32.3292L33.5004 28.0124C33.9246 27.588 33.9246 26.9005 33.5004 26.4763C33.0762 26.0522 32.3885 26.0522 31.9645 26.4763L26.8794 31.5612C26.8522 31.5884 26.8268 31.6171 26.8029 31.6466C26.795 31.6564 26.7879 31.667 26.7804 31.6772C26.7651 31.6976 26.75 31.7181 26.736 31.7395C26.7281 31.752 26.7208 31.7647 26.7133 31.7775C26.7013 31.7978 26.6898 31.8183 26.6792 31.8393C26.6723 31.8529 26.6661 31.8666 26.6597 31.8807C26.65 31.902 26.6411 31.9237 26.6328 31.9453C26.6299 31.953 26.6262 31.9602 26.6234 31.9679L24.5073 37.9623L23.0646 42.0496C23.0456 42.1039 23.0318 42.1591 23.0216 42.2147H19.4094C18.8096 42.2147 18.3233 42.701 18.3233 43.3009C18.3233 43.9009 18.8096 44.3871 19.4094 44.3871H49.4885C50.0884 44.3871 50.5746 43.9009 50.5746 43.3009C50.5746 42.701 50.0884 42.2147 49.4885 42.2147H27.908L34.5319 39.8765C34.5374 39.8745 34.5426 39.8717 34.5481 39.8697C34.5738 39.8602 34.5991 39.8495 34.6241 39.8381C34.6341 39.8334 34.6441 39.8291 34.6538 39.8243C34.6798 39.8113 34.7053 39.797 34.7305 39.7817C34.7386 39.7768 34.747 39.7723 34.7549 39.7673C34.7811 39.7505 34.8065 39.7321 34.8315 39.7128C34.8377 39.708 34.8442 39.7038 34.8503 39.6989C34.8805 39.6746 34.9101 39.6484 34.9382 39.6204L57.2891 17.2696H66.7205V40.4736L51.184 56.0103C50.7598 56.4346 50.7598 57.1222 51.184 57.5464C51.2104 57.5728 51.238 57.5977 51.2665 57.6209C51.4657 57.7833 51.7089 57.8645 51.952 57.8645C52.1951 57.8645 52.4385 57.7833 52.6375 57.6209C52.666 57.5978 52.6936 57.5728 52.7201 57.5464C52.7205 57.5459 52.7201 57.5464 52.7205 57.5459L71.8281 38.4381V48.0209ZM32.1839 38.4014L29.0727 39.4997L26.9998 37.4269L28.0981 34.3157L32.1839 38.4014Z" fill="#272626"/>
</g>
<defs>
<clipPath id="clip0">
<rect width="74" height="74" fill="white"/>
</clipPath>
</defs>
</svg>
