<svg width="24" height="24" viewBox="0 0 24 24" fill="none" xmlns="http://www.w3.org/2000/svg">
<path d="M11.9999 19.5999C11.2657 19.5999 10.6685 20.1971 10.6685 20.9312C10.6685 21.6654 11.2657 22.2626 11.9999 22.2626C12.734 22.2626 13.3313 21.6654 13.3313 20.9312C13.3313 20.1971 12.734 19.5999 11.9999 19.5999ZM11.9999 21.3406C11.7741 21.3406 11.5905 21.1569 11.5905 20.9312C11.5905 20.7055 11.7741 20.5219 11.9999 20.5219C12.2256 20.5219 12.4092 20.7055 12.4092 20.9312C12.4091 21.1569 12.2255 21.3406 11.9999 21.3406Z" fill="#d12229"/>
<path d="M14.1843 1.896H11.8216C11.5528 1.896 11.335 2.11387 11.335 2.38265C11.335 2.65143 11.5529 2.86931 11.8216 2.86931H14.1843C14.453 2.86931 14.6709 2.65143 14.6709 2.38265C14.6709 2.11387 14.453 1.896 14.1843 1.896Z" fill="#d12229"/>
<path d="M10.3268 2.90557C10.609 2.90557 10.8377 2.67684 10.8377 2.39468C10.8377 2.11252 10.609 1.88379 10.3268 1.88379C10.0447 1.88379 9.81592 2.11252 9.81592 2.39468C9.81592 2.67684 10.0447 2.90557 10.3268 2.90557Z" fill="#d12229"/>
<path d="M17.6761 0H6.32288C5.47552 0 4.78613 0.689391 4.78613 1.53675V22.4632C4.78613 23.3106 5.47552 24 6.32288 24H17.6761C18.5234 24 19.2128 23.3106 19.2128 22.4632V1.53675C19.2129 0.689391 18.5235 0 17.6761 0ZM18.1884 22.4632C18.1884 22.7457 17.9586 22.9755 17.6761 22.9755H6.32288C6.04041 22.9755 5.81063 22.7457 5.81063 22.4632V1.53675C5.81063 1.25428 6.04041 1.0245 6.32288 1.0245H17.6761C17.9585 1.0245 18.1883 1.25428 18.1883 1.53675V22.4632H18.1884Z" fill="#d12229"/>
<path d="M12.863 9.61921C12.6629 9.41925 12.3387 9.41925 12.1385 9.61921L9.67784 12.0799C9.47782 12.2799 9.47782 12.6043 9.67788 12.8044C9.77792 12.9044 9.90903 12.9545 10.0401 12.9545C10.1712 12.9545 10.3023 12.9044 10.4023 12.8044L12.8629 10.3437C13.063 10.1437 13.063 9.81928 12.863 9.61921Z" fill="#d12229"/>
<path d="M14.3215 11.045C14.1215 10.845 13.7972 10.845 13.597 11.045L12.6168 12.0253C12.4168 12.2253 12.4168 12.5496 12.6168 12.7498C12.7168 12.8497 12.848 12.8998 12.979 12.8998C13.1101 12.8998 13.2412 12.8497 13.3412 12.7498L14.3215 11.7695C14.5216 11.5694 14.5216 11.2451 14.3215 11.045Z" fill="#d12229"/>
<path d="M16.6583 3.79175H7.34285C7.08823 3.79175 6.88184 3.99814 6.88184 4.25276V18.375C6.88184 18.6297 7.08823 18.836 7.34285 18.836H16.6583C16.9129 18.836 17.1193 18.6297 17.1193 18.375V4.25276C17.1193 3.99819 16.9129 3.79175 16.6583 3.79175ZM16.1973 17.914H7.80382V4.71383H16.1973V17.914Z" fill="#d12229"/>
</svg>
