<svg width="656" height="402" viewBox="0 0 656 402" fill="none" xmlns="http://www.w3.org/2000/svg">
<rect x="601" y="201" width="40" height="80" transform="rotate(180 601 201)" fill="white" stroke="#F4F4F4" stroke-width="2"/>
<rect x="641" y="161" width="40" height="80" transform="rotate(180 641 161)" fill="white" stroke="#F4F4F4" stroke-width="2"/>
<rect x="521" y="281" width="40" height="80" transform="rotate(180 521 281)" fill="white" stroke="#F4F4F4" stroke-width="2"/>
<rect x="481" y="321" width="40" height="80" transform="rotate(180 481 321)" fill="white" stroke="#F4F4F4" stroke-width="2"/>
<rect x="401" y="241" width="40" height="80" transform="rotate(-90 401 241)" fill="white" stroke="#F4F4F4" stroke-width="2"/>
<rect x="201" y="281" width="40" height="80" transform="rotate(-90 201 281)" fill="white" stroke="#F4F4F4" stroke-width="2"/>
<rect x="81" y="241" width="40" height="80" transform="rotate(-90 81 241)" fill="white" stroke="#F4F4F4" stroke-width="2"/>
<rect x="41" y="281" width="40" height="80" transform="rotate(-90 41 281)" fill="white" stroke="#F4F4F4" stroke-width="2"/>
<rect x="441" y="201" width="40" height="80" transform="rotate(-90 441 201)" fill="white" stroke="#F4F4F4" stroke-width="2"/>
<rect x="641" y="321" width="40" height="80" transform="rotate(180 641 321)" fill="white" stroke="#F4F4F4" stroke-width="2"/>
<rect x="681" y="281" width="40" height="80" transform="rotate(180 681 281)" fill="white" stroke="#F4F4F4" stroke-width="2"/>
<rect x="681" y="161" width="40" height="80" transform="rotate(90 681 161)" fill="white" stroke="#F4F4F4" stroke-width="2"/>
<rect x="721" y="121" width="40" height="80" transform="rotate(90 721 121)" fill="white" stroke="#F4F4F4" stroke-width="2"/>
<rect x="681" y="121" width="40" height="80" transform="rotate(180 681 121)" fill="white" stroke="#F4F4F4" stroke-width="2"/>
<rect x="681" y="1" width="40" height="80" transform="rotate(90 681 1)" fill="white" stroke="#F4F4F4" stroke-width="2"/>
<rect x="721" y="281" width="40" height="80" transform="rotate(90 721 281)" fill="white" stroke="#F4F4F4" stroke-width="2"/>
<rect x="161" y="321" width="40" height="80" transform="rotate(180 161 321)" fill="white" stroke="#F4F4F4" stroke-width="2"/>
<rect x="1" y="321" width="40" height="80" transform="rotate(-90 1 321)" fill="white" stroke="#F4F4F4" stroke-width="2"/>
<rect x="121" y="361" width="40" height="80" transform="rotate(180 121 361)" fill="white" stroke="#F4F4F4" stroke-width="2"/>
<rect x="321" y="321" width="40" height="80" transform="rotate(180 321 321)" fill="white" stroke="#F4F4F4" stroke-width="2"/>
<rect x="161" y="321" width="40" height="80" transform="rotate(-90 161 321)" fill="white" stroke="#F4F4F4" stroke-width="2"/>
<rect x="281" y="361" width="40" height="80" transform="rotate(180 281 361)" fill="white" stroke="#F4F4F4" stroke-width="2"/>
<rect x="201" y="281" width="40" height="80" transform="rotate(180 201 281)" fill="white" stroke="#F4F4F4" stroke-width="2"/>
<rect x="241" y="241" width="40" height="80" transform="rotate(180 241 241)" fill="white" stroke="#F4F4F4" stroke-width="2"/>
<rect x="281" y="201" width="40" height="80" transform="rotate(180 281 201)" fill="white" stroke="#F4F4F4" stroke-width="2"/>
<rect x="561" y="241" width="40" height="80" transform="rotate(180 561 241)" fill="white" stroke="#F4F4F4" stroke-width="2"/>
<rect x="521" y="281" width="40" height="80" transform="rotate(-90 521 281)" fill="white" stroke="#F4F4F4" stroke-width="2"/>
<rect x="601" y="361" width="40" height="80" transform="rotate(180 601 361)" fill="white" stroke="#F4F4F4" stroke-width="2"/>
<rect x="561" y="401" width="40" height="80" transform="rotate(180 561 401)" fill="white" stroke="#F4F4F4" stroke-width="2"/>
<rect x="481" y="321" width="40" height="80" transform="rotate(-90 481 321)" fill="white" stroke="#F4F4F4" stroke-width="2"/>
<rect x="601" y="361" width="40" height="80" transform="rotate(-90 601 361)" fill="white" stroke="#F4F4F4" stroke-width="2"/>
<rect x="441" y="361" width="40" height="80" transform="rotate(-90 441 361)" fill="white" stroke="#F4F4F4" stroke-width="2"/>
<rect x="561" y="241" width="40" height="80" transform="rotate(-90 561 241)" fill="white" stroke="#F4F4F4" stroke-width="2"/>
<rect x="401" y="241" width="40" height="80" transform="rotate(180 401 241)" fill="white" stroke="#F4F4F4" stroke-width="2"/>
<rect x="361" y="121" width="40" height="80" transform="rotate(180 361 121)" fill="white" stroke="#F4F4F4" stroke-width="2"/>
<rect x="321" y="161" width="40" height="80" transform="rotate(180 321 161)" fill="white" stroke="#F4F4F4" stroke-width="2"/>
<rect x="241" y="241" width="40" height="80" transform="rotate(-90 241 241)" fill="white" stroke="#F4F4F4" stroke-width="2"/>
<rect x="121" y="201" width="40" height="80" transform="rotate(-90 121 201)" fill="white" stroke="#F4F4F4" stroke-width="2"/>
<rect x="161" y="161" width="40" height="80" transform="rotate(-90 161 161)" fill="white" stroke="#F4F4F4" stroke-width="2"/>
<rect x="361" y="281" width="40" height="80" transform="rotate(-90 361 281)" fill="white" stroke="#F4F4F4" stroke-width="2"/>
<rect x="441" y="361" width="40" height="80" transform="rotate(180 441 361)" fill="white" stroke="#F4F4F4" stroke-width="2"/>
<rect x="321" y="321" width="40" height="80" transform="rotate(-90 321 321)" fill="white" stroke="#F4F4F4" stroke-width="2"/>
<rect x="281" y="201" width="40" height="80" transform="rotate(-90 281 201)" fill="white" stroke="#F4F4F4" stroke-width="2"/>
<rect x="481" y="161" width="40" height="80" transform="rotate(180 481 161)" fill="white" stroke="#F4F4F4" stroke-width="2"/>
<rect x="521" y="121" width="40" height="80" transform="rotate(180 521 121)" fill="white" stroke="#F4F4F4" stroke-width="2"/>
<rect x="561" y="81" width="40" height="80" transform="rotate(180 561 81)" fill="white" stroke="#F4F4F4" stroke-width="2"/>
<rect x="401" y="81" width="40" height="80" transform="rotate(180 401 81)" fill="white" stroke="#F4F4F4" stroke-width="2"/>
<rect x="361" y="281" width="40" height="80" transform="rotate(180 361 281)" fill="white" stroke="#F4F4F4" stroke-width="2"/>
<rect x="441" y="201" width="40" height="80" transform="rotate(180 441 201)" fill="white" stroke="#F4F4F4" stroke-width="2"/>
<rect x="361" y="121" width="40" height="80" transform="rotate(-90 361 121)" fill="white" stroke="#F4F4F4" stroke-width="2"/>
<rect x="201" y="121" width="40" height="80" transform="rotate(-90 201 121)" fill="white" stroke="#F4F4F4" stroke-width="2"/>
<rect x="241" y="81" width="40" height="80" transform="rotate(-90 241 81)" fill="white" stroke="#F4F4F4" stroke-width="2"/>
<rect x="401" y="81" width="40" height="80" transform="rotate(-90 401 81)" fill="white" stroke="#F4F4F4" stroke-width="2"/>
<rect x="321" y="161" width="40" height="80" transform="rotate(-90 321 161)" fill="white" stroke="#F4F4F4" stroke-width="2"/>
<rect x="481" y="161" width="40" height="80" transform="rotate(-90 481 161)" fill="white" stroke="#F4F4F4" stroke-width="2"/>
<rect x="521" y="121" width="40" height="80" transform="rotate(-90 521 121)" fill="white" stroke="#F4F4F4" stroke-width="2"/>
<rect x="561" y="81" width="40" height="80" transform="rotate(-90 561 81)" fill="white" stroke="#F4F4F4" stroke-width="2"/>
</svg>
