<svg width="402" height="762" viewBox="0 0 402 762" fill="none" xmlns="http://www.w3.org/2000/svg">
<rect x="201" y="601" width="40" height="80" transform="rotate(-90 201 601)" fill="white" stroke="#F4F4F4" stroke-width="2"/>
<rect x="241" y="641" width="40" height="80" transform="rotate(-90 241 641)" fill="white" stroke="#F4F4F4" stroke-width="2"/>
<rect x="121" y="521" width="40" height="80" transform="rotate(-90 121 521)" fill="white" stroke="#F4F4F4" stroke-width="2"/>
<rect x="81" y="481" width="40" height="80" transform="rotate(-90 81 481)" fill="white" stroke="#F4F4F4" stroke-width="2"/>
<rect x="161" y="401" width="40" height="80" fill="white" stroke="#F4F4F4" stroke-width="2"/>
<rect x="121" y="201" width="40" height="80" fill="white" stroke="#F4F4F4" stroke-width="2"/>
<rect x="161" y="81.0001" width="40" height="80" fill="white" stroke="#F4F4F4" stroke-width="2"/>
<rect x="121" y="41.0001" width="40" height="80" fill="white" stroke="#F4F4F4" stroke-width="2"/>
<rect x="201" y="441" width="40" height="80" fill="white" stroke="#F4F4F4" stroke-width="2"/>
<rect x="81" y="641" width="40" height="80" transform="rotate(-90 81 641)" fill="white" stroke="#F4F4F4" stroke-width="2"/>
<rect x="121" y="681" width="40" height="80" transform="rotate(-90 121 681)" fill="white" stroke="#F4F4F4" stroke-width="2"/>
<rect x="161" y="761" width="40" height="80" transform="rotate(-180 161 761)" fill="white" stroke="#F4F4F4" stroke-width="2"/>
<rect x="241" y="681" width="40" height="80" transform="rotate(180 241 681)" fill="white" stroke="#F4F4F4" stroke-width="2"/>
<rect x="161" y="721" width="40" height="80" transform="rotate(-90 161 721)" fill="white" stroke="#F4F4F4" stroke-width="2"/>
<rect x="281" y="721" width="40" height="80" transform="rotate(180 281 721)" fill="white" stroke="#F4F4F4" stroke-width="2"/>
<rect x="281" y="681" width="40" height="80" transform="rotate(-90 281 681)" fill="white" stroke="#F4F4F4" stroke-width="2"/>
<rect x="401" y="681" width="40" height="80" transform="rotate(180 401 681)" fill="white" stroke="#F4F4F4" stroke-width="2"/>
<rect x="121" y="721" width="40" height="80" transform="rotate(180 121 721)" fill="white" stroke="#F4F4F4" stroke-width="2"/>
<rect x="81" y="161" width="40" height="80" transform="rotate(-90 81 161)" fill="white" stroke="#F4F4F4" stroke-width="2"/>
<rect x="81" y="1.00006" width="40" height="80" fill="white" stroke="#F4F4F4" stroke-width="2"/>
<rect x="41" y="121" width="40" height="80" transform="rotate(-90 41 121)" fill="white" stroke="#F4F4F4" stroke-width="2"/>
<rect x="81" y="321" width="40" height="80" transform="rotate(-90 81 321)" fill="white" stroke="#F4F4F4" stroke-width="2"/>
<rect x="81" y="161" width="40" height="80" fill="white" stroke="#F4F4F4" stroke-width="2"/>
<rect x="41" y="281" width="40" height="80" transform="rotate(-90 41 281)" fill="white" stroke="#F4F4F4" stroke-width="2"/>
<rect x="121" y="201" width="40" height="80" transform="rotate(-90 121 201)" fill="white" stroke="#F4F4F4" stroke-width="2"/>
<rect x="161" y="241" width="40" height="80" transform="rotate(-90 161 241)" fill="white" stroke="#F4F4F4" stroke-width="2"/>
<rect x="201" y="281" width="40" height="80" transform="rotate(-90 201 281)" fill="white" stroke="#F4F4F4" stroke-width="2"/>
<rect x="161" y="561" width="40" height="80" transform="rotate(-90 161 561)" fill="white" stroke="#F4F4F4" stroke-width="2"/>
<rect x="121" y="521" width="40" height="80" fill="white" stroke="#F4F4F4" stroke-width="2"/>
<rect x="41" y="601" width="40" height="80" transform="rotate(-90 41 601)" fill="white" stroke="#F4F4F4" stroke-width="2"/>
<rect x="1" y="561" width="40" height="80" transform="rotate(-90 1 561)" fill="white" stroke="#F4F4F4" stroke-width="2"/>
<rect x="81" y="481" width="40" height="80" fill="white" stroke="#F4F4F4" stroke-width="2"/>
<rect x="41" y="601" width="40" height="80" fill="white" stroke="#F4F4F4" stroke-width="2"/>
<rect x="81" y="681" width="40" height="80" transform="rotate(90 81 681)" fill="white" stroke="#F4F4F4" stroke-width="2"/>
<rect x="41" y="441" width="40" height="80" fill="white" stroke="#F4F4F4" stroke-width="2"/>
<rect x="161" y="561" width="40" height="80" fill="white" stroke="#F4F4F4" stroke-width="2"/>
<rect x="161" y="401" width="40" height="80" transform="rotate(-90 161 401)" fill="white" stroke="#F4F4F4" stroke-width="2"/>
<rect x="281" y="361" width="40" height="80" transform="rotate(-90 281 361)" fill="white" stroke="#F4F4F4" stroke-width="2"/>
<rect x="241" y="321" width="40" height="80" transform="rotate(-90 241 321)" fill="white" stroke="#F4F4F4" stroke-width="2"/>
<rect x="161" y="241" width="40" height="80" fill="white" stroke="#F4F4F4" stroke-width="2"/>
<rect x="201" y="121" width="40" height="80" fill="white" stroke="#F4F4F4" stroke-width="2"/>
<rect x="241" y="161" width="40" height="80" fill="white" stroke="#F4F4F4" stroke-width="2"/>
<rect x="121" y="361" width="40" height="80" fill="white" stroke="#F4F4F4" stroke-width="2"/>
<rect x="41" y="441" width="40" height="80" transform="rotate(-90 41 441)" fill="white" stroke="#F4F4F4" stroke-width="2"/>
<rect x="81" y="321" width="40" height="80" fill="white" stroke="#F4F4F4" stroke-width="2"/>
<rect x="201" y="281" width="40" height="80" fill="white" stroke="#F4F4F4" stroke-width="2"/>
<rect x="241" y="481" width="40" height="80" transform="rotate(-90 241 481)" fill="white" stroke="#F4F4F4" stroke-width="2"/>
<rect x="281" y="521" width="40" height="80" transform="rotate(-90 281 521)" fill="white" stroke="#F4F4F4" stroke-width="2"/>
<rect x="321" y="561" width="40" height="80" transform="rotate(-90 321 561)" fill="white" stroke="#F4F4F4" stroke-width="2"/>
<rect x="321" y="401" width="40" height="80" transform="rotate(-90 321 401)" fill="white" stroke="#F4F4F4" stroke-width="2"/>
<rect x="121" y="361" width="40" height="80" transform="rotate(-90 121 361)" fill="white" stroke="#F4F4F4" stroke-width="2"/>
<rect x="201" y="441" width="40" height="80" transform="rotate(-90 201 441)" fill="white" stroke="#F4F4F4" stroke-width="2"/>
<rect x="281" y="361" width="40" height="80" fill="white" stroke="#F4F4F4" stroke-width="2"/>
<rect x="281" y="201" width="40" height="80" fill="white" stroke="#F4F4F4" stroke-width="2"/>
<rect x="321" y="241" width="40" height="80" fill="white" stroke="#F4F4F4" stroke-width="2"/>
<rect x="321" y="401" width="40" height="80" fill="white" stroke="#F4F4F4" stroke-width="2"/>
<rect x="241" y="321" width="40" height="80" fill="white" stroke="#F4F4F4" stroke-width="2"/>
<rect x="241" y="481" width="40" height="80" fill="white" stroke="#F4F4F4" stroke-width="2"/>
<rect x="281" y="521" width="40" height="80" fill="white" stroke="#F4F4F4" stroke-width="2"/>
<rect x="321" y="561" width="40" height="80" fill="white" stroke="#F4F4F4" stroke-width="2"/>
</svg>
