<svg width="240" height="762" viewBox="0 0 240 762" fill="none" xmlns="http://www.w3.org/2000/svg">
<rect x="201" y="161" width="40" height="80" transform="rotate(90 201 161)" stroke="#F4F4F4" stroke-width="2"/>
<rect x="161" y="121" width="40" height="80" transform="rotate(90 161 121)" stroke="#F4F4F4" stroke-width="2"/>
<rect x="281" y="241" width="40" height="80" transform="rotate(90 281 241)" stroke="#F4F4F4" stroke-width="2"/>
<rect x="241" y="361" width="40" height="80" transform="rotate(-180 241 361)" stroke="#F4F4F4" stroke-width="2"/>
<rect x="241" y="681" width="40" height="80" transform="rotate(-180 241 681)" stroke="#F4F4F4" stroke-width="2"/>
<rect x="201" y="321" width="40" height="80" transform="rotate(-180 201 321)" stroke="#F4F4F4" stroke-width="2"/>
<rect x="281" y="81" width="40" height="80" transform="rotate(90 281 81)" stroke="#F4F4F4" stroke-width="2"/>
<rect x="161" y="81" width="40" height="80" stroke="#F4F4F4" stroke-width="2"/>
<rect x="241" y="41" width="40" height="80" transform="rotate(90 241 41)" stroke="#F4F4F4" stroke-width="2"/>
<rect x="121" y="41" width="40" height="80" stroke="#F4F4F4" stroke-width="2"/>
<rect x="121" y="81" width="40" height="80" transform="rotate(90 121 81)" stroke="#F4F4F4" stroke-width="2"/>
<rect x="1" y="81" width="40" height="80" stroke="#F4F4F4" stroke-width="2"/>
<rect x="281" y="561" width="40" height="80" transform="rotate(90 281 561)" stroke="#F4F4F4" stroke-width="2"/>
<rect x="241" y="521" width="40" height="80" transform="rotate(90 241 521)" stroke="#F4F4F4" stroke-width="2"/>
<rect x="201" y="481" width="40" height="80" transform="rotate(90 201 481)" stroke="#F4F4F4" stroke-width="2"/>
<rect x="241" y="201" width="40" height="80" transform="rotate(90 241 201)" stroke="#F4F4F4" stroke-width="2"/>
<rect x="241" y="201" width="40" height="80" transform="rotate(-180 241 201)" stroke="#F4F4F4" stroke-width="2"/>
<rect x="241" y="361" width="40" height="80" transform="rotate(90 241 361)" stroke="#F4F4F4" stroke-width="2"/>
<rect x="121" y="401" width="40" height="80" transform="rotate(90 121 401)" stroke="#F4F4F4" stroke-width="2"/>
<rect x="161" y="441" width="40" height="80" transform="rotate(90 161 441)" stroke="#F4F4F4" stroke-width="2"/>
<rect x="241" y="521" width="40" height="80" transform="rotate(-180 241 521)" stroke="#F4F4F4" stroke-width="2"/>
<rect x="201" y="641" width="40" height="80" transform="rotate(-180 201 641)" stroke="#F4F4F4" stroke-width="2"/>
<rect x="161" y="601" width="40" height="80" transform="rotate(-180 161 601)" stroke="#F4F4F4" stroke-width="2"/>
<rect x="201" y="481" width="40" height="80" transform="rotate(-180 201 481)" stroke="#F4F4F4" stroke-width="2"/>
<rect x="161" y="281" width="40" height="80" transform="rotate(90 161 281)" stroke="#F4F4F4" stroke-width="2"/>
<rect x="121" y="241" width="40" height="80" transform="rotate(90 121 241)" stroke="#F4F4F4" stroke-width="2"/>
<rect x="81" y="201" width="40" height="80" transform="rotate(90 81 201)" stroke="#F4F4F4" stroke-width="2"/>
<rect x="81" y="361" width="40" height="80" transform="rotate(90 81 361)" stroke="#F4F4F4" stroke-width="2"/>
<rect x="281" y="401" width="40" height="80" transform="rotate(90 281 401)" stroke="#F4F4F4" stroke-width="2"/>
<rect x="201" y="321" width="40" height="80" transform="rotate(90 201 321)" stroke="#F4F4F4" stroke-width="2"/>
<rect x="121" y="401" width="40" height="80" transform="rotate(-180 121 401)" stroke="#F4F4F4" stroke-width="2"/>
<rect x="121" y="561" width="40" height="80" transform="rotate(-180 121 561)" stroke="#F4F4F4" stroke-width="2"/>
<rect x="81" y="521" width="40" height="80" transform="rotate(-180 81 521)" stroke="#F4F4F4" stroke-width="2"/>
<rect x="81" y="361" width="40" height="80" transform="rotate(-180 81 361)" stroke="#F4F4F4" stroke-width="2"/>
<rect x="161" y="441" width="40" height="80" transform="rotate(-180 161 441)" stroke="#F4F4F4" stroke-width="2"/>
<rect x="161" y="281" width="40" height="80" transform="rotate(-180 161 281)" stroke="#F4F4F4" stroke-width="2"/>
<rect x="121" y="241" width="40" height="80" transform="rotate(-180 121 241)" stroke="#F4F4F4" stroke-width="2"/>
<rect x="81" y="201" width="40" height="80" transform="rotate(-180 81 201)" stroke="#F4F4F4" stroke-width="2"/>
</svg>
