<svg width="329" height="402" viewBox="0 0 329 402" fill="none" xmlns="http://www.w3.org/2000/svg">
<rect x="161" y="201" width="40" height="80" stroke="#F4F4F4" stroke-width="2"/>
<rect x="121" y="241" width="40" height="80" stroke="#F4F4F4" stroke-width="2"/>
<rect x="241" y="121" width="40" height="80" stroke="#F4F4F4" stroke-width="2"/>
<rect x="281" y="81" width="40" height="80" stroke="#F4F4F4" stroke-width="2"/>
<rect x="361" y="161" width="40" height="80" transform="rotate(90 361 161)" stroke="#F4F4F4" stroke-width="2"/>
<rect x="321" y="201" width="40" height="80" transform="rotate(90 321 201)" stroke="#F4F4F4" stroke-width="2"/>
<rect x="121" y="81" width="40" height="80" stroke="#F4F4F4" stroke-width="2"/>
<rect x="81" y="121" width="40" height="80" stroke="#F4F4F4" stroke-width="2"/>
<rect x="1" y="161" width="40" height="80" transform="rotate(-90 1 161)" stroke="#F4F4F4" stroke-width="2"/>
<rect x="81" y="241" width="40" height="80" transform="rotate(-90 81 241)" stroke="#F4F4F4" stroke-width="2"/>
<rect x="41" y="161" width="40" height="80" stroke="#F4F4F4" stroke-width="2"/>
<rect x="41" y="281" width="40" height="80" transform="rotate(-90 41 281)" stroke="#F4F4F4" stroke-width="2"/>
<rect x="81" y="281" width="40" height="80" stroke="#F4F4F4" stroke-width="2"/>
<rect x="81" y="401" width="40" height="80" transform="rotate(-90 81 401)" stroke="#F4F4F4" stroke-width="2"/>
<rect x="41" y="121" width="40" height="80" transform="rotate(-90 41 121)" stroke="#F4F4F4" stroke-width="2"/>
<rect x="201" y="161" width="40" height="80" stroke="#F4F4F4" stroke-width="2"/>
<rect x="241" y="121" width="40" height="80" transform="rotate(90 241 121)" stroke="#F4F4F4" stroke-width="2"/>
<rect x="161" y="41" width="40" height="80" stroke="#F4F4F4" stroke-width="2"/>
<rect x="201" y="1" width="40" height="80" stroke="#F4F4F4" stroke-width="2"/>
<rect x="281" y="81" width="40" height="80" transform="rotate(90 281 81)" stroke="#F4F4F4" stroke-width="2"/>
<rect x="161" y="41" width="40" height="80" transform="rotate(90 161 41)" stroke="#F4F4F4" stroke-width="2"/>
<rect x="81" y="81" width="40" height="80" transform="rotate(-180 81 81)" stroke="#F4F4F4" stroke-width="2"/>
<rect x="321" y="41" width="40" height="80" transform="rotate(90 321 41)" stroke="#F4F4F4" stroke-width="2"/>
<rect x="201" y="161" width="40" height="80" transform="rotate(90 201 161)" stroke="#F4F4F4" stroke-width="2"/>
<rect x="401" y="121" width="40" height="80" transform="rotate(90 401 121)" stroke="#F4F4F4" stroke-width="2"/>
<rect x="321" y="41" width="40" height="80" stroke="#F4F4F4" stroke-width="2"/>
<rect x="281" y="241" width="40" height="80" stroke="#F4F4F4" stroke-width="2"/>
<rect x="241" y="281" width="40" height="80" stroke="#F4F4F4" stroke-width="2"/>
<rect x="201" y="321" width="40" height="80" stroke="#F4F4F4" stroke-width="2"/>
<rect x="321" y="201" width="40" height="80" stroke="#F4F4F4" stroke-width="2"/>
<rect x="401" y="281" width="40" height="80" transform="rotate(90 401 281)" stroke="#F4F4F4" stroke-width="2"/>
<rect x="361" y="321" width="40" height="80" transform="rotate(90 361 321)" stroke="#F4F4F4" stroke-width="2"/>
<rect x="281" y="241" width="40" height="80" transform="rotate(90 281 241)" stroke="#F4F4F4" stroke-width="2"/>
<rect x="241" y="281" width="40" height="80" transform="rotate(90 241 281)" stroke="#F4F4F4" stroke-width="2"/>
<rect x="201" y="321" width="40" height="80" transform="rotate(90 201 321)" stroke="#F4F4F4" stroke-width="2"/>
</svg>
