<svg width="80" height="80" viewBox="0 0 80 80" fill="none" xmlns="http://www.w3.org/2000/svg">
<g clip-path="url(#clip0)">
<path d="M40.1223 80.0003C39.8555 80.0003 39.5872 79.9162 39.3621 79.7489L0.990853 51.3067C0.659007 51.0611 0.467502 50.6693 0.474811 50.2563C0.48139 49.8433 0.688976 49.4589 1.02959 49.2264L5.54532 46.1324C6.12861 45.734 6.9224 45.8838 7.32149 46.4642C7.71912 47.0468 7.57148 47.8413 6.98892 48.2404L3.95188 50.3214L40.1223 77.1321L76.3234 50.2994L73.3317 48.1622C72.7586 47.7514 72.6248 46.9539 73.0349 46.3809C73.4449 45.8071 74.2439 45.6733 74.8162 46.0834L79.2362 49.241C79.5687 49.4779 79.7675 49.8609 79.7712 50.2687C79.7749 50.6781 79.5826 51.0633 79.2544 51.3067L40.8825 79.7481C40.6581 79.9162 40.3898 80.0003 40.1223 80.0003V80.0003Z" fill="#272626"/>
<path d="M40.1223 73.5607C39.8555 73.5607 39.5872 73.4767 39.3621 73.3093L0.990853 44.8664C0.659007 44.6193 0.467502 44.229 0.474811 43.8153C0.48139 43.4023 0.688976 43.0186 1.02959 42.7854L5.21347 39.9201C5.79895 39.5225 6.59056 39.6716 6.98965 40.252C7.38801 40.8345 7.23963 41.629 6.6578 42.0289L3.95188 43.8811L40.1223 70.6925L76.3241 43.8584L73.7498 42.0194C73.176 41.61 73.0422 40.8119 73.4523 40.2381C73.8623 39.665 74.662 39.5313 75.2343 39.9413L79.2376 42.8007C79.5702 43.0376 79.769 43.4198 79.7727 43.8284C79.7763 44.2363 79.5841 44.623 79.2559 44.8664L40.8839 73.3093C40.6581 73.4767 40.3898 73.5607 40.1223 73.5607Z" fill="#272626"/>
<path d="M64.5712 28.7324C64.3146 28.7324 64.0544 28.6556 63.83 28.4941L51.0065 19.3355C50.4327 18.9261 50.2997 18.128 50.7097 17.5542C51.1198 16.9804 51.9187 16.8474 52.491 17.2574L65.3146 26.416C65.8883 26.8254 66.0221 27.6235 65.6121 28.1973C65.3628 28.5467 64.9703 28.7324 64.5712 28.7324V28.7324Z" fill="#272626"/>
<path d="M27.0589 57.437C26.7951 57.437 26.529 57.3559 26.2995 57.1863L13.7055 47.8515C13.139 47.4312 13.0206 46.6316 13.4394 46.0636C13.8612 45.4972 14.6593 45.3795 15.2273 45.7983L27.822 55.1331C28.3885 55.5534 28.5062 56.353 28.0874 56.9202C27.8367 57.2587 27.4493 57.437 27.0589 57.437V57.437Z" fill="#272626"/>
<path d="M32.5664 34.2517C32.4531 34.2517 32.3383 34.2371 32.2257 34.2056L14.8777 29.4078C14.3989 29.2755 14.04 28.8778 13.9589 28.3874C13.877 27.8969 14.0868 27.4028 14.4961 27.1221L40.2068 9.51314C40.6505 9.2098 41.2345 9.21638 41.6709 9.52849L52.4917 17.2574C52.8213 17.4935 53.0201 17.8699 53.0267 18.2756C53.0333 18.6813 52.8469 19.065 52.5253 19.3113L33.3433 33.9886C33.1175 34.1603 32.8434 34.2517 32.5664 34.2517ZM18.2071 27.6776L32.2952 31.5735L49.6016 18.3319L40.9136 12.127L18.2071 27.6776Z" fill="#272626"/>
<path d="M14.4657 48.103C14.1989 48.103 13.9306 48.0189 13.7055 47.8515L0.990853 38.4268C0.659007 38.1798 0.467502 37.7894 0.474811 37.3765C0.48139 36.9627 0.688976 36.579 1.02959 36.3458L14.4956 27.1221C15.0797 26.723 15.8727 26.8751 16.2718 27.4547C16.6702 28.0373 16.5218 28.8318 15.94 29.2309L3.95188 37.4415L14.454 45.226L31.7911 31.9602C32.3502 31.5319 33.155 31.6379 33.5819 32.1985C34.0109 32.7584 33.9035 33.561 33.3436 33.9886L15.2427 47.8391C15.0139 48.0153 14.739 48.103 14.4657 48.103Z" fill="#272626"/>
<path d="M40.1222 67.1197C39.8554 67.1197 39.5872 67.0364 39.3621 66.869L26.2995 57.1863C25.9779 56.9466 25.7857 56.5701 25.7827 56.1696C25.7805 55.7676 25.9647 55.3882 26.2842 55.1448L44.4742 41.227C44.8273 40.9559 45.2973 40.8879 45.7124 41.0516C46.1276 41.2124 46.4288 41.5786 46.507 42.0172L49.6229 59.5078C49.7085 59.9858 49.5162 60.4697 49.1266 60.7591L40.8839 66.869C40.658 67.0364 40.3898 67.1197 40.1222 67.1197ZM29.1838 56.1433L40.1222 64.2515L46.9704 59.1774L44.3602 44.5301L29.1838 56.1433Z" fill="#272626"/>
<path d="M48.3671 61.0098C47.9753 61.0098 47.5894 60.8322 47.3394 60.493C46.9199 59.9258 47.0383 59.1262 47.6048 58.7059L76.324 37.4188L64.5998 29.0438L46.0259 43.2561C45.4682 43.6852 44.6635 43.5792 44.2359 43.0178C43.8068 42.4579 43.9135 41.6554 44.4742 41.2278L63.7972 26.4416C64.2409 26.1003 64.8585 26.0886 65.3153 26.4168L79.2375 36.3612C79.5701 36.598 79.7689 36.9803 79.7725 37.3889C79.7762 37.7975 79.584 38.1834 79.2558 38.4268L49.1266 60.7591C48.897 60.9287 48.631 61.0098 48.3671 61.0098V61.0098Z" fill="#272626"/>
<path d="M33.4835 9.52339C33.1568 9.52339 32.8301 9.3984 32.5801 9.14915L28.5351 5.10342C28.0358 4.60419 28.0358 3.79577 28.5351 3.29727C29.0336 2.79804 29.842 2.79804 30.3412 3.29727L34.387 7.34228C34.8855 7.84151 34.8855 8.64992 34.387 9.14915C34.137 9.3984 33.8102 9.52339 33.4835 9.52339Z" fill="#272626"/>
<path d="M48.372 9.52339C48.0446 9.52339 47.7186 9.3984 47.4686 9.14915C46.9701 8.64992 46.9701 7.84151 47.4686 7.34228L51.5143 3.29727C52.0128 2.79804 52.8213 2.79804 53.3205 3.29727C53.819 3.79577 53.819 4.60419 53.3205 5.10342L49.2747 9.14915C49.0255 9.3984 48.6988 9.52339 48.372 9.52339V9.52339Z" fill="#272626"/>
<path d="M39.827 7.6646C39.1209 7.6646 38.5493 7.09301 38.5493 6.38692V1.27768C38.5493 0.571592 39.1209 0 39.827 0C40.5323 0 41.1039 0.571592 41.1039 1.27768V6.38692C41.1039 7.09374 40.5331 7.6646 39.827 7.6646Z" fill="#272626"/>
</g>
<defs>
<clipPath id="clip0">
<rect width="80" height="80" fill="white"/>
</clipPath>
</defs>
</svg>
