<svg width="240" height="762" viewBox="0 0 240 762" fill="none" xmlns="http://www.w3.org/2000/svg">
<rect x="39" y="601" width="40" height="80" transform="rotate(-90 39 601)" fill="white" stroke="#F4F4F4" stroke-width="2"/>
<rect x="79" y="641" width="40" height="80" transform="rotate(-90 79 641)" fill="white" stroke="#F4F4F4" stroke-width="2"/>
<rect x="-41" y="521" width="40" height="80" transform="rotate(-90 -41 521)" fill="white" stroke="#F4F4F4" stroke-width="2"/>
<rect x="-1" y="401" width="40" height="80" fill="white" stroke="#F4F4F4" stroke-width="2"/>
<rect x="-1" y="81" width="40" height="80" fill="white" stroke="#F4F4F4" stroke-width="2"/>
<rect x="39" y="441" width="40" height="80" fill="white" stroke="#F4F4F4" stroke-width="2"/>
<rect x="-41" y="681" width="40" height="80" transform="rotate(-90 -41 681)" fill="white" stroke="#F4F4F4" stroke-width="2"/>
<rect x="79" y="681" width="40" height="80" transform="rotate(180 79 681)" fill="white" stroke="#F4F4F4" stroke-width="2"/>
<rect x="-1" y="721" width="40" height="80" transform="rotate(-90 -1 721)" fill="white" stroke="#F4F4F4" stroke-width="2"/>
<rect x="119" y="721" width="40" height="80" transform="rotate(180 119 721)" fill="white" stroke="#F4F4F4" stroke-width="2"/>
<rect x="119" y="681" width="40" height="80" transform="rotate(-90 119 681)" fill="white" stroke="#F4F4F4" stroke-width="2"/>
<rect x="239" y="681" width="40" height="80" transform="rotate(180 239 681)" fill="white" stroke="#F4F4F4" stroke-width="2"/>
<rect x="-41" y="201" width="40" height="80" transform="rotate(-90 -41 201)" fill="white" stroke="#F4F4F4" stroke-width="2"/>
<rect x="-1" y="241" width="40" height="80" transform="rotate(-90 -1 241)" fill="white" stroke="#F4F4F4" stroke-width="2"/>
<rect x="39" y="281" width="40" height="80" transform="rotate(-90 39 281)" fill="white" stroke="#F4F4F4" stroke-width="2"/>
<rect x="-1" y="561" width="40" height="80" transform="rotate(-90 -1 561)" fill="white" stroke="#F4F4F4" stroke-width="2"/>
<rect x="-1" y="561" width="40" height="80" fill="white" stroke="#F4F4F4" stroke-width="2"/>
<rect x="-1" y="401" width="40" height="80" transform="rotate(-90 -1 401)" fill="white" stroke="#F4F4F4" stroke-width="2"/>
<rect x="119" y="361" width="40" height="80" transform="rotate(-90 119 361)" fill="white" stroke="#F4F4F4" stroke-width="2"/>
<rect x="79" y="321" width="40" height="80" transform="rotate(-90 79 321)" fill="white" stroke="#F4F4F4" stroke-width="2"/>
<rect x="-1" y="241" width="40" height="80" fill="white" stroke="#F4F4F4" stroke-width="2"/>
<rect x="39" y="121" width="40" height="80" fill="white" stroke="#F4F4F4" stroke-width="2"/>
<rect x="79" y="161" width="40" height="80" fill="white" stroke="#F4F4F4" stroke-width="2"/>
<rect x="39" y="281" width="40" height="80" fill="white" stroke="#F4F4F4" stroke-width="2"/>
<rect x="79" y="481" width="40" height="80" transform="rotate(-90 79 481)" fill="white" stroke="#F4F4F4" stroke-width="2"/>
<rect x="119" y="521" width="40" height="80" transform="rotate(-90 119 521)" fill="white" stroke="#F4F4F4" stroke-width="2"/>
<rect x="159" y="561" width="40" height="80" transform="rotate(-90 159 561)" fill="white" stroke="#F4F4F4" stroke-width="2"/>
<rect x="159" y="401" width="40" height="80" transform="rotate(-90 159 401)" fill="white" stroke="#F4F4F4" stroke-width="2"/>
<rect x="-41" y="361" width="40" height="80" transform="rotate(-90 -41 361)" fill="white" stroke="#F4F4F4" stroke-width="2"/>
<rect x="39" y="441" width="40" height="80" transform="rotate(-90 39 441)" fill="white" stroke="#F4F4F4" stroke-width="2"/>
<rect x="119" y="361" width="40" height="80" fill="white" stroke="#F4F4F4" stroke-width="2"/>
<rect x="119" y="201" width="40" height="80" fill="white" stroke="#F4F4F4" stroke-width="2"/>
<rect x="159" y="241" width="40" height="80" fill="white" stroke="#F4F4F4" stroke-width="2"/>
<rect x="159" y="401" width="40" height="80" fill="white" stroke="#F4F4F4" stroke-width="2"/>
<rect x="79" y="321" width="40" height="80" fill="white" stroke="#F4F4F4" stroke-width="2"/>
<rect x="79" y="481" width="40" height="80" fill="white" stroke="#F4F4F4" stroke-width="2"/>
<rect x="119" y="521" width="40" height="80" fill="white" stroke="#F4F4F4" stroke-width="2"/>
<rect x="159" y="561" width="40" height="80" fill="white" stroke="#F4F4F4" stroke-width="2"/>
</svg>
